<svg width="764" height="766" viewBox="0 0 764 766" fill="none" xmlns="http://www.w3.org/2000/svg">
<mask id="mask0_135_15546" style="mask-type:luminance" maskUnits="userSpaceOnUse" x="0" y="0" width="764" height="766">
<path d="M0 0.980957H764V765.117H0V0.980957Z" fill="white"/>
</mask>
<g mask="url(#mask0_135_15546)">
<mask id="mask1_135_15546" style="mask-type:luminance" maskUnits="userSpaceOnUse" x="-2" y="11" width="753" height="748">
<path d="M-1.86353 11.157H750.596V758.831H-1.86353V11.157Z" fill="white"/>
</mask>
<g mask="url(#mask1_135_15546)">
<path d="M296.214 582.128C342.214 590.077 388.054 592.485 431.805 590.077C475.638 587.669 517.785 580.363 556.078 568.883C594.854 557.242 630.017 541.105 659.479 521.033C689.422 500.642 713.507 476.075 729.242 447.735C728.358 407.834 718.082 368.737 700.42 332.129C683.001 296 658.273 262.041 628.09 231.936C598.145 202.069 562.582 175.657 523.085 154.462C483.666 133.268 439.915 117.05 393.512 107.497C382.274 138.406 371.356 174.372 361.159 212.909C351.045 250.963 341.491 291.988 332.983 333.734C324.473 375.319 316.926 418.111 310.665 459.859C304.402 501.926 299.425 543.433 296.294 582.128H296.214Z" stroke="#303240" stroke-width="0.922197" stroke-linecap="round" stroke-linejoin="round"/>
<path d="M628.01 539.821C628.09 505.94 620.302 472.704 606.092 441.633C592.124 410.885 571.893 381.984 546.927 356.374C522.121 330.925 492.578 308.687 459.583 290.864C426.587 273.041 390.061 259.633 351.045 252.006" stroke="#303240" stroke-width="0.922197" stroke-linecap="round" stroke-linejoin="round"/>
<path d="M296.214 582.128C337.397 569.363 378.26 552.183 417.114 532.113C455.81 512.122 492.979 488.92 526.776 463.952C560.735 438.825 591.724 411.608 617.813 383.669C644.225 355.331 665.82 325.867 680.512 296.723" stroke="#303240" stroke-width="0.922197" stroke-linecap="round" stroke-linejoin="round"/>
<path d="M296.214 582.13C321.983 552.666 348.235 519.911 373.763 485.791C399.052 451.912 423.938 416.346 447.139 380.86C470.421 345.296 492.336 309.49 511.524 275.289C531.032 240.686 547.97 207.29 561.055 177.263M351.045 252.007C311.868 244.38 273.735 243.256 238.252 247.912C202.367 252.569 168.971 263.167 139.83 278.74C110.206 294.556 84.8382 315.67 65.4909 341.282C45.8224 367.292 32.4156 397.88 27.3582 432.242" stroke="#303240" stroke-width="0.922197" stroke-linecap="round" stroke-linejoin="round"/>
<path d="M296.214 582.128C275.742 544.637 258.482 504.013 244.513 462.588C230.625 421.242 219.948 378.613 212.884 336.945C205.74 294.957 202.206 253.531 202.689 214.916C203.17 175.737 207.827 139.048 217.218 107.497" stroke="#303240" stroke-width="0.922197" stroke-linecap="round" stroke-linejoin="round"/>
<path d="M296.214 582.128C258.001 555.555 223.641 525.127 193.938 492.612C164.074 459.937 138.786 424.854 119.037 389.368C99.0478 353.402 84.6777 316.632 77.1314 281.148C69.4247 244.939 68.8627 209.856 76.8907 178.064" stroke="#303240" stroke-width="0.922197" stroke-linecap="round" stroke-linejoin="round"/>
<path d="M296.214 582.13C249.893 574.181 207.344 561.336 169.854 544.719C131.802 527.94 98.7263 507.146 72.1538 483.624C45.0193 459.619 24.4679 432.723 12.426 404.142C0.0629216 374.841 -3.38909 343.77 4.07689 312.379C-2.50601 353.726 1.98962 395.875 15.9582 436.577C30.1677 478.003 54.091 517.743 85.9619 553.469C118.074 589.516 158.053 621.308 203.813 646.357C249.571 671.406 300.71 689.549 354.898 698.54C342.454 726.479 331.617 742.936 322.546 749.198C313.795 755.3 306.811 751.688 301.754 739.565C296.857 727.763 293.886 708.013 292.923 681.039C291.96 654.787 293.003 621.548 296.214 582.13Z" stroke="#303240" stroke-width="0.922197" stroke-linecap="round" stroke-linejoin="round"/>
<path d="M27.3577 432.322C22.1394 467.245 25.993 502.649 37.6335 536.69C49.3542 571.13 69.0228 604.128 95.1136 633.592C121.365 663.296 153.958 689.307 191.128 709.78C228.378 730.251 270.122 744.943 314.356 752.089" stroke="#303240" stroke-width="0.922197" stroke-linecap="round" stroke-linejoin="round"/>
<path d="M296.214 582.13C254.468 595.057 215.934 602.443 181.976 604.531C147.215 606.698 116.95 603.407 92.7054 594.897C67.8187 586.225 49.1137 572.016 38.5169 552.668C27.5988 532.758 25.1905 507.468 33.2183 477.121" stroke="#303240" stroke-width="0.922197" stroke-linecap="round" stroke-linejoin="round"/>
<path d="M296.214 582.13C269.962 612.155 246.44 636.16 226.289 653.903C205.577 672.047 188.399 683.688 175.554 688.263C162.307 693.001 153.637 690.19 150.587 679.272C147.456 668.032 150.185 648.202 160.14 619.14" stroke="#303240" stroke-width="0.922197" stroke-linecap="round" stroke-linejoin="round"/>
<path d="M296.214 582.13C293.003 621.548 292.04 654.785 292.923 681.037C293.886 708.013 296.857 727.843 301.754 739.565C306.811 751.686 313.795 755.22 322.546 749.198C331.537 742.936 342.454 726.477 354.898 698.54C408.686 707.37 459.984 706.326 506.385 696.853C552.144 687.54 592.927 670.119 626.644 646.355C659.799 622.993 686.051 593.529 703.713 559.489C721.052 526.093 730.045 488.44 729.161 447.815C713.427 476.075 689.342 500.722 659.399 521.115C630.016 541.185 594.774 557.242 555.998 568.963C517.625 580.524 475.558 587.749 431.725 590.157C387.974 592.565 342.214 590.157 296.134 582.21L296.214 582.13Z" stroke="#303240" stroke-width="0.922197" stroke-linecap="round" stroke-linejoin="round"/>
<path d="M314.358 752.089C358.351 759.153 400.498 758.029 438.711 750.002C476.522 742.053 510.48 727.441 538.819 707.45C566.756 687.782 589.154 662.974 604.488 634.313C619.58 606.133 627.93 574.261 628.01 539.821" stroke="#303240" stroke-width="0.922197" stroke-linecap="round" stroke-linejoin="round"/>
<path d="M296.214 582.13C316.926 620.104 339.084 651.736 361.562 676.382C384.521 701.591 407.883 719.654 430.521 729.931C453.723 740.448 476.201 742.776 496.51 735.951C517.384 728.887 536.009 712.188 550.62 684.811" stroke="#303240" stroke-width="0.922197" stroke-linecap="round" stroke-linejoin="round"/>
<path d="M296.214 582.13C334.587 608.783 373.443 629.175 411.174 643.386C449.387 657.755 486.636 665.784 521.158 667.309C556.319 668.915 588.671 663.777 616.209 651.575C644.385 639.131 667.587 619.301 683.402 591.684M729.161 447.735C745.297 418.754 751.077 388.567 747.544 358.782C743.933 328.194 730.445 298.088 708.127 270.07C685.328 241.409 653.376 215.156 613.559 193.159C573.097 170.84 524.849 153.097 470.421 141.938C472.267 100.432 471.142 69.1212 467.611 48.0068C464.158 27.4545 458.458 16.5359 451.073 15.0106C443.929 13.5655 435.098 20.8712 425.224 36.8476C415.59 52.342 404.832 75.9453 393.352 107.577C439.833 117.13 483.506 133.348 522.923 154.542C562.421 175.737 597.985 202.069 627.928 232.016C658.113 262.121 682.839 296.08 700.26 332.209C717.921 368.817 728.198 407.914 729.081 447.815L729.161 447.735Z" stroke="#303240" stroke-width="0.922197" stroke-linecap="round" stroke-linejoin="round"/>
<path d="M740.802 328.677C739.919 293.514 730.525 258.912 714.39 226.317C698.493 194.122 675.935 163.776 648.319 136.721C620.944 109.826 588.591 86.0622 552.545 66.7944C516.581 47.5264 476.842 32.7543 434.695 23.7627" stroke="#303240" stroke-width="0.922197" stroke-linecap="round" stroke-linejoin="round"/>
<path d="M650.889 216.683C650.889 195.809 645.429 175.015 635.875 155.266C626.323 135.677 612.595 117.131 595.735 100.432C578.877 83.8941 558.808 69.122 536.49 57.1599C514.172 45.1978 489.526 36.0455 463.354 30.5061" stroke="#303240" stroke-width="0.922197" stroke-linecap="round" stroke-linejoin="round"/>
<path d="M680.511 296.643C695.523 266.779 701.946 239.883 700.42 216.841C698.896 193.159 688.941 173.409 671.36 158.637C653.296 143.544 627.126 133.669 593.81 130.377C559.691 127.006 518.105 130.377 470.421 141.858" stroke="#303240" stroke-width="0.922197" stroke-linecap="round" stroke-linejoin="round"/>
<path d="M561.055 177.344C574.462 146.596 582.57 121.949 585.781 103.805C588.993 85.1795 586.985 73.2976 579.84 68.8019C572.456 64.1453 559.691 67.3567 541.707 78.9173C523.243 90.8796 499.32 111.753 470.501 142.02M393.352 107.577C404.832 75.9458 415.59 52.3425 425.223 36.8479C435.098 20.952 443.928 13.5659 451.073 15.011C458.457 16.5364 464.158 27.4548 467.611 48.0073C471.142 69.202 472.267 100.432 470.421 141.938C415.59 130.779 360.436 127.487 307.854 131.18C255.511 134.873 206.3 145.471 163.271 161.768C120.723 177.905 84.4364 199.501 56.9008 225.433C29.9267 250.803 11.5428 280.185 3.91626 312.379C10.3386 271.917 26.7958 236.03 50.7191 205.924C74.1608 176.38 104.908 152.214 140.632 134.311C175.714 116.729 215.774 105.169 258.644 100.512C301.031 95.8558 346.468 97.9432 393.272 107.497L393.352 107.577Z" stroke="#303240" stroke-width="0.922197" stroke-linecap="round" stroke-linejoin="round"/>
<path d="M434.695 23.8424C392.308 14.8507 351.125 12.6028 312.832 16.3761C274.138 20.1494 238.252 30.0243 206.863 45.3582C174.992 60.8529 147.777 81.9673 127.226 107.898C106.273 134.231 92.1437 165.702 87.0862 201.188" stroke="#303240" stroke-width="0.922197" stroke-linecap="round" stroke-linejoin="round"/>
<path d="M463.437 30.506C437.185 24.9666 411.896 23.6017 388.535 25.9299C365.013 28.2581 343.338 34.4398 324.633 43.7528C305.768 53.226 289.873 65.991 278.152 81.6463C266.351 97.4619 258.724 116.088 256.637 137.122" stroke="#303240" stroke-width="0.922197" stroke-linecap="round" stroke-linejoin="round"/>
<path d="M217.058 107.416C226.692 75.0623 240.419 50.9775 257.198 35.2421C274.458 19.1052 294.93 11.7192 317.408 13.4052C340.448 15.1714 365.656 26.4111 391.425 47.3648C417.837 68.8807 444.73 100.352 470.501 141.938" stroke="#303240" stroke-width="0.922197" stroke-linecap="round" stroke-linejoin="round"/>
<path d="M76.8101 178.067C84.9986 145.472 101.536 119.46 124.496 100.353C148.098 80.844 178.444 68.7213 213.687 64.4663C249.653 60.1311 290.514 64.0649 333.946 76.7497C378.018 89.5949 424.34 111.271 470.421 141.939" stroke="#303240" stroke-width="0.922197" stroke-linecap="round" stroke-linejoin="round"/>
<path d="M3.99695 312.379C11.6235 280.186 30.0074 250.803 56.9813 225.433C84.5171 199.501 120.804 177.906 163.352 161.769C206.462 145.471 255.593 134.874 307.935 131.181C360.438 127.488 415.67 130.78 470.501 141.939C468.654 184.328 463.837 232.899 456.693 284.201C449.549 335.983 440.155 389.773 429.237 442.116C418.4 494.221 406.116 544.237 393.352 588.553C380.748 632.226 367.663 669.879 354.898 698.54C300.71 689.629 249.572 671.486 203.813 646.357C158.133 621.308 118.154 589.596 85.9622 553.47C54.0913 517.743 30.168 478.003 15.9586 436.577C1.90968 395.873 -2.58597 353.724 3.99695 312.379Z" stroke="#303240" stroke-width="0.922197" stroke-linecap="round" stroke-linejoin="round"/>
<path d="M87.0861 201.108C81.9483 237.316 86.6847 274.327 99.8507 310.133C113.257 346.5 135.174 381.423 164.154 412.975C193.296 444.766 229.422 472.866 270.445 495.265C311.548 517.663 357.388 534.122 405.876 542.632M256.637 137.122C254.47 158.397 258.163 179.993 266.751 200.867C275.342 221.901 288.909 242.132 306.33 260.356C323.831 278.74 345.264 294.958 369.429 308.044C393.594 321.131 420.487 330.925 448.906 336.304" stroke="#303240" stroke-width="0.922197" stroke-linecap="round" stroke-linejoin="round"/>
<path d="M33.2188 477.201C41.4875 446.05 59.9519 412.814 86.5243 379.416C113.498 345.457 148.58 311.738 189.122 280.347C229.984 248.797 275.903 219.974 324.152 196.051C372.159 172.206 421.851 153.501 470.341 141.859M159.98 619.22C170.175 589.436 186.712 553.069 208.067 512.767C229.742 471.903 256.074 427.586 285.136 382.787C314.276 337.91 345.907 293.111 377.777 251.526C409.407 210.341 440.958 172.848 470.421 141.94M405.876 542.71C454.043 551.22 499.883 550.979 541.307 543.433C582.25 535.967 618.777 521.435 648.962 501.204C678.665 481.294 702.267 455.925 718.082 426.38C733.576 397.399 741.685 364.402 740.802 328.677M448.826 336.462C477.084 341.841 504.137 342.324 528.703 338.71C553.028 335.098 574.943 327.311 593.168 316.151C611.232 305.071 625.761 290.782 635.715 273.842C645.591 257.143 650.969 237.876 650.889 216.681" stroke="#303240" stroke-width="0.922197" stroke-linecap="round" stroke-linejoin="round"/>
<path d="M550.62 684.811C565.632 656.632 575.025 620.102 578.877 577.954C582.811 535.084 581.046 486.753 573.82 436.335C566.595 385.516 553.911 333.091 536.33 282.512C518.828 232.096 496.592 184.086 470.501 141.938" stroke="#303240" stroke-width="0.922197" stroke-linecap="round" stroke-linejoin="round"/>
<path d="M683.401 591.682C699.619 563.342 706.443 529.625 704.596 492.695C702.749 455.041 691.912 414.177 673.046 372.912C653.859 331.003 626.564 288.855 592.364 249.356C557.925 209.616 516.741 172.847 470.501 141.938" stroke="#303240" stroke-width="0.922197" stroke-linecap="round" stroke-linejoin="round"/>
</g>
<path d="M313.206 233.97C330.267 233.97 344.097 220.138 344.097 203.074C344.097 186.01 330.267 172.178 313.206 172.178C296.146 172.178 282.316 186.01 282.316 203.074C282.316 220.138 296.146 233.97 313.206 233.97Z" fill="#303240"/>
<path d="M582.306 452.027C596.087 452.027 607.26 440.853 607.26 427.068C607.26 413.284 596.087 402.11 582.306 402.11C568.524 402.11 557.352 413.284 557.352 427.068C557.352 440.853 568.524 452.027 582.306 452.027Z" fill="#303240"/>
<path d="M42.7903 472.616C54.5138 472.616 64.0175 463.11 64.0175 451.385C64.0175 439.659 54.5138 430.154 42.7903 430.154C31.0668 430.154 21.563 439.659 21.563 451.385C21.563 463.11 31.0668 472.616 42.7903 472.616Z" fill="#303240"/>
<path d="M676.971 320.422C690.753 320.422 701.925 309.248 701.925 295.464C701.925 281.679 690.753 270.505 676.971 270.505C663.189 270.505 652.017 281.679 652.017 295.464C652.017 309.248 663.189 320.422 676.971 320.422Z" fill="#303240"/>
<path d="M149.849 110.817C162.621 110.817 172.975 100.462 172.975 87.6876C172.975 74.9132 162.621 64.5576 149.849 64.5576C137.077 64.5576 126.723 74.9132 126.723 87.6876C126.723 100.462 137.077 110.817 149.849 110.817Z" fill="#303240"/>
<path d="M403.653 553.902C411.837 553.902 418.472 547.265 418.472 539.079C418.472 530.893 411.837 524.257 403.653 524.257C395.468 524.257 388.833 530.893 388.833 539.079C388.833 547.265 395.468 553.902 403.653 553.902Z" fill="#303240"/>
<path d="M232.912 254.767C235.46 254.767 237.526 252.701 237.526 250.152C237.526 247.603 235.46 245.537 232.912 245.537C230.363 245.537 228.297 247.603 228.297 250.152C228.297 252.701 230.363 254.767 232.912 254.767Z" fill="#303240"/>
<path d="M381.504 330.513C389.689 330.513 396.324 323.877 396.324 315.691C396.324 307.505 389.689 300.869 381.504 300.869C373.32 300.869 366.685 307.505 366.685 315.691C366.685 323.877 373.32 330.513 381.504 330.513Z" fill="#303240"/>
<path d="M292.903 258.46C299.019 258.46 303.978 253.5 303.978 247.383C303.978 241.265 299.019 236.306 292.903 236.306C286.786 236.306 281.827 241.265 281.827 247.383C281.827 253.5 286.786 258.46 292.903 258.46Z" fill="#303240"/>
<path d="M350.124 260.305C354.202 260.305 357.508 256.998 357.508 252.92C357.508 248.841 354.202 245.535 350.124 245.535C346.047 245.535 342.741 248.841 342.741 252.92C342.741 256.998 346.047 260.305 350.124 260.305Z" fill="#303240"/>
<path d="M369.506 190.152C377.151 190.152 383.35 183.953 383.35 176.306C383.35 168.658 377.151 162.459 369.506 162.459C361.86 162.459 355.662 168.658 355.662 176.306C355.662 183.953 361.86 190.152 369.506 190.152Z" fill="#303240"/>
<path d="M380.598 149.5C383.147 149.5 385.213 147.434 385.213 144.884C385.213 142.335 383.147 140.269 380.598 140.269C378.05 140.269 375.984 142.335 375.984 144.884C375.984 147.434 378.05 149.5 380.598 149.5Z" fill="#303240"/>
<path d="M256.909 153.228C264.555 153.228 270.753 147.029 270.753 139.382C270.753 131.735 264.555 125.535 256.909 125.535C249.263 125.535 243.065 131.735 243.065 139.382C243.065 147.029 249.263 153.228 256.909 153.228Z" fill="#303240"/>
<path d="M499.637 491.15C503.734 491.15 507.056 487.828 507.056 483.73C507.056 479.632 503.734 476.31 499.637 476.31C495.54 476.31 492.219 479.632 492.219 483.73C492.219 487.828 495.54 491.15 499.637 491.15Z" fill="#303240"/>
<path d="M421.189 487.386C430.874 487.386 438.725 479.533 438.725 469.847C438.725 460.16 430.874 452.308 421.189 452.308C411.505 452.308 403.654 460.16 403.654 469.847C403.654 479.533 411.505 487.386 421.189 487.386Z" fill="#303240"/>
<path d="M312.284 454.191C318.93 454.191 324.317 448.802 324.317 442.155C324.317 435.509 318.93 430.12 312.284 430.12C305.638 430.12 300.251 435.509 300.251 442.155C300.251 448.802 305.638 454.191 312.284 454.191Z" fill="#303240"/>
<path d="M258.754 444.924C270.477 444.924 279.981 435.419 279.981 423.693C279.981 411.967 270.477 402.462 258.754 402.462C247.03 402.462 237.526 411.967 237.526 423.693C237.526 435.419 247.03 444.924 258.754 444.924Z" fill="#303240"/>
<path d="M276.29 230.802C281.407 230.802 285.555 226.654 285.555 221.536C285.555 216.419 281.407 212.27 276.29 212.27C271.174 212.27 267.026 216.419 267.026 221.536C267.026 226.654 271.174 230.802 276.29 230.802Z" fill="#303240"/>
<path d="M145.014 621.541C152.68 621.541 158.893 615.326 158.893 607.66C158.893 599.993 152.68 593.778 145.014 593.778C137.349 593.778 131.135 599.993 131.135 607.66C131.135 615.326 137.349 621.541 145.014 621.541Z" fill="#303240"/>
<path d="M467.335 515.079C473.961 515.079 479.333 509.707 479.333 503.079C479.333 496.452 473.961 491.079 467.335 491.079C460.709 491.079 455.337 496.452 455.337 503.079C455.337 509.707 460.709 515.079 467.335 515.079Z" fill="#303240"/>
<path d="M686.99 603.765C700.792 603.765 711.98 592.575 711.98 578.772C711.98 564.968 700.792 553.778 686.99 553.778C673.189 553.778 662.001 564.968 662.001 578.772C662.001 592.575 673.189 603.765 686.99 603.765Z" fill="#303240"/>
<path d="M327.974 29.534C335.11 29.534 340.895 23.748 340.895 16.6107C340.895 9.47343 335.11 3.6875 327.974 3.6875C320.838 3.6875 315.053 9.47343 315.053 16.6107C315.053 23.748 320.838 29.534 327.974 29.534Z" fill="#303240"/>
</g>
</svg>
