<svg width="751" height="756" viewBox="0 0 751 756" fill="none" xmlns="http://www.w3.org/2000/svg">
<mask id="mask0_135_10049" style="mask-type:luminance" maskUnits="userSpaceOnUse" x="-2" y="8" width="753" height="748">
<path d="M-1.8634 8.15723H750.596V755.831H-1.8634V8.15723Z" fill="white"/>
</mask>
<g mask="url(#mask0_135_10049)">
<path d="M296.214 579.129C342.214 587.078 388.054 589.486 431.805 587.078C475.638 584.67 517.785 577.364 556.078 565.883C594.854 554.242 630.017 538.106 659.479 518.033C689.422 497.642 713.507 473.076 729.242 444.736C728.358 404.835 718.082 365.737 700.42 329.129C683.001 293.001 658.274 259.041 628.09 228.936C598.145 199.07 562.582 172.657 523.085 151.463C483.666 130.268 439.915 114.051 393.512 104.497C382.274 135.406 371.356 171.373 361.16 209.909C351.045 247.963 341.491 288.988 332.983 330.734C324.473 372.32 316.926 415.112 310.665 456.859C304.402 498.926 299.425 540.434 296.294 579.129H296.214Z" stroke="#8BD94D" stroke-width="0.922197" stroke-linecap="round" stroke-linejoin="round"/>
<path d="M628.01 536.822C628.09 502.941 620.303 469.704 606.092 438.634C592.124 407.886 571.893 378.985 546.927 353.375C522.121 327.925 492.579 305.687 459.583 287.864C426.588 270.041 390.061 256.633 351.045 249.007" stroke="#8BD94D" stroke-width="0.922197" stroke-linecap="round" stroke-linejoin="round"/>
<path d="M296.214 579.129C337.397 566.364 378.26 549.184 417.114 529.113C455.81 509.122 492.979 485.921 526.776 460.952C560.735 435.825 591.724 408.609 617.813 380.669C644.225 352.331 665.82 322.867 680.512 293.724" stroke="#8BD94D" stroke-width="0.922197" stroke-linecap="round" stroke-linejoin="round"/>
<path d="M296.214 579.13C321.983 549.666 348.235 516.911 373.764 482.792C399.052 448.912 423.938 413.346 447.139 377.861C470.421 342.297 492.337 306.49 511.524 272.289C531.032 237.686 547.971 204.29 561.056 174.264M351.045 249.007C311.869 241.38 273.736 240.257 238.253 244.912C202.367 249.57 168.971 260.167 139.83 275.74C110.207 291.556 84.8385 312.671 65.4913 338.282C45.8227 364.293 32.416 394.88 27.3585 429.242" stroke="#8BD94D" stroke-width="0.922197" stroke-linecap="round" stroke-linejoin="round"/>
<path d="M296.214 579.129C275.743 541.638 258.482 501.014 244.514 459.588C230.626 418.243 219.948 375.613 212.884 333.945C205.74 291.957 202.207 250.532 202.689 211.917C203.17 172.738 207.827 136.048 217.218 104.497" stroke="#8BD94D" stroke-width="0.922197" stroke-linecap="round" stroke-linejoin="round"/>
<path d="M296.214 579.129C258.001 552.555 223.642 522.128 193.939 489.613C164.074 456.938 138.786 421.854 119.038 386.369C99.048 350.402 84.6779 313.632 77.1316 278.148C69.4249 241.939 68.8629 206.856 76.8909 175.064" stroke="#8BD94D" stroke-width="0.922197" stroke-linecap="round" stroke-linejoin="round"/>
<path d="M296.214 579.131C249.893 571.182 207.344 558.337 169.854 541.72C131.802 524.94 98.7265 504.147 72.1541 480.624C45.0196 456.619 24.4682 429.723 12.4262 401.143C0.0631657 371.841 -3.38884 340.77 4.07713 309.379C-2.50577 350.727 1.98987 392.875 15.9585 433.578C30.168 475.003 54.0912 514.744 85.9622 550.47C118.074 586.517 158.053 618.308 203.813 643.357C249.571 668.406 300.71 686.55 354.899 695.54C342.455 723.48 331.617 739.937 322.546 746.199C313.795 752.301 306.811 748.689 301.754 736.565C296.857 724.764 293.887 705.014 292.923 678.04C291.96 651.787 293.003 618.549 296.214 579.131Z" stroke="#8BD94D" stroke-width="0.922197" stroke-linecap="round" stroke-linejoin="round"/>
<path d="M27.358 429.323C22.1397 464.246 25.9932 499.649 37.6338 533.691C49.3545 568.131 69.023 601.129 95.1138 630.592C121.365 660.297 153.959 686.307 191.129 706.781C228.378 727.252 270.123 741.944 314.356 749.09" stroke="#8BD94D" stroke-width="0.922197" stroke-linecap="round" stroke-linejoin="round"/>
<path d="M296.214 579.131C254.468 592.058 215.934 599.444 181.977 601.531C147.215 603.699 116.95 600.407 92.7057 591.897C67.8191 583.225 49.1141 569.016 38.5172 549.669C27.5991 529.758 25.1909 504.469 33.2186 474.122" stroke="#8BD94D" stroke-width="0.922197" stroke-linecap="round" stroke-linejoin="round"/>
<path d="M296.214 579.131C269.962 609.156 246.44 633.161 226.289 650.904C205.578 669.047 188.399 680.688 175.554 685.264C162.308 690.001 153.637 687.191 150.587 676.273C147.456 665.033 150.185 645.203 160.14 616.141" stroke="#8BD94D" stroke-width="0.922197" stroke-linecap="round" stroke-linejoin="round"/>
<path d="M296.214 579.131C293.003 618.549 292.04 651.785 292.923 678.038C293.887 705.014 296.857 724.844 301.754 736.565C306.811 748.687 313.795 752.22 322.546 746.199C331.537 739.936 342.455 723.478 354.899 695.54C408.686 704.371 459.984 703.327 506.385 693.853C552.145 684.54 592.927 667.12 626.644 643.355C659.8 619.993 686.052 590.529 703.713 556.49C721.052 523.093 730.045 485.44 729.162 444.816C713.427 473.076 689.342 497.722 659.399 518.115C630.017 538.186 594.774 554.242 555.998 565.963C517.625 577.524 475.558 584.75 431.725 587.158C387.974 589.566 342.214 587.158 296.134 579.211L296.214 579.131Z" stroke="#8BD94D" stroke-width="0.922197" stroke-linecap="round" stroke-linejoin="round"/>
<path d="M314.358 749.09C358.352 756.153 400.498 755.029 438.711 747.002C476.522 739.053 510.481 724.441 538.82 704.451C566.756 684.783 589.154 659.974 604.488 631.314C619.58 603.134 627.93 571.262 628.01 536.822" stroke="#8BD94D" stroke-width="0.922197" stroke-linecap="round" stroke-linejoin="round"/>
<path d="M296.214 579.131C316.926 617.105 339.084 648.736 361.562 673.382C384.521 698.591 407.883 716.655 430.521 726.932C453.723 737.449 476.201 739.777 496.511 732.952C517.385 725.888 536.009 709.189 550.62 681.812" stroke="#8BD94D" stroke-width="0.922197" stroke-linecap="round" stroke-linejoin="round"/>
<path d="M296.214 579.13C334.587 605.784 373.443 626.175 411.174 640.386C449.387 654.756 486.636 662.785 521.158 664.309C556.319 665.916 588.671 660.778 616.209 648.576C644.386 636.131 667.587 616.301 683.402 588.684M729.162 444.736C745.297 415.754 751.077 385.567 747.544 355.783C743.933 325.195 730.445 295.088 708.127 267.07C685.328 238.41 653.377 212.157 613.559 190.159C573.097 167.84 524.849 150.098 470.421 138.938C472.268 97.4321 471.142 66.1217 467.611 45.0073C464.158 24.455 458.458 13.5364 451.073 12.0111C443.929 10.566 435.098 17.8717 425.224 33.8481C415.59 49.3425 404.832 72.9458 393.352 104.577C439.833 114.131 483.506 130.348 522.923 151.543C562.421 172.737 597.985 199.07 627.928 229.016C658.113 259.121 682.839 293.081 700.26 329.209C717.922 365.817 728.198 404.915 729.081 444.816L729.162 444.736Z" stroke="#8BD94D" stroke-width="0.922197" stroke-linecap="round" stroke-linejoin="round"/>
<path d="M740.802 325.678C739.919 290.514 730.526 255.912 714.39 223.317C698.494 191.123 675.935 160.777 648.319 133.721C620.944 106.826 588.591 83.0626 552.545 63.7949C516.581 44.5269 476.842 29.7548 434.696 20.7632" stroke="#8BD94D" stroke-width="0.922197" stroke-linecap="round" stroke-linejoin="round"/>
<path d="M650.889 213.684C650.889 192.81 645.429 172.016 635.875 152.266C626.324 132.677 612.596 114.132 595.736 97.4331C578.877 80.8948 558.808 66.1227 536.49 54.1607C514.172 42.1986 489.527 33.0463 463.355 27.5068" stroke="#8BD94D" stroke-width="0.922197" stroke-linecap="round" stroke-linejoin="round"/>
<path d="M680.512 293.643C695.523 263.779 701.946 236.883 700.42 213.842C698.896 190.159 688.942 170.409 671.36 155.637C653.296 140.544 627.127 130.669 593.811 127.378C559.691 124.006 518.106 127.378 470.421 138.858" stroke="#8BD94D" stroke-width="0.922197" stroke-linecap="round" stroke-linejoin="round"/>
<path d="M561.056 174.345C574.463 143.596 582.571 118.95 585.781 100.806C588.994 82.18 586.985 70.2981 579.841 65.8023C572.456 61.1458 559.692 64.3572 541.708 75.9178C523.243 87.8801 499.321 108.754 470.501 139.02M393.352 104.578C404.833 72.9463 415.59 49.343 425.224 33.8484C435.098 17.9525 443.929 10.5664 451.073 12.0115C458.458 13.5369 464.158 24.4553 467.611 45.0078C471.142 66.2025 472.268 97.4326 470.421 138.939C415.59 127.779 360.437 124.488 307.855 128.181C255.512 131.874 206.301 142.471 163.271 158.769C120.723 174.906 84.4368 196.502 56.9011 222.434C29.9271 247.803 11.5432 277.185 3.91663 309.379C10.339 268.917 26.7962 233.031 50.7194 202.924C74.1612 173.38 104.908 149.215 140.633 131.312C175.715 113.73 215.774 102.169 258.644 97.5127C301.031 92.8563 346.468 94.9437 393.272 104.497L393.352 104.578Z" stroke="#8BD94D" stroke-width="0.922197" stroke-linecap="round" stroke-linejoin="round"/>
<path d="M434.696 20.8426C392.308 11.851 351.125 9.60304 312.832 13.3763C274.138 17.1496 238.253 27.0245 206.863 42.3585C174.992 57.8531 147.778 78.9675 127.226 104.899C106.273 131.232 92.144 162.702 87.0865 198.188" stroke="#8BD94D" stroke-width="0.922197" stroke-linecap="round" stroke-linejoin="round"/>
<path d="M463.437 27.5065C437.185 21.9671 411.897 20.6022 388.535 22.9304C365.013 25.2586 343.338 31.4403 324.633 40.7533C305.768 50.2265 289.873 62.9915 278.152 78.6468C266.351 94.4623 258.724 113.088 256.637 134.122" stroke="#8BD94D" stroke-width="0.922197" stroke-linecap="round" stroke-linejoin="round"/>
<path d="M217.058 104.417C226.692 72.0628 240.42 47.978 257.198 32.2426C274.459 16.1057 294.93 8.71971 317.409 10.4057C340.448 12.1719 365.656 23.4116 391.425 44.3653C417.837 65.8811 444.73 97.352 470.501 138.939" stroke="#8BD94D" stroke-width="0.922197" stroke-linecap="round" stroke-linejoin="round"/>
<path d="M76.8103 175.067C84.9989 142.473 101.536 116.461 124.496 97.3535C148.098 77.8447 178.444 65.722 213.687 61.4671C249.653 57.1318 290.514 61.0656 333.946 73.7505C378.018 86.5956 424.341 108.272 470.421 138.94" stroke="#8BD94D" stroke-width="0.922197" stroke-linecap="round" stroke-linejoin="round"/>
<path d="M3.99719 309.379C11.6237 277.187 30.0077 247.803 56.9815 222.434C84.5174 196.502 120.804 174.906 163.352 158.769C206.463 142.472 255.593 131.874 307.935 128.181C360.438 124.488 415.67 127.78 470.501 138.939C468.654 181.329 463.837 229.9 456.693 281.201C449.549 332.984 440.155 386.773 429.238 439.117C418.4 491.221 406.116 541.237 393.352 585.553C380.748 629.226 367.663 666.88 354.898 695.54C300.71 686.63 249.573 668.486 203.813 643.357C158.134 618.309 118.155 586.597 85.9625 550.47C54.0916 514.744 30.1683 475.003 15.9588 433.578C1.90992 392.873 -2.58573 350.725 3.99719 309.379Z" stroke="#8BD94D" stroke-width="0.922197" stroke-linecap="round" stroke-linejoin="round"/>
<path d="M87.0864 198.108C81.9486 234.317 86.685 271.327 99.8509 307.133C113.257 343.501 135.174 378.424 164.155 409.975C193.296 441.767 229.422 469.866 270.445 492.265C311.548 514.663 357.388 531.122 405.876 539.632M256.637 134.122C254.47 155.397 258.163 176.993 266.752 197.867C275.342 218.902 288.909 239.133 306.331 257.356C323.832 275.74 345.265 291.959 369.429 305.044C393.594 318.131 420.487 327.925 448.906 333.304" stroke="#8BD94D" stroke-width="0.922197" stroke-linecap="round" stroke-linejoin="round"/>
<path d="M33.219 474.202C41.4877 443.051 59.9521 409.815 86.5246 376.416C113.498 342.457 148.581 308.738 189.122 277.347C229.985 245.798 275.903 216.975 324.152 193.052C372.159 169.207 421.851 150.501 470.341 138.86M159.98 616.221C170.175 586.436 186.712 550.069 208.067 509.768C229.742 468.903 256.074 424.587 285.136 379.788C314.276 334.911 345.908 290.112 377.778 248.526C409.407 207.341 440.959 169.849 470.421 138.94M405.876 539.71C454.043 548.22 499.883 547.98 541.307 540.434C582.25 532.967 618.777 518.436 648.962 498.205C678.665 478.294 702.267 452.925 718.082 423.381C733.576 394.4 741.686 361.402 740.802 325.678M448.826 333.463C477.085 338.841 504.138 339.324 528.703 335.71C553.028 332.098 574.944 324.312 593.168 313.152C611.232 302.072 625.761 287.782 635.715 270.843C645.591 254.143 650.969 234.876 650.889 213.681" stroke="#8BD94D" stroke-width="0.922197" stroke-linecap="round" stroke-linejoin="round"/>
<path d="M550.62 681.812C565.632 653.632 575.025 617.102 578.877 574.954C582.811 532.084 581.046 483.753 573.82 433.335C566.595 382.516 553.911 330.091 536.33 279.513C518.829 229.096 496.593 181.087 470.501 138.938" stroke="#8BD94D" stroke-width="0.922197" stroke-linecap="round" stroke-linejoin="round"/>
<path d="M683.402 588.682C699.619 560.342 706.443 526.625 704.596 489.695C702.75 452.041 691.912 411.177 673.047 369.912C653.859 328.004 626.564 285.855 592.365 246.357C557.925 206.616 516.742 169.847 470.501 138.938" stroke="#8BD94D" stroke-width="0.922197" stroke-linecap="round" stroke-linejoin="round"/>
</g>
<path d="M313.207 230.97C330.267 230.97 344.097 217.138 344.097 200.074C344.097 183.01 330.267 169.178 313.207 169.178C296.146 169.178 282.316 183.01 282.316 200.074C282.316 217.138 296.146 230.97 313.207 230.97Z" fill="#8BD94D"/>
<path d="M582.306 449.027C596.088 449.027 607.26 437.853 607.26 424.068C607.26 410.284 596.088 399.11 582.306 399.11C568.524 399.11 557.352 410.284 557.352 424.068C557.352 437.853 568.524 449.027 582.306 449.027Z" fill="#8BD94D"/>
<path d="M42.7904 469.616C54.5139 469.616 64.0177 460.11 64.0177 448.385C64.0177 436.659 54.5139 427.154 42.7904 427.154C31.0669 427.154 21.5631 436.659 21.5631 448.385C21.5631 460.11 31.0669 469.616 42.7904 469.616Z" fill="#8BD94D"/>
<path d="M676.971 317.422C690.753 317.422 701.925 306.248 701.925 292.463C701.925 278.679 690.753 267.505 676.971 267.505C663.189 267.505 652.017 278.679 652.017 292.463C652.017 306.248 663.189 317.422 676.971 317.422Z" fill="#8BD94D"/>
<path d="M149.849 107.817C162.621 107.817 172.975 97.4619 172.975 84.6876C172.975 71.9132 162.621 61.5576 149.849 61.5576C137.077 61.5576 126.724 71.9132 126.724 84.6876C126.724 97.4619 137.077 107.817 149.849 107.817Z" fill="#8BD94D"/>
<path d="M403.653 550.902C411.838 550.902 418.472 544.265 418.472 536.079C418.472 527.893 411.838 521.257 403.653 521.257C395.468 521.257 388.833 527.893 388.833 536.079C388.833 544.265 395.468 550.902 403.653 550.902Z" fill="#8BD94D"/>
<path d="M232.912 251.767C235.461 251.767 237.527 249.701 237.527 247.152C237.527 244.603 235.461 242.537 232.912 242.537C230.363 242.537 228.297 244.603 228.297 247.152C228.297 249.701 230.363 251.767 232.912 251.767Z" fill="#8BD94D"/>
<path d="M381.504 327.513C389.689 327.513 396.324 320.877 396.324 312.691C396.324 304.505 389.689 297.869 381.504 297.869C373.32 297.869 366.685 304.505 366.685 312.691C366.685 320.877 373.32 327.513 381.504 327.513Z" fill="#8BD94D"/>
<path d="M292.903 255.46C299.019 255.46 303.978 250.5 303.978 244.383C303.978 238.265 299.019 233.306 292.903 233.306C286.786 233.306 281.828 238.265 281.828 244.383C281.828 250.5 286.786 255.46 292.903 255.46Z" fill="#8BD94D"/>
<path d="M350.124 257.305C354.202 257.305 357.508 253.998 357.508 249.92C357.508 245.841 354.202 242.535 350.124 242.535C346.047 242.535 342.741 245.841 342.741 249.92C342.741 253.998 346.047 257.305 350.124 257.305Z" fill="#8BD94D"/>
<path d="M369.506 187.152C377.152 187.152 383.35 180.952 383.35 173.305C383.35 165.658 377.152 159.459 369.506 159.459C361.86 159.459 355.662 165.658 355.662 173.305C355.662 180.952 361.86 187.152 369.506 187.152Z" fill="#8BD94D"/>
<path d="M380.599 146.5C383.147 146.5 385.213 144.434 385.213 141.884C385.213 139.335 383.147 137.269 380.599 137.269C378.05 137.269 375.984 139.335 375.984 141.884C375.984 144.434 378.05 146.5 380.599 146.5Z" fill="#8BD94D"/>
<path d="M256.909 150.228C264.555 150.228 270.753 144.029 270.753 136.381C270.753 128.734 264.555 122.535 256.909 122.535C249.263 122.535 243.065 128.734 243.065 136.381C243.065 144.029 249.263 150.228 256.909 150.228Z" fill="#8BD94D"/>
<path d="M499.637 488.15C503.735 488.15 507.056 484.828 507.056 480.73C507.056 476.632 503.735 473.31 499.637 473.31C495.54 473.31 492.219 476.632 492.219 480.73C492.219 484.828 495.54 488.15 499.637 488.15Z" fill="#8BD94D"/>
<path d="M421.19 484.386C430.874 484.386 438.725 476.533 438.725 466.847C438.725 457.16 430.874 449.308 421.19 449.308C411.505 449.308 403.654 457.16 403.654 466.847C403.654 476.533 411.505 484.386 421.19 484.386Z" fill="#8BD94D"/>
<path d="M312.284 451.191C318.93 451.191 324.317 445.802 324.317 439.155C324.317 432.509 318.93 427.12 312.284 427.12C305.638 427.12 300.251 432.509 300.251 439.155C300.251 445.802 305.638 451.191 312.284 451.191Z" fill="#8BD94D"/>
<path d="M258.754 441.924C270.477 441.924 279.981 432.419 279.981 420.693C279.981 408.967 270.477 399.462 258.754 399.462C247.03 399.462 237.526 408.967 237.526 420.693C237.526 432.419 247.03 441.924 258.754 441.924Z" fill="#8BD94D"/>
<path d="M276.29 227.802C281.407 227.802 285.555 223.654 285.555 218.536C285.555 213.419 281.407 209.27 276.29 209.27C271.174 209.27 267.026 213.419 267.026 218.536C267.026 223.654 271.174 227.802 276.29 227.802Z" fill="#8BD94D"/>
<path d="M145.014 618.541C152.68 618.541 158.893 612.326 158.893 604.66C158.893 596.993 152.68 590.778 145.014 590.778C137.349 590.778 131.135 596.993 131.135 604.66C131.135 612.326 137.349 618.541 145.014 618.541Z" fill="#8BD94D"/>
<path d="M467.335 512.079C473.961 512.079 479.333 506.707 479.333 500.079C479.333 493.452 473.961 488.079 467.335 488.079C460.709 488.079 455.337 493.452 455.337 500.079C455.337 506.707 460.709 512.079 467.335 512.079Z" fill="#8BD94D"/>
<path d="M686.991 600.766C700.792 600.766 711.98 589.576 711.98 575.772C711.98 561.968 700.792 550.778 686.991 550.778C673.19 550.778 662.001 561.968 662.001 575.772C662.001 589.576 673.19 600.766 686.991 600.766Z" fill="#8BD94D"/>
<path d="M327.974 26.534C335.11 26.534 340.895 20.748 340.895 13.6107C340.895 6.47343 335.11 0.6875 327.974 0.6875C320.838 0.6875 315.053 6.47343 315.053 13.6107C315.053 20.748 320.838 26.534 327.974 26.534Z" fill="#8BD94D"/>
</svg>
