<svg width="792" height="1036" viewBox="0 0 792 1036" fill="none" xmlns="http://www.w3.org/2000/svg">
<path d="M318.041 363.306C302.396 349.095 294.358 331.812 301.245 305.843C324.612 218.211 397.499 144.242 385.329 48.8455C379.028 -0.131845 347.466 -42.6795 301.808 -74.8935C85.8186 -226.793 -122.688 -157.217 -186.195 -110.725C-251.283 -63.0986 -219.198 26.9297 -186.954 85.0837C-147.256 156.751 -96.4827 228.012 -92.3689 307.557C-88.0375 391.546 -60.9623 582.533 -20.6153 665.025C7.85124 723.225 80.0461 803.862 154.535 812.376C229.024 820.89 303.893 760.049 361.295 722.533C418.697 685.018 650.899 852.507 678.824 796.095C716.373 720.237 639.375 628.3 583.981 569.531C527.809 509.956 462.35 456.725 390.965 409.626C364.506 392.268 336.178 379.832 318.041 363.306Z" stroke="url(#paint0_linear_135_10130)" stroke-opacity="0.2" stroke-width="5"/>
<path d="M-195.395 -124.199C-264.754 -73.4776 -230.452 22.5377 -196.176 84.5073C-153.969 160.881 -99.6698 236.845 -95.4327 321.66C-90.8618 411.171 -76.0858 595.496 -33.0237 683.435C-2.68296 745.552 74.1328 823.851 153.635 832.938C224.686 841.059 295.842 787.318 352.082 753.612C410.034 718.906 620.596 862.422 651.936 809.147C695.197 735.375 636.601 644.945 593.05 582.87C549.382 520.544 493.446 463.982 429.136 413.391C405.301 394.661 379.35 380.467 361.921 362.827C346.943 347.856 338.503 330.288 342.403 305.053C348.345 267.031 360.402 231.38 370.685 196.004C379.503 165.836 386.861 135.74 387.151 104C387.314 88.6096 385.212 72.7216 380.899 55.8642C369.009 10.0705 335.696 -31.1244 288.427 -64.4782C218.171 -113.838 148.808 -144.341 83.8711 -160.245C-37.8024 -190.158 -146.298 -160.155 -195.395 -124.199Z" stroke="url(#paint1_linear_135_10130)" stroke-opacity="0.2" stroke-width="5"/>
<path d="M-204.737 -137.689C-278.368 -83.8728 -241.991 18.1132 -205.541 83.9146C-160.681 165.011 -103.143 245.646 -98.4959 335.763C-93.6854 430.796 -91.2222 608.578 -45.5882 701.946C-13.3598 767.863 68.2066 843.957 152.436 853.585C220.192 861.329 287.648 814.571 342.571 784.775C401.214 752.897 590.267 872.572 624.605 822.268C673.72 750.599 633.228 661.76 601.662 596.397C570.199 531.404 524.229 471.443 466.994 417.36C445.912 397.392 422.34 381.439 405.488 362.551C391.191 346.702 382.218 328.715 383.119 304.331C384.512 266.745 389.115 231.556 391.618 196.963C393.801 167.709 394.613 139.015 389.661 108.706C387.24 94.3347 382.581 79.2295 376.012 63.0697C358.95 20.6267 323.327 -19.399 274.733 -53.8598C206.532 -102.148 139.086 -136.733 74.2365 -158.479C-38.3909 -196.437 -148.833 -178.601 -204.737 -137.689Z" stroke="url(#paint2_linear_135_10130)" stroke-opacity="0.2" stroke-width="5"/>
<path d="M-214.078 -151.179C-291.995 -94.15 -253.53 13.6887 -215.062 83.4237C-167.549 169.243 -106.642 254.682 -101.859 349.951C-96.6653 450.523 -106.645 621.627 -58.4387 720.426C-24.3227 790.141 61.8511 864.015 151.094 874.215C215.412 881.567 279.44 841.942 333.059 815.939C392.382 787.005 559.951 882.605 597.418 835.405C652.531 765.855 629.985 678.709 610.432 609.822C591.316 542.179 555.17 478.802 505.022 421.11C486.551 399.887 465.5 382.191 449.212 362.173C435.597 345.447 426.077 327.159 424.121 303.643C420.967 266.492 418.115 231.765 412.851 197.837C408.385 169.615 402.809 142.221 392.471 113.328C387.623 99.8732 380.381 85.7866 371.582 70.0887C349.491 31.0127 311.558 -7.84367 261.496 -43.4278C195.179 -90.4258 129.767 -128.839 64.9158 -156.916C-39.1002 -201.654 -151.368 -197.047 -214.078 -151.179Z" stroke="url(#paint3_linear_135_10130)" stroke-opacity="0.2" stroke-width="5"/>
<path d="M-223.42 -164.67C-305.609 -104.545 -265.069 9.26398 -224.427 82.8309C-174.418 173.475 -110.115 263.483 -104.922 364.054C-99.4889 470.148 -121.781 634.708 -70.8464 738.836C-34.8562 812.468 56.0817 884.02 150.182 894.895C211.062 901.854 271.792 869.497 323.847 847.018C383.979 821.162 530.052 892.805 570.544 848.34C631.941 780.941 626.899 695.557 619.501 623.162C612.419 553.072 586.253 486.177 543.18 424.993C527.462 402.532 508.789 383.078 493.066 361.93C480.118 344.444 470.066 325.736 465.124 302.954C457.148 266.088 447.245 232.108 434.07 198.829C423.256 171.554 411.005 145.427 395.11 118.168C387.836 105.631 378.024 92.4451 366.825 77.4284C340.006 41.6342 299.319 4.01597 247.932 -32.6752C183.513 -78.5006 120.067 -120.153 55.2544 -154.915C-40.034 -206.18 -153.747 -215.594 -223.42 -164.67Z" stroke="url(#paint4_linear_135_10130)" stroke-opacity="0.2" stroke-width="5"/>
<path d="M-232.762 -178.16C-319.223 -114.941 -276.608 4.83947 -233.792 82.2384C-181.131 177.605 -113.445 272.3 -108.115 378.023C-102.442 489.639 -137.177 647.521 -83.5406 757.213C-45.6628 834.645 49.8825 903.976 148.996 915.424C206.439 921.99 263.871 896.901 314.349 878.064C375.433 855.303 500.023 902.87 543.226 861.343C611.038 796.23 623.082 712.44 628.126 636.57C632.936 564.018 616.893 493.621 580.922 428.71C567.801 405.112 551.662 383.798 536.66 361.418C524.379 343.173 513.652 324.029 505.996 302.131C493.185 265.669 476.415 232.098 455.159 199.687C437.984 173.476 419.344 148.65 397.776 122.773C388.219 111.169 375.993 98.7827 362.251 84.431C331.003 51.8335 287.392 15.6728 234.408 -22.276C171.886 -66.929 109.924 -111.399 45.5036 -153.402C-41.4784 -210.048 -156.283 -234.04 -232.762 -178.16Z" stroke="url(#paint5_linear_135_10130)" stroke-opacity="0.2" stroke-width="5"/>
<path d="M-241.974 -191.517C-332.707 -125.202 -288.004 0.43101 -243.157 81.6455C-187.843 181.735 -116.918 281.1 -111.178 392.126C-105.123 509.28 -152.3 660.484 -96.0918 775.607C-56.3263 856.838 43.9561 924.082 147.811 935.953C201.958 942.142 255.936 924.422 304.85 909.109C366.873 889.562 470.123 913.069 516.052 874.362C590.407 811.67 619.422 729.222 636.908 649.877C653.48 574.727 647.703 500.845 618.949 432.459C608.439 407.607 594.678 384.533 580.384 361.041C568.784 341.917 557.367 322.456 546.998 301.442C529.209 265.366 505.845 232.356 476.392 200.561C452.868 175.296 427.709 151.637 400.586 127.394C388.601 116.707 373.963 105.12 357.664 91.5511C322.158 61.9308 275.323 27.3128 221.027 -11.8609C160.403 -55.3414 99.454 -102.323 36.0255 -151.738C-43.5365 -213.628 -158.818 -252.486 -241.974 -191.517Z" stroke="url(#paint6_linear_135_10130)" stroke-opacity="0.2" stroke-width="5"/>
<path d="M-251.316 -205.007C-346.335 -135.479 -299.413 -3.85898 -252.392 81.1874C-194.425 185.999 -120.118 290.051 -114.254 406.347C-107.96 529.023 -167.45 673.684 -108.526 794.253C-67.0298 879.385 38.0168 944.307 146.885 956.751C197.595 962.547 248.378 952.465 295.755 940.441C358.833 924.358 440.614 923.672 489.281 887.667C570.153 827.631 616.023 746.274 645.937 663.571C674.127 585.807 678.603 508.558 657.08 436.579C649.18 410.472 637.797 385.64 624.211 361.034C613.135 341.134 601.042 321.237 587.974 300.99C565.179 265.536 535.131 232.598 497.584 201.789C467.869 177.37 436.178 154.994 403.342 132.487C389.074 122.734 372.035 111.828 353.037 99.0255C313.286 72.2646 263.214 39.3071 207.593 -0.973569C148.894 -43.5174 88.3438 -92.7229 26.5211 -149.838C-46.0507 -217.021 -161.353 -270.932 -251.316 -205.007Z" stroke="url(#paint7_linear_135_10130)" stroke-opacity="0.2" stroke-width="5"/>
<path d="M406.164 136.991C322.11 91.5486 166.222 14.3649 17.0294 -148.056C-49.2954 -220.378 -163.746 -289.362 -260.658 -218.497C-359.949 -145.874 -310.953 -8.28375 -261.901 80.5782C-201.424 190.097 -123.734 298.835 -117.461 420.434C-110.784 548.648 -182.716 686.631 -121.221 812.63C-77.8367 901.561 31.9605 964.279 145.699 977.28C259.438 990.28 374.313 957.781 461.976 900.552C549.652 843.204 611.96 762.771 654.59 676.743C741.019 502.075 709.451 327.536 518.7 202.411C482.793 178.836 444.57 157.745 406.164 136.991Z" stroke="url(#paint8_linear_135_10130)" stroke-opacity="0.2" stroke-width="5"/>
<defs>
<linearGradient id="paint0_linear_135_10130" x1="289.499" y1="-140.082" x2="180.296" y2="815.321" gradientUnits="userSpaceOnUse">
<stop stop-color="#ACCE89"/>
<stop offset="1" stop-color="#78CD24"/>
</linearGradient>
<linearGradient id="paint1_linear_135_10130" x1="272.592" y1="-142.134" x2="161.044" y2="833.785" gradientUnits="userSpaceOnUse">
<stop stop-color="#ACCE89"/>
<stop offset="1" stop-color="#78CD24"/>
</linearGradient>
<linearGradient id="paint2_linear_135_10130" x1="256.628" y1="-146.636" x2="142.433" y2="852.441" gradientUnits="userSpaceOnUse">
<stop stop-color="#ACCE89"/>
<stop offset="1" stop-color="#78CD24"/>
</linearGradient>
<linearGradient id="paint3_linear_135_10130" x1="242.5" y1="-153.263" x2="125.395" y2="871.278" gradientUnits="userSpaceOnUse">
<stop stop-color="#ACCE89"/>
<stop offset="1" stop-color="#78CD24"/>
</linearGradient>
<linearGradient id="paint4_linear_135_10130" x1="231.234" y1="-161.601" x2="110.988" y2="890.415" gradientUnits="userSpaceOnUse">
<stop stop-color="#ACCE89"/>
<stop offset="1" stop-color="#78CD24"/>
</linearGradient>
<linearGradient id="paint5_linear_135_10130" x1="224.275" y1="-171.204" x2="100.703" y2="909.904" gradientUnits="userSpaceOnUse">
<stop stop-color="#ACCE89"/>
<stop offset="1" stop-color="#78CD24"/>
</linearGradient>
<linearGradient id="paint6_linear_135_10130" x1="224.764" y1="-181.235" x2="97.7238" y2="930.228" gradientUnits="userSpaceOnUse">
<stop stop-color="#ACCE89"/>
<stop offset="1" stop-color="#78CD24"/>
</linearGradient>
<linearGradient id="paint7_linear_135_10130" x1="229.632" y1="-191.698" x2="98.9896" y2="951.276" gradientUnits="userSpaceOnUse">
<stop stop-color="#ACCE89"/>
<stop offset="1" stop-color="#78CD24"/>
</linearGradient>
<linearGradient id="paint8_linear_135_10130" x1="237.342" y1="-202.501" x2="103.05" y2="972.405" gradientUnits="userSpaceOnUse">
<stop stop-color="#ACCE89"/>
<stop offset="1" stop-color="#78CD24"/>
</linearGradient>
</defs>
</svg>
