<svg width="99" height="101" viewBox="0 0 99 101" fill="none" xmlns="http://www.w3.org/2000/svg">
<path d="M6.35069 60.957C4.70001 62.8947 6.1249 67.0948 9.70001 71.8948C10.0945 72.4392 10.5062 72.9881 10.9562 73.528C11.2547 73.8693 11.5356 74.2067 11.8129 74.5612C13.7504 76.8251 16.089 79.1476 18.7373 81.3812C21.6492 83.8759 24.6071 85.9479 27.3801 87.5796C27.8569 87.8548 28.3201 88.1088 28.7707 88.3416C28.9121 88.4295 29.0712 88.5214 29.2167 88.5921C34.6814 91.4383 39.2 92.2554 40.8971 90.2743C42.6352 88.1947 40.9416 83.6057 36.9104 78.4456C36.7063 78.1623 36.4775 77.9098 36.2825 77.6649C36.2391 77.6185 36.1962 77.5725 36.1527 77.526C36.379 77.1821 36.6048 76.8387 36.8306 76.4948C42.7625 67.6104 46.5891 65.1768 46.627 65.1677L57.3242 60.101C60.6242 58.5173 63.0148 55.4368 63.7503 51.8746L65.6014 42.7637C65.8264 41.6616 66.2735 40.6122 66.9649 39.6748C67.4549 38.9785 68.0906 38.3528 68.8297 37.8238C69.7462 37.1562 70.1362 35.967 69.7736 34.9063C69.3047 33.5317 68.3365 32.436 67.0678 31.8468L68.8273 30.4402C70.8023 28.8861 72.4259 26.8336 73.4755 24.5368L74.1233 23.1739C74.2263 22.8914 74.1966 22.5595 74.0229 22.3017C73.8322 22.0399 73.5195 21.9118 73.2046 21.9455L70.7193 22.2235C69.2936 22.3734 67.93 22.7184 66.6154 23.2375C66.3679 22.5291 65.9513 21.925 65.3997 21.4334C64.0342 20.2617 61.9148 20.139 60.2443 21.1695L59.5636 21.604C58.887 22.0214 58.1222 22.2014 57.3286 22.1218C55.524 21.9653 52.4139 21.6802 50.1689 21.4014C48.9227 21.2508 47.6968 21.7006 46.8816 22.6268C46.423 23.1139 45.8183 23.8372 45.0556 24.848C44.5697 24.8413 43.8111 24.8422 42.9989 24.9929C42.1488 25.1526 41.3401 25.593 40.7517 26.2479C40.0708 26.9892 39.4227 27.6662 38.8252 28.2829C37.718 28.6887 33.0529 30.4723 29.7606 33.0142C28.3848 34.0964 27.3412 35.5282 26.7144 37.1849C25.8941 39.4276 24.7657 43.583 24.0712 50.7838C23.9262 52.1574 23.4999 53.5002 22.7736 54.7364C21.8558 56.3241 20.3142 58.7936 18.2302 61.4948C17.9953 61.8003 17.7645 62.0887 17.5336 62.377C12.2972 59.7112 8.0054 59.0021 6.35069 60.957Z" fill="#FEFFFC"/>
<path d="M9.70006 71.8947C10.0945 72.4396 10.5062 72.9881 10.9562 73.5279C11.2548 73.8693 11.5356 74.2066 11.8129 74.5611C13.7505 76.825 16.0891 79.1475 18.7373 81.3811C21.6493 83.8759 24.6071 85.9479 27.3801 87.5795C27.857 87.8547 28.3201 88.1088 28.7707 88.3421C28.9121 88.4294 29.0712 88.5213 29.2167 88.592C34.6814 91.4382 39.2 92.2553 40.8972 90.2742C42.6352 88.1946 40.9421 83.6062 36.9104 78.4456C36.7064 78.1623 36.4775 77.9098 36.2826 77.6649C36.2396 77.6189 36.1962 77.5724 36.1528 77.526C35.9755 77.2856 35.7765 77.0578 35.5603 76.826C33.6661 79.7172 31.5836 83.2496 29.3319 87.5724C28.8646 87.3351 28.4222 87.068 27.9459 86.7927C25.1683 85.1782 22.215 83.0891 19.2818 80.6075C16.6543 78.3607 14.3157 76.0382 12.3786 73.7743C12.0973 73.437 11.7993 73.0956 11.5179 72.7583C11.0719 72.2013 10.6562 71.67 10.2658 71.1079C13.4636 68.5077 16.1497 65.5514 18.3186 62.7977C18.0443 62.6603 17.7908 62.5103 17.5337 62.377C12.2973 59.7111 8.00545 59.0021 6.35073 60.9569C4.70006 62.8946 6.12495 67.0947 9.70006 71.8947Z" fill="#191A24"/>
<path d="M9.54732 71.6241C9.95493 72.1902 10.3838 72.7426 10.8429 73.3209L11.7203 74.341C13.7533 76.7357 16.1091 79.0622 18.7275 81.2711C21.596 83.7193 24.5458 85.8257 27.4946 87.5528C27.9881 87.832 28.4477 88.1032 28.915 88.3401C28.9796 88.3734 29.0609 88.4108 29.1291 88.4269C29.2832 88.4633 29.4322 88.4446 29.5847 88.4087C29.8186 88.3375 29.9999 88.182 30.1035 87.9719C32.1436 84.0864 34.1837 80.5802 36.1526 77.526C36.3783 77.1826 36.6046 76.8387 36.8304 76.4953C42.7623 67.6103 46.5885 65.1767 46.6269 65.1681L57.324 60.101C60.6239 58.5178 63.0146 55.4373 63.7501 51.875L65.6012 42.7639C65.8261 41.6619 66.2733 40.6125 66.9647 39.675C67.4546 38.9787 68.0903 38.353 68.8295 37.824C69.7459 37.1565 70.136 35.9672 69.7733 34.9065C69.3045 33.532 68.3362 32.4363 67.0675 31.847C66.956 31.7845 66.8403 31.7391 66.7247 31.6937C66.1295 31.4625 65.5059 31.3509 64.8752 31.346C63.9929 31.3357 63.1094 31.5597 62.3009 32.0001L59.5543 33.534C58.1619 34.3055 57.0246 35.372 56.1968 36.6562C55.8954 37.0903 55.6371 37.5707 55.4302 38.0632L53.4449 42.5573C53.4449 42.5573 53.4287 42.6257 53.4206 42.6599C53.3023 43.0831 53.5039 43.528 53.9282 43.7187C54.3524 43.9094 54.8869 43.711 55.0817 43.2698L56.3908 40.2583C56.3908 40.2583 56.4826 40.0995 56.5069 39.9969L57.0498 38.7716C57.7422 37.2207 58.898 35.9238 60.4213 35.057L63.185 33.5272C63.7266 33.2222 64.3556 33.0823 64.9652 33.1002L64.9823 33.1043C64.9823 33.1043 65.1443 33.1065 65.2126 33.1227C65.5114 33.1573 65.8191 33.2302 66.1016 33.3332C67.0609 33.7047 67.782 34.4712 68.0966 35.4302C68.2419 35.8075 68.1146 36.1926 67.8104 36.4094C66.9192 37.0468 66.1616 37.8061 65.5457 38.6531C64.7333 39.7965 64.161 41.069 63.8965 42.4145L62.0454 51.5256C61.4354 54.5581 59.3885 57.178 56.5798 58.5168L45.8192 63.6228C45.5697 63.7622 41.5864 66.2488 35.3818 75.5206C33.2861 78.6526 31.1409 82.2967 28.9841 86.3711C28.7912 86.2711 28.6023 86.1544 28.3962 86.0332C25.5414 84.3647 22.6694 82.3124 19.8741 79.9359C17.333 77.782 15.0337 75.5227 13.0699 73.2163L12.2092 72.2003C11.9582 71.8882 11.7071 71.5761 11.4733 71.268C14.3448 68.8248 17.0915 65.9191 19.6534 62.5724C21.7753 59.7894 23.3502 57.2558 24.3145 55.6252C25.1656 54.1657 25.6656 52.5876 25.8374 50.9494C26.5213 43.9448 27.5966 39.9392 28.3922 37.7991C28.8912 36.455 29.7458 35.2855 30.8556 34.411C32.2951 33.2896 34.0387 32.3306 35.6101 31.5654C37.8088 30.5155 39.6206 29.8794 39.6418 29.8664C39.7605 29.8223 39.8873 29.744 39.9802 29.6576C39.9843 29.6406 40.009 29.6104 40.0514 29.5843C40.2318 29.3563 40.305 29.0486 40.1944 28.7517C40.0353 28.2808 39.5337 28.0357 39.0796 28.199C39.0756 28.2161 38.9781 28.2471 38.8422 28.2871C37.735 28.6929 33.0694 30.4765 29.7772 33.0185C28.4018 34.1007 27.3582 35.5325 26.7314 37.1892C25.9111 39.4319 24.7822 43.5873 24.0882 50.7878C23.9432 52.1614 23.5164 53.5047 22.7906 54.7409C21.8728 56.3286 20.3312 58.7976 18.2467 61.4993C18.0118 61.8048 17.781 62.0932 17.5502 62.381C15.0964 65.5009 12.4709 68.2007 9.73724 70.4414C9.37862 70.7358 9.30841 71.2605 9.5645 71.6281L9.54732 71.6241Z" fill="#191A24"/>
<path d="M39.1031 36.5625C39.1031 36.5625 39.2319 36.6291 39.3001 36.6453C39.6764 36.7343 40.083 36.5418 40.2749 36.1901C42.6878 31.4904 44.6941 28.3552 46.173 26.3045C46.1982 26.2743 46.2235 26.2442 46.2488 26.2141C47.0569 25.0877 47.708 24.3212 48.1747 23.7999C48.6159 23.3087 49.2862 23.0703 49.9521 23.1557C52.2183 23.4215 55.3455 23.7106 57.1842 23.8752C58.349 23.9885 59.4791 23.7146 60.4941 23.0884L61.1707 22.671C62.1857 22.0448 63.4562 22.0929 64.253 22.7689C64.6408 23.1135 64.9148 23.5574 65.0619 24.0796C65.3031 24.9671 65.022 26.0017 64.3026 26.752C62.742 28.3862 61.3181 29.3668 60.3643 29.4298C59.4658 29.4878 58.1215 29.675 56.7651 29.9134C56.744 29.9265 56.7098 29.9184 56.6927 29.9143C56.6414 29.9022 56.582 29.9242 56.5226 29.9463C55.3021 30.1447 54.0945 30.3642 53.2613 30.5279C52.6022 30.6427 52.1514 30.7165 52.092 30.7385C51.616 30.8424 51.3065 31.3107 51.3934 31.7825C51.4604 32.033 51.608 32.2485 51.8181 32.3524C51.99 32.4653 52.2122 32.5179 52.4417 32.464C52.4417 32.464 52.5906 32.4451 52.8583 32.3821C53.1008 32.3492 53.462 32.2723 53.8746 32.2075C54.746 32.0348 55.9153 31.8242 57.0634 31.6267C58.3564 31.4274 59.6454 31.2452 60.4925 31.175C61.9273 31.0634 63.644 29.9897 65.5704 27.9547C66.3442 27.1271 66.8085 26.0817 66.8764 25.0327C66.9173 24.5551 66.8859 24.0782 66.7607 23.6154C66.7207 23.4796 66.6766 23.3608 66.6154 23.238C66.368 22.5296 65.9513 21.9255 65.3998 21.4339C64.0343 20.2622 61.9148 20.1394 60.2444 21.17L59.5637 21.6045C58.8871 22.022 58.1222 22.2019 57.3286 22.1223C55.524 21.9658 52.4139 21.6807 50.1689 21.4019C48.9227 21.2512 47.6969 21.7011 46.8817 22.6273C46.423 23.1144 45.8184 23.8378 45.0557 24.8485C44.6784 25.373 44.247 25.9748 43.7955 26.6621C42.4019 28.7331 40.6856 31.5579 38.7136 35.3872C38.4884 35.8033 38.6657 36.3507 39.1031 36.5625Z" fill="#191A24"/>
<path d="M51.989 34.4503C52.3822 34.5435 52.806 34.355 52.9887 33.965C53.6648 32.4824 54.045 31.8684 54.062 31.8725C54.3212 31.4645 54.1952 30.9292 53.7871 30.6701C53.379 30.411 52.8437 30.537 52.5846 30.945C52.5764 30.9792 52.15 31.6364 51.4072 33.2476C51.2125 33.6888 51.3978 34.2021 51.8351 34.4139L52.0061 34.4544L51.989 34.4503Z" fill="#8BD94D"/>
<path d="M33.1705 34.4714C33.2887 34.7341 33.4998 34.9104 33.7564 34.9711C33.9272 35.0116 34.1105 35.0008 34.2924 34.9176C34.5762 34.7863 35.3738 34.4696 39.9631 29.6533C39.9672 29.6363 39.9753 29.6021 40.0344 29.58C40.6359 28.9462 41.2921 28.2351 42.0406 27.4375C42.3811 27.0669 42.8382 26.8141 43.3312 26.7142C43.4842 26.6782 43.6504 26.6634 43.7948 26.6616C44.6505 26.5572 45.3718 26.6377 45.3884 26.6417C45.6915 26.6593 45.9925 26.532 46.1729 26.3039C46.1809 26.2697 46.2234 26.2436 46.2481 26.2135C46.2729 26.111 46.339 25.9823 46.3335 25.8546C46.3916 25.3809 46.0279 24.9338 45.5713 24.8798C45.5713 24.8798 45.3581 24.8654 45.0379 24.8439C44.552 24.8371 43.7938 24.8381 42.9816 24.9887C42.1315 25.1485 41.3229 25.5888 40.7344 26.2438C40.053 26.9851 39.4055 27.6621 38.808 28.2788C37.4871 29.6629 36.4143 30.7627 35.5758 31.557C34.4939 32.6186 33.815 33.198 33.5908 33.3073C33.1458 33.5088 32.9518 34.0225 33.1533 34.4673L33.1705 34.4714Z" fill="#191A24"/>
<path d="M65.2289 24.8229C65.4304 25.2678 65.9483 25.4445 66.3932 25.243L66.8764 25.0325C68.1438 24.4841 69.4903 24.1351 70.9029 23.9641L71.8477 23.8629C70.9183 25.8811 69.4962 27.6926 67.7448 29.065L64.8754 31.3461L64.6096 31.5539C64.2339 31.844 64.1727 32.4072 64.48 32.7868C64.6055 32.9429 64.7603 33.0517 64.9483 33.0962L64.9655 33.1003C64.9655 33.1003 65.1274 33.1025 65.1958 33.1187C65.3789 33.1079 65.5571 33.0418 65.7091 32.9334L67.0678 31.8471L68.8273 30.4404C70.8023 28.8863 72.4259 26.8338 73.4755 24.5371L74.1233 23.1741C74.2263 22.8916 74.1966 22.5597 74.0229 22.302C73.8322 22.0402 73.5195 21.912 73.2046 21.9457L70.7193 22.2238C69.2936 22.3736 67.93 22.7186 66.6154 23.2378C66.2973 23.361 65.9752 23.5014 65.649 23.6588C65.2041 23.8603 65.0062 24.3911 65.2289 24.8229Z" fill="#191A24"/>
<path d="M35.9744 45.7307C36.2138 45.7874 36.4562 45.7546 36.6719 45.607L57.2325 31.5212C57.6383 31.2562 57.7337 30.7012 57.4687 30.2955C57.1825 29.9028 56.6485 29.7944 56.2427 30.0593L35.6819 44.1452C35.2763 44.4101 35.1808 44.9652 35.4455 45.3709C35.5804 45.5652 35.7693 45.6822 35.9744 45.7307Z" fill="#191A24"/>
<path d="M40.9962 52.0474C41.2528 52.1085 41.5205 52.0454 41.7402 51.8808L56.1846 40.4444C56.3367 40.3361 56.4325 40.1602 56.4941 39.9762C56.9381 38.3303 56.6172 34.8066 52.3441 33.1811C51.8816 32.9994 51.3903 33.2441 51.2126 33.6894C51.0349 34.1347 51.2715 34.6601 51.721 34.8206C54.9878 36.0454 54.9662 38.4231 54.8574 39.2637L40.6785 50.4922C40.2992 50.7996 40.2421 51.3455 40.532 51.7212C40.6578 51.8772 40.8295 51.9898 41.0174 52.0348L40.9962 52.0474Z" fill="#191A24"/>
<path d="M39.3172 52.3522C40.2062 52.5628 41.0356 52.4164 41.6518 51.9482C43.108 50.8312 42.9479 48.2299 41.2629 46.0438C40.5178 45.0732 39.5622 44.3054 38.5858 43.9298C37.4812 43.4877 36.4164 43.5606 35.6653 44.1408C34.2091 45.2582 34.3733 47.8423 36.0543 50.0454C36.7993 51.016 37.7549 51.7841 38.7313 52.1593C38.9283 52.2421 39.1293 52.3078 39.3172 52.3522ZM37.612 45.4502C37.7317 45.4785 37.8514 45.5069 37.963 45.5694C38.6399 45.8379 39.3369 46.4002 39.8875 47.1261C40.9916 48.5609 41.1644 50.1182 40.5906 50.56C40.3456 50.7549 39.9153 50.7428 39.3844 50.5453C38.7076 50.2766 38.0105 49.7144 37.46 48.9884C36.3553 47.5535 36.1826 45.9963 36.7397 45.5505C36.9382 45.3989 37.2317 45.3782 37.5908 45.4632L37.612 45.4502Z" fill="#191A24"/>
<path d="M39.8187 46.8037C40.0581 46.8603 40.3218 46.8145 40.5375 46.6669L47.3836 41.6991C47.7761 41.413 47.8675 40.875 47.5851 40.4653C47.2993 40.0726 46.7442 39.9772 46.3512 40.2633L39.5055 45.2312C39.1126 45.5172 39.0211 46.0552 39.3035 46.465C39.4247 46.6382 39.6136 46.7551 39.8187 46.8037Z" fill="#191A24"/>
<path d="M73.7698 21.3238C73.6167 14.7411 67.3396 7.05479 60.2508 7.80759C53.9554 8.47616 50.2163 15.3188 51.9383 21.0576" stroke="#8BD94D" stroke-width="3.47832" stroke-linecap="round"/>
<path d="M79.642 25.4214C84.9874 23.0699 95.0565 19.7642 95.7554 28.6394C96.917 43.3885 79.9102 46.214 70.8152 52.9429C67.8121 55.1649 65.3344 58.9206 64.8121 62.6566C64.1014 67.7395 69.4434 64.0423 70.282 61.5113C72.1454 55.8866 67.3212 51.2477 65.0688 46.7436" stroke="#8BD94D" stroke-width="3.47832" stroke-linecap="round"/>
</svg>
