<svg width="712" height="722" viewBox="0 0 712 722" fill="none" xmlns="http://www.w3.org/2000/svg">
<path d="M606.676 376.466C746.035 455.457 746.77 583.518 608.325 662.504C469.871 741.497 244.675 741.497 105.316 662.506C-34.0354 583.522 -34.7684 455.46 103.685 376.469C242.13 297.482 467.324 297.48 606.676 376.466Z" fill="#F5F5F5"/>
<path d="M472.014 19.7982L479.147 15.6523L478.728 163.183L471.595 167.331L472.014 19.7982Z" fill="#F0F0F0"/>
<path d="M471.595 167.331L478.728 163.184L684.452 282.006L677.319 286.152L471.595 167.331Z" fill="#F5F5F5"/>
<path d="M463.834 5.62549L685.97 133.928L685.497 300.326L463.361 172.024L463.834 5.62549ZM677.319 286.152L677.736 138.621L472.014 19.7984L471.596 167.329L677.319 286.152Z" fill="#E0E0E0"/>
<path d="M463.834 5.62548L470.967 1.47803L693.103 129.78L685.97 133.928L463.834 5.62548Z" fill="#F5F5F5"/>
<path d="M685.97 133.928L693.102 129.78L692.63 296.179L685.497 300.326L685.97 133.928Z" fill="#F0F0F0"/>
<path d="M570.765 76.8398L570.348 224.371L578.553 229.112L578.973 81.5798L570.765 76.8398Z" fill="#E0E0E0"/>
<path d="M578.976 81.5781L578.972 81.5797L578.553 229.112L585.686 224.965L586.081 85.6835L578.976 81.5781Z" fill="#F0F0F0"/>
<path d="M570.77 76.8585L570.768 76.8613L578.974 81.6013L578.976 81.5985L570.77 76.8585Z" fill="#E0E0E0"/>
<path opacity="0.2" d="M578.964 88.2041L578.982 81.5798L570.776 76.8398L570.757 83.4641L578.964 88.2041Z" fill="black"/>
<path opacity="0.2" d="M578.953 88.204L584.707 84.8903L578.976 81.5781L578.973 81.5797L578.953 88.204Z" fill="black"/>
<path d="M126.784 469.494C122.202 472.141 122.177 476.436 126.731 479.083L143.128 488.616C147.691 491.269 155.103 491.269 159.685 488.623L357.314 373.778C361.896 371.131 361.932 366.83 357.367 364.176L340.97 354.643C336.417 351.996 328.996 352.003 324.413 354.649L126.784 469.494Z" fill="#E6E6E6"/>
<path d="M154.527 587.663L300.595 672.584C304.741 674.994 309.859 675.001 314.013 672.602L579.267 519.364C581.494 518.077 581.499 514.864 579.275 513.572L435.276 429.856C431.158 427.462 426.079 427.437 421.938 429.793L154.554 581.858C152.31 583.135 152.294 586.365 154.527 587.663Z" fill="#E6E6E6"/>
<path d="M91.9971 81.6392L92.099 117.271L96.4147 119.781L96.2998 79.1543L91.9971 81.6392Z" fill="#F0F0F0"/>
<path d="M45.4971 144.188L45.5116 149.182L96.4148 119.781L92.0991 117.271L45.4971 144.188Z" fill="#F5F5F5"/>
<path d="M101.499 70.1553L40.1636 105.582L40.3124 158.191L101.648 122.764L101.499 70.1553ZM45.5117 149.182L45.4971 144.188L45.3952 108.556L91.9972 81.6393L96.2999 79.1544L96.4148 119.781L45.5117 149.182Z" fill="#E0E0E0"/>
<path d="M101.499 70.1552L97.1834 67.646L35.8462 103.073L40.1635 105.582L101.499 70.1552Z" fill="#F5F5F5"/>
<path d="M35.8462 103.073L35.9951 155.682L40.3124 158.191L40.1635 105.582L35.8462 103.073Z" fill="#F0F0F0"/>
<path d="M77.1908 95.1694L89.9 105.179L89.9275 114.96L47.6574 139.373L47.6299 129.594L55.6852 113.587L62.9185 119.206L60.3617 127.154L64.0739 120.096L77.1908 95.1694Z" fill="#E0E0E0"/>
<path d="M63.3066 100.097C65.2953 98.9476 66.9151 99.8703 66.9216 102.158C66.9281 104.445 65.3196 107.231 63.3309 108.381C61.3421 109.53 59.7223 108.607 59.7158 106.32C59.7094 104.032 61.3178 101.246 63.3066 100.097Z" fill="#E0E0E0"/>
<path d="M91.9971 155.89L92.099 191.521L96.4147 194.03L96.2998 153.405L91.9971 155.89Z" fill="#F0F0F0"/>
<path d="M45.4971 218.437L45.5116 223.431L96.4148 194.03L92.0991 191.521L45.4971 218.437Z" fill="#F5F5F5"/>
<path d="M101.499 144.405L40.1636 179.831L40.3124 232.44L101.648 197.014L101.499 144.405ZM45.5117 223.431L45.4971 218.437L45.3952 182.807L91.9972 155.89L96.2999 153.405L96.4148 194.032L45.5117 223.431Z" fill="#E0E0E0"/>
<path d="M101.499 144.405L97.1834 141.896L35.8462 177.322L40.1635 179.831L101.499 144.405Z" fill="#F5F5F5"/>
<path d="M35.8462 177.322L35.9951 229.931L40.3124 232.44L40.1635 179.831L35.8462 177.322Z" fill="#F0F0F0"/>
<path d="M77.1908 169.419L89.9 179.43L89.9275 189.209L47.6574 213.623L47.6299 203.843L55.6852 187.838L62.9185 193.455L60.3617 201.404L64.0739 194.346L77.1908 169.419Z" fill="#E0E0E0"/>
<path d="M63.3066 174.348C65.2953 173.199 66.9151 174.122 66.9216 176.409C66.9281 178.697 65.3196 181.483 63.3309 182.632C61.3421 183.781 59.7223 182.859 59.7158 180.571C59.7094 178.284 61.3178 175.496 63.3066 174.348Z" fill="#E0E0E0"/>
<path d="M594.048 392.336L594.031 397.854L503.19 345.386L503.206 339.866L594.048 392.336Z" fill="#8DC868"/>
<path d="M561.69 382.432L561.676 387.952L503.166 354.157L503.18 348.637L561.69 382.432Z" fill="#8DC868"/>
<path d="M535.152 305.84C536.003 306.331 536.843 307.035 537.63 307.979C540.507 311.425 541.216 316.139 541.61 320.112C542.164 325.7 542.716 331.278 543.269 336.867C543.549 339.674 543.839 342.528 544.824 345.503C545.808 348.467 547.64 351.632 549.918 353.372C550.209 353.596 550.499 353.79 550.79 353.957C552.925 355.19 555.001 354.975 556.449 353.941C558.095 352.754 559.093 350.666 560.163 348.721C561.469 346.374 562.946 344.147 565.142 343.07C567.03 342.144 569.535 342.181 572.071 343.648C572.485 343.888 572.9 344.164 573.312 344.482C578.021 348.093 580.798 355.195 582.955 361.347C585.112 367.489 587.997 374.632 592.734 378.084C593.062 378.322 593.387 378.534 593.713 378.722C597.31 380.799 600.622 379.819 603.012 377.974C605.626 375.978 607.718 373.048 610.979 372.233C612.442 371.864 614.264 372.118 616.066 372.952L615.99 399.815L503.221 334.681L503.347 290.018C505.51 293.819 507.096 297.94 507.789 301.816C508.756 307.189 508.523 313.037 512.147 317.776C513.105 319.025 514.208 319.977 515.333 320.627C516.94 321.554 518.587 321.863 519.906 321.531C522.136 320.963 523.55 318.865 524.477 316.413C525.723 313.149 526.275 309.121 528.259 306.688C529.759 304.851 532.503 304.31 535.152 305.84Z" fill="#8DC868"/>
<path opacity="0.4" d="M535.152 305.84C536.003 306.331 536.843 307.035 537.63 307.979C540.507 311.425 541.216 316.139 541.61 320.112C542.164 325.7 542.716 331.278 543.269 336.867C543.549 339.674 543.839 342.528 544.824 345.503C545.808 348.467 547.64 351.632 549.918 353.372C550.209 353.596 550.499 353.79 550.79 353.957C552.925 355.19 555.001 354.975 556.449 353.941C558.095 352.754 559.093 350.666 560.163 348.721C561.469 346.374 562.946 344.147 565.142 343.07C567.03 342.144 569.535 342.181 572.071 343.648C572.485 343.888 572.9 344.164 573.312 344.482C578.021 348.093 580.798 355.195 582.955 361.347C585.112 367.489 587.997 374.632 592.734 378.084C593.062 378.322 593.387 378.534 593.713 378.722C597.31 380.799 600.622 379.819 603.012 377.974C605.626 375.978 607.718 373.048 610.979 372.233C612.442 371.864 614.264 372.118 616.066 372.952L615.99 399.815L503.221 334.681L503.347 290.018C505.51 293.819 507.096 297.94 507.789 301.816C508.756 307.189 508.523 313.037 512.147 317.776C513.105 319.025 514.208 319.977 515.333 320.627C516.94 321.554 518.587 321.863 519.906 321.531C522.136 320.963 523.55 318.865 524.477 316.413C525.723 313.149 526.275 309.121 528.259 306.688C529.759 304.851 532.503 304.31 535.152 305.84Z" fill="white"/>
<path d="M634.005 164.75L506.742 91.2456C505.455 90.5026 504.295 90.4071 503.407 90.8118V90.7908L503.305 90.849C503.238 90.883 503.174 90.9203 503.111 90.9607L497.971 93.9216C497.929 93.9442 497.889 93.9669 497.85 93.9912C497.821 94.009 497.8 94.0365 497.77 94.0559C496.95 94.6096 496.435 95.6699 496.431 97.1722L496.334 131.501C496.324 134.681 498.552 138.55 501.318 140.147L628.581 213.652C629.978 214.458 631.241 214.526 632.152 213.991V213.995L637.4 210.96C637.415 210.952 637.429 210.944 637.442 210.936L637.504 210.9L637.496 210.892C638.357 210.355 638.895 209.27 638.9 207.729L638.997 173.4C639.007 170.222 636.771 166.348 634.005 164.75Z" fill="#8DC868"/>
<path opacity="0.3" d="M634.005 164.75L506.742 91.2456C505.455 90.5026 504.295 90.4071 503.407 90.8118V90.7908L503.305 90.849C503.237 90.883 503.174 90.9203 503.111 90.9607L497.971 93.9216C498.873 93.4392 500.094 93.5217 501.447 94.302L628.711 167.807C630.644 168.924 632.3 171.156 633.13 173.484L638.439 170.462C637.612 168.124 635.949 165.874 634.005 164.75Z" fill="white"/>
<path opacity="0.2" d="M633.128 173.486C633.484 174.486 633.704 175.504 633.703 176.459L633.605 210.788C633.601 212.362 633.046 213.466 632.152 213.992V213.997L637.4 210.962C637.415 210.954 637.429 210.945 637.442 210.937L637.504 210.902L637.496 210.894C638.356 210.356 638.895 209.272 638.9 207.73L638.997 173.401C639 172.458 638.785 171.454 638.437 170.465L633.128 173.486Z" fill="black"/>
<path d="M531.987 125.316C534.761 130.122 534.993 135.278 532.694 137.476L523.603 132.225L522.969 126.714C522.933 126.413 522.726 126.088 522.475 125.931C522.215 125.78 522.016 125.873 521.979 126.132L520.656 134.32L518.933 121.293C518.889 120.998 518.682 120.671 518.44 120.53C518.187 120.385 517.98 120.482 517.943 120.741L516.7 129.628L515.456 122.946C515.392 122.649 515.205 122.365 514.97 122.23C514.724 122.086 514.543 122.162 514.483 122.363L513.362 126.311L505.928 122.018C503.649 117.175 503.91 112.305 506.701 110.714C508.237 109.843 510.245 110.123 512.248 111.28C514.252 112.438 516.252 114.471 517.773 117.108L519.344 119.831L520.925 118.929C522.457 118.055 524.462 118.335 526.464 119.491C528.464 120.645 530.464 122.679 531.987 125.316ZM522.425 130.219L521.139 138.179C521.093 138.433 520.885 138.509 520.642 138.37C520.399 138.231 520.182 137.909 520.148 137.607L518.461 124.84L517.31 133.075C517.273 133.324 517.074 133.416 516.82 133.29C516.569 133.144 516.38 132.851 516.328 132.56L514.923 125.058L514.221 127.537C514.158 127.749 513.959 127.81 513.734 127.681L506.806 123.679L508.234 126.153L519.27 145.274L530.369 138.937L531.806 138.117L523.166 133.128C522.914 132.982 522.707 132.655 522.673 132.354L522.425 130.219Z" fill="#8DC868"/>
<path d="M518.43 120.524C518.682 120.669 518.889 120.996 518.933 121.291L520.656 134.318L521.979 126.13C522.016 125.871 522.215 125.778 522.475 125.929C522.728 126.084 522.935 126.411 522.969 126.713L523.603 132.223L532.694 137.475L537.845 140.45C538.125 140.612 538.348 141 538.348 141.321C538.348 141.632 538.121 141.76 537.842 141.599L531.806 138.112L523.166 133.123C522.914 132.977 522.707 132.65 522.673 132.349L522.427 130.216L521.14 138.176C521.095 138.43 520.886 138.506 520.644 138.367C520.401 138.226 520.184 137.905 520.15 137.604L518.462 124.836L517.312 133.071C517.274 133.321 517.075 133.413 516.842 133.298C516.571 133.141 516.381 132.848 516.331 132.557L514.926 125.055L514.224 127.533C514.161 127.745 513.962 127.807 513.737 127.677L506.81 123.676L500.774 120.19C500.504 120.035 500.279 119.645 500.28 119.334C500.282 119.013 500.507 118.884 500.777 119.039L505.928 122.015L513.362 126.308L514.483 122.361C514.545 122.16 514.726 122.084 514.936 122.206C515.205 122.363 515.394 122.648 515.456 122.942L516.7 129.625L517.943 120.737C517.978 120.482 518.185 120.385 518.43 120.524Z" fill="white"/>
<path opacity="0.4" d="M531.987 125.316C534.761 130.122 534.993 135.278 532.694 137.476L523.603 132.225L522.969 126.714C522.933 126.413 522.726 126.088 522.475 125.931C522.215 125.78 522.016 125.873 521.979 126.132L520.656 134.32L518.933 121.293C518.889 120.998 518.682 120.671 518.44 120.53C518.187 120.385 517.98 120.482 517.943 120.741L516.7 129.628L515.456 122.946C515.392 122.649 515.205 122.365 514.97 122.23C514.724 122.086 514.543 122.162 514.483 122.363L513.362 126.311L505.928 122.018C503.649 117.175 503.91 112.305 506.701 110.714C508.237 109.843 510.245 110.123 512.248 111.28C514.252 112.438 516.252 114.471 517.773 117.108L519.344 119.831L520.925 118.929C522.457 118.055 524.462 118.335 526.464 119.491C528.464 120.645 530.464 122.679 531.987 125.316ZM522.425 130.219L521.139 138.179C521.093 138.433 520.885 138.509 520.642 138.37C520.399 138.231 520.182 137.909 520.148 137.607L518.461 124.84L517.31 133.075C517.273 133.324 517.074 133.416 516.82 133.29C516.569 133.144 516.38 132.851 516.328 132.56L514.923 125.058L514.221 127.537C514.158 127.749 513.959 127.81 513.734 127.681L506.806 123.679L508.234 126.153L519.27 145.274L530.369 138.937L531.806 138.117L523.166 133.128C522.914 132.982 522.707 132.655 522.673 132.354L522.425 130.219Z" fill="white"/>
<path d="M607.792 188.704L607.776 194.38L541.798 156.271L541.812 150.595L607.792 188.704Z" fill="white"/>
<path d="M620.498 184.924L620.482 190.598L541.829 145.169L541.845 139.495L620.498 184.924Z" fill="white"/>
<path d="M568.902 143.992L568.886 149.668L541.859 134.057L541.876 128.383L568.902 143.992Z" fill="white"/>
<path d="M634.005 231.671L506.742 158.167C505.455 157.423 504.295 157.328 503.407 157.733V157.712L503.305 157.77C503.238 157.804 503.174 157.841 503.111 157.882L497.971 160.842C497.929 160.865 497.889 160.888 497.85 160.912C497.821 160.93 497.8 160.957 497.77 160.977C496.95 161.53 496.435 162.591 496.431 164.093L496.334 198.422C496.324 201.601 498.552 205.47 501.318 207.068L628.581 280.573C629.978 281.379 631.241 281.447 632.152 280.911V280.916L637.4 277.881C637.415 277.873 637.429 277.865 637.442 277.857L637.504 277.821L637.496 277.813C638.357 277.275 638.895 276.191 638.9 274.65L638.997 240.321C639.007 237.143 636.771 233.269 634.005 231.671Z" fill="#8DC868"/>
<path opacity="0.3" d="M634.005 231.671L506.742 158.167C505.455 157.423 504.295 157.328 503.407 157.733V157.712L503.305 157.77C503.237 157.804 503.174 157.841 503.111 157.882L497.971 160.842C498.873 160.36 500.094 160.443 501.447 161.223L628.711 234.728C630.644 235.845 632.3 238.077 633.13 240.405L638.439 237.383C637.612 235.045 635.949 232.795 634.005 231.671Z" fill="white"/>
<path opacity="0.2" d="M633.128 240.407C633.484 241.407 633.704 242.425 633.703 243.38L633.605 277.709C633.601 279.283 633.046 280.387 632.152 280.913V280.918L637.4 277.883C637.415 277.875 637.429 277.866 637.442 277.858L637.504 277.823L637.496 277.815C638.356 277.277 638.895 276.193 638.9 274.651L638.997 240.322C639 239.377 638.785 238.375 638.437 237.384L633.128 240.407Z" fill="black"/>
<path d="M614.428 259.314L614.412 264.99L578.378 244.176L578.395 238.502L614.428 259.314Z" fill="white"/>
<path d="M618.964 250.804L618.948 256.48L578.409 233.065L578.425 227.391L618.964 250.804Z" fill="white"/>
<path d="M596.474 226.695L596.458 232.371L578.441 221.965L578.458 216.289L596.474 226.695Z" fill="white"/>
<path d="M522.873 193.925C523.982 194.564 524.88 196.11 524.877 197.384L524.865 201.216C524.862 202.49 523.958 203.005 522.849 202.365L519.516 200.44C518.407 199.801 517.519 198.25 517.522 196.976L517.533 193.144C517.537 191.87 518.431 191.36 519.54 192.001L522.873 193.925Z" fill="white"/>
<path opacity="0.4" d="M521.247 179.252C521.418 179.35 521.58 179.465 521.742 179.559L521.729 184.168C521.567 184.064 521.406 183.95 521.234 183.851C514.837 180.157 509.624 183.13 509.603 190.482C509.594 193.515 510.478 196.816 511.959 199.923L508.538 200.363C506.69 196.34 505.583 192.081 505.594 188.165C505.62 178.276 512.643 174.283 521.247 179.252Z" fill="white"/>
<path d="M521.742 179.559C530.119 184.709 536.827 196.497 536.799 206.191C536.772 216.08 529.749 220.083 521.145 215.115C515.947 212.112 511.361 206.508 508.536 200.364L511.957 199.924C514.074 204.342 517.401 208.337 521.158 210.508C527.555 214.202 532.768 211.23 532.789 203.877C532.81 196.722 527.89 188.029 521.729 184.17L521.742 179.559Z" fill="white"/>
<path opacity="0.4" d="M555.947 199.294C556.109 199.388 556.28 199.508 556.442 199.6L556.429 204.209C556.268 204.106 556.096 203.986 555.934 203.892C549.538 200.198 544.324 203.17 544.303 210.523C544.295 213.556 545.178 216.857 546.659 219.964L543.238 220.404C541.382 216.376 540.283 212.122 540.295 208.206C540.322 198.318 547.343 194.325 555.947 199.294Z" fill="white"/>
<path d="M557.575 213.968C558.684 214.607 559.572 216.148 559.569 217.422L559.558 221.254C559.554 222.528 558.659 223.048 557.551 222.408L554.218 220.483C553.109 219.844 552.211 218.287 552.216 217.014L552.227 213.182C552.23 211.908 553.135 211.403 554.243 212.044L557.575 213.968Z" fill="white"/>
<path d="M556.442 199.601C564.81 204.745 571.517 216.534 571.49 226.226C571.462 236.115 564.447 240.123 555.845 235.155C550.648 232.152 546.062 226.548 543.236 220.404L546.657 219.964C548.766 224.377 552.101 228.379 555.858 230.548C562.255 234.242 567.469 231.27 567.49 223.917C567.511 216.762 562.59 208.069 556.429 204.209L556.442 199.601Z" fill="white"/>
<path d="M512.064 233.582C513.604 234.472 514.844 236.618 514.839 238.389L514.824 243.712C514.82 245.472 513.572 246.194 512.032 245.304L507.4 242.629C505.869 241.745 504.63 239.587 504.635 237.826L504.649 232.503C504.654 230.732 505.902 230.022 507.433 230.906L512.064 233.582Z" fill="#8DC868"/>
<path d="M512.022 248.577C513.562 249.467 514.802 251.614 514.797 253.374L514.782 258.706C514.777 260.467 513.53 261.178 511.989 260.288L507.36 257.613C505.829 256.729 504.589 254.581 504.594 252.822L504.609 247.489C504.614 245.729 505.861 245.017 507.392 245.903L512.022 248.577Z" fill="#8DC868"/>
<path d="M511.98 263.572C513.52 264.462 514.76 266.609 514.755 268.37L514.74 273.693C514.735 275.464 513.488 276.175 511.947 275.286L507.318 272.612C505.787 271.728 504.547 269.579 504.552 267.808L504.567 262.486C504.572 260.726 505.819 260.014 507.35 260.899L511.98 263.572Z" fill="#8DC868"/>
<path d="M589.868 311.763L589.853 317.065L519.514 276.438L519.529 271.137L589.868 311.763Z" fill="#8DC868"/>
<path d="M617.9 312.945L617.885 318.247L519.556 261.455L519.571 256.151L617.9 312.945Z" fill="#8DC868"/>
<path d="M604.925 290.432L604.909 295.733L519.598 246.459L519.613 241.158L604.925 290.432Z" fill="#8DC868"/>
<path d="M346.775 55.8707C346.736 42.2223 341.909 32.6307 334.135 28.119L334.154 28.1157L316.678 17.7763C316.599 17.7309 316.521 17.6856 316.442 17.6403C315.741 17.2453 315.016 16.8908 314.269 16.5783C314.131 16.52 313.982 16.4828 313.843 16.4278C313.602 16.3339 313.354 16.2545 313.11 16.1687C312.735 16.036 312.37 15.8838 311.984 15.7721C311.578 15.654 311.15 15.5795 310.734 15.484C310.479 15.4257 310.228 15.3577 309.969 15.3075C309.828 15.28 309.697 15.2363 309.556 15.212C308.705 15.0647 307.833 14.9627 306.943 14.9061C306.888 14.9028 306.828 14.9077 306.773 14.9044C306.568 14.8931 306.354 14.9061 306.149 14.8996C305.466 14.8769 304.784 14.851 304.08 14.8834C303.847 14.8931 303.603 14.9384 303.368 14.9546C302.938 14.9838 302.503 15.0356 302.067 15.0858C301.661 15.1327 301.268 15.144 300.855 15.2072C300.504 15.2622 300.134 15.3707 299.779 15.437C299.192 15.5471 298.603 15.6718 298.006 15.8158C297.684 15.8935 297.375 15.9324 297.051 16.0198C296.326 16.2173 295.592 16.4504 294.852 16.6981C294.774 16.724 294.7 16.7418 294.622 16.7693C293.744 17.0704 292.855 17.4039 291.957 17.7779C291.604 17.9252 291.243 18.1081 290.887 18.2668C290.549 18.4173 290.211 18.5711 289.87 18.7314C288.561 19.3498 287.242 20.0167 285.902 20.7905L158.266 94.5106C156.873 95.3152 155.501 96.2007 154.141 97.1331C153.703 97.4342 153.276 97.7645 152.84 98.0785C151.923 98.7406 151.012 99.4173 150.112 100.133C149.615 100.529 149.128 100.942 148.638 101.355C147.813 102.048 146.997 102.759 146.19 103.494C145.699 103.942 145.214 104.392 144.73 104.853C144.427 105.143 144.115 105.41 143.816 105.706C143.497 106.021 143.202 106.375 142.889 106.696C141.911 107.69 140.955 108.709 140.013 109.76C139.71 110.097 139.388 110.401 139.091 110.743C138.841 111.031 138.608 111.34 138.361 111.631C137.791 112.303 137.235 112.988 136.681 113.678C136.319 114.129 135.937 114.56 135.581 115.02C135.288 115.397 135.016 115.793 134.728 116.175C134.324 116.713 133.925 117.254 133.531 117.801C133.257 118.18 132.969 118.544 132.7 118.926C132.247 119.572 131.82 120.239 131.382 120.896C131.103 121.314 130.819 121.725 130.545 122.146C130.432 122.321 130.309 122.491 130.196 122.667C129.427 123.871 128.681 125.092 127.959 126.329C127.911 126.411 127.867 126.497 127.82 126.58C127.678 126.826 127.547 127.078 127.406 127.324C126.906 128.203 126.404 129.082 125.93 129.974C125.71 130.387 125.511 130.808 125.297 131.224C125.076 131.656 124.856 132.089 124.639 132.522C124.451 132.901 124.249 133.275 124.064 133.656C123.576 134.671 123.116 135.694 122.663 136.72C122.584 136.901 122.495 137.079 122.415 137.259C122.393 137.311 122.367 137.361 122.346 137.413C121.787 138.702 121.258 139.997 120.758 141.297C120.666 141.536 120.59 141.777 120.499 142.017C120.323 142.488 120.161 142.959 119.993 143.43C119.76 144.081 119.511 144.73 119.294 145.382C119.126 145.891 118.988 146.399 118.829 146.907C118.643 147.5 118.46 148.091 118.287 148.683C118.179 149.054 118.051 149.423 117.949 149.792C117.766 150.456 117.629 151.116 117.462 151.778C117.276 152.515 117.085 153.25 116.922 153.985C116.865 154.242 116.787 154.501 116.732 154.759C116.619 155.293 116.561 155.819 116.459 156.352C116.239 157.506 116.032 158.655 115.867 159.801C115.821 160.119 115.744 160.442 115.701 160.76C115.608 161.485 115.561 162.199 115.489 162.919C115.439 163.428 115.378 163.936 115.341 164.441C115.221 166.052 115.145 167.651 115.148 169.226L115.711 415.614C115.75 429.271 120.567 438.875 128.336 443.392L145.811 453.731C145.316 453.443 144.869 453.077 144.4 452.749C152.348 458.301 163.812 458.096 176.586 450.719L304.221 376.999C328.109 363.201 347.417 329.745 347.339 302.262L346.775 55.8707Z" fill="#8DC868"/>
<path opacity="0.6" d="M346.775 55.8707C346.736 42.2223 341.909 32.6307 334.135 28.119L334.154 28.1157L316.678 17.7763C316.599 17.7309 316.521 17.6856 316.442 17.6403C315.741 17.2453 315.016 16.8908 314.269 16.5783C314.131 16.52 313.982 16.4828 313.843 16.4278C313.602 16.3339 313.354 16.2545 313.11 16.1687C312.735 16.036 312.37 15.8838 311.984 15.7721C311.578 15.654 311.15 15.5795 310.734 15.484C310.479 15.4257 310.228 15.3577 309.969 15.3075C309.828 15.28 309.697 15.2363 309.556 15.212C308.705 15.0647 307.833 14.9627 306.943 14.9061C306.888 14.9028 306.828 14.9077 306.773 14.9044C306.568 14.8931 306.354 14.9061 306.149 14.8996C305.466 14.8769 304.784 14.851 304.08 14.8834C303.847 14.8931 303.603 14.9384 303.368 14.9546C302.938 14.9838 302.503 15.0356 302.067 15.0858C301.661 15.1327 301.268 15.144 300.855 15.2072C300.504 15.2622 300.134 15.3707 299.779 15.437C299.192 15.5471 298.603 15.6718 298.006 15.8158C297.684 15.8935 297.375 15.9324 297.051 16.0198C296.326 16.2173 295.592 16.4504 294.852 16.6981C294.774 16.724 294.7 16.7418 294.622 16.7693C293.744 17.0704 292.855 17.4039 291.957 17.7779C291.604 17.9252 291.243 18.1081 290.887 18.2668C290.549 18.4173 290.211 18.5711 289.87 18.7314C288.561 19.3498 287.242 20.0167 285.902 20.7905L158.266 94.5106C156.873 95.3152 155.501 96.2007 154.141 97.1331C153.703 97.4342 153.276 97.7645 152.84 98.0785C151.923 98.7406 151.012 99.4173 150.112 100.133C149.615 100.529 149.128 100.942 148.638 101.355C147.813 102.048 146.997 102.759 146.19 103.494C145.699 103.942 145.214 104.392 144.73 104.853C144.427 105.143 144.115 105.41 143.816 105.706C143.497 106.021 143.202 106.375 142.889 106.696C141.911 107.69 140.955 108.709 140.013 109.76C139.71 110.097 139.388 110.401 139.091 110.743C138.841 111.031 138.608 111.34 138.361 111.631C137.791 112.303 137.235 112.988 136.681 113.678C136.319 114.129 135.937 114.56 135.581 115.02C135.288 115.397 135.016 115.793 134.728 116.175C134.324 116.713 133.925 117.254 133.531 117.801C133.257 118.18 132.969 118.544 132.7 118.926C132.247 119.572 131.82 120.239 131.382 120.896C131.103 121.314 130.819 121.725 130.545 122.146C130.432 122.321 130.309 122.491 130.196 122.667C129.427 123.871 128.681 125.092 127.959 126.329C127.911 126.411 127.867 126.497 127.82 126.58C127.678 126.826 127.547 127.078 127.406 127.324C126.906 128.203 126.404 129.082 125.93 129.974C125.71 130.387 125.511 130.808 125.297 131.224C125.076 131.656 124.856 132.089 124.639 132.522C124.451 132.901 124.249 133.275 124.064 133.656C123.576 134.671 123.116 135.694 122.663 136.72C122.584 136.901 122.495 137.079 122.415 137.259C122.393 137.311 122.367 137.361 122.346 137.413C121.787 138.702 121.258 139.997 120.758 141.297C120.666 141.536 120.59 141.777 120.499 142.017C120.323 142.488 120.161 142.959 119.993 143.43C119.76 144.081 119.511 144.73 119.294 145.382C119.126 145.891 118.988 146.399 118.829 146.907C118.643 147.5 118.46 148.091 118.287 148.683C118.179 149.054 118.051 149.423 117.949 149.792C117.766 150.456 117.629 151.116 117.462 151.778C117.276 152.515 117.085 153.25 116.922 153.985C116.865 154.242 116.787 154.501 116.732 154.759C116.619 155.293 116.561 155.819 116.459 156.352C116.239 157.506 116.032 158.655 115.867 159.801C115.821 160.119 115.744 160.442 115.701 160.76C115.608 161.485 115.561 162.199 115.489 162.919C115.439 163.428 115.378 163.936 115.341 164.441C115.221 166.052 115.145 167.651 115.148 169.226L115.711 415.614C115.75 429.271 120.567 438.875 128.336 443.392L145.811 453.731C145.316 453.443 144.869 453.077 144.4 452.749C152.348 458.301 163.812 458.096 176.586 450.719L304.221 376.999C328.109 363.201 347.417 329.745 347.339 302.262L346.775 55.8707Z" fill="white"/>
<path opacity="0.1" d="M133.183 425.951L132.62 179.563L115.144 169.223L115.707 415.611C115.746 429.268 120.563 438.872 128.332 443.389L145.806 453.728C138.041 449.213 133.222 439.607 133.183 425.951Z" fill="black"/>
<path opacity="0.3" d="M308.361 28.603C309.62 28.0429 310.871 27.5249 312.095 27.1072C312.173 27.0813 312.248 27.0619 312.325 27.036C313.395 26.6766 314.44 26.4063 315.479 26.1537C316.076 26.008 316.667 25.885 317.253 25.7749C318.025 25.6292 318.788 25.5094 319.541 25.4236C319.978 25.3734 320.413 25.3233 320.842 25.2925C321.787 25.2261 322.714 25.2083 323.623 25.2375C323.831 25.2439 324.044 25.231 324.25 25.2423C325.347 25.3038 326.41 25.4447 327.446 25.6454C327.704 25.6956 327.955 25.7636 328.211 25.8219C329.023 26.008 329.816 26.2363 330.586 26.5082C330.831 26.594 331.078 26.6717 331.32 26.7673C332.3 27.1525 333.253 27.5912 334.156 28.1157L316.68 17.7763C316.601 17.7309 316.523 17.6856 316.444 17.6403C315.743 17.2453 315.018 16.8908 314.27 16.5783C314.133 16.52 313.984 16.4828 313.845 16.4278C313.604 16.3339 313.356 16.2545 313.112 16.1687C312.736 16.036 312.372 15.8838 311.985 15.7721C311.579 15.654 311.152 15.5795 310.736 15.484C310.481 15.4257 310.23 15.3577 309.971 15.3075C309.83 15.28 309.699 15.2363 309.557 15.212C308.705 15.0647 307.833 14.9627 306.943 14.9061C306.888 14.9028 306.83 14.9077 306.773 14.9044C306.569 14.8931 306.354 14.9061 306.149 14.8996C305.466 14.8769 304.785 14.851 304.081 14.8834C303.848 14.8931 303.603 14.9384 303.369 14.9546C302.94 14.9838 302.503 15.0356 302.068 15.0858C301.661 15.1327 301.268 15.144 300.856 15.2072C300.504 15.2622 300.134 15.3707 299.78 15.437C299.192 15.5471 298.603 15.6718 298.006 15.8158C297.684 15.8935 297.375 15.9324 297.051 16.0198C296.326 16.2157 295.592 16.4504 294.852 16.6981C294.774 16.724 294.7 16.7418 294.622 16.7693C293.744 17.0704 292.855 17.4039 291.957 17.7779C291.604 17.9252 291.244 18.1081 290.888 18.2668C290.549 18.4173 290.211 18.5711 289.87 18.7314C288.561 19.3498 287.242 20.0167 285.902 20.7905L158.266 94.5106C156.873 95.3152 155.499 96.2007 154.142 97.1331C153.703 97.4342 153.276 97.7645 152.841 98.0785C151.923 98.7406 151.012 99.4173 150.112 100.133C149.615 100.529 149.128 100.942 148.638 101.355C147.813 102.048 146.997 102.759 146.19 103.495C145.699 103.942 145.214 104.394 144.73 104.855C144.428 105.145 144.115 105.413 143.816 105.708C143.497 106.022 143.203 106.377 142.889 106.697C141.911 107.691 140.955 108.711 140.013 109.762C139.711 110.098 139.389 110.403 139.091 110.746C138.842 111.032 138.609 111.343 138.361 111.635C137.791 112.306 137.235 112.991 136.681 113.681C136.319 114.132 135.937 114.563 135.581 115.023C135.288 115.4 135.016 115.797 134.728 116.179C134.324 116.716 133.926 117.257 133.531 117.804C133.257 118.183 132.969 118.547 132.701 118.929C132.248 119.575 131.82 120.242 131.382 120.899C131.103 121.317 130.819 121.728 130.545 122.149C130.432 122.324 130.309 122.494 130.196 122.67C129.427 123.875 128.681 125.095 127.959 126.332C127.911 126.415 127.867 126.5 127.82 126.583C127.678 126.829 127.547 127.082 127.404 127.329C126.904 128.208 126.403 129.087 125.929 129.979C125.708 130.392 125.509 130.813 125.296 131.229C125.074 131.661 124.854 132.093 124.637 132.527C124.45 132.906 124.247 133.28 124.063 133.66C123.574 134.675 123.115 135.699 122.661 136.723C122.582 136.905 122.493 137.083 122.414 137.262C122.391 137.314 122.365 137.364 122.344 137.416C121.786 138.705 121.257 140 120.757 141.3C120.665 141.539 120.589 141.781 120.498 142.02C120.322 142.491 120.16 142.962 119.991 143.433C119.758 144.084 119.509 144.733 119.292 145.386C119.124 145.892 118.987 146.402 118.828 146.911C118.642 147.503 118.459 148.094 118.286 148.687C118.177 149.057 118.05 149.426 117.948 149.795C117.765 150.459 117.627 151.12 117.461 151.782C117.276 152.518 117.084 153.253 116.92 153.988C116.863 154.246 116.786 154.505 116.731 154.762C116.618 155.296 116.559 155.822 116.457 156.355C116.237 157.509 116.03 158.659 115.865 159.805C115.82 160.122 115.742 160.446 115.7 160.761C115.606 161.487 115.559 162.201 115.488 162.921C115.438 163.429 115.376 163.938 115.339 164.443C115.219 166.053 115.143 167.653 115.147 169.228L132.623 179.567C132.618 177.992 132.694 176.394 132.814 174.785C132.853 174.277 132.914 173.764 132.964 173.252C133.065 172.223 133.189 171.187 133.34 170.147C133.503 169.001 133.712 167.847 133.932 166.693C134.083 165.906 134.218 165.119 134.395 164.329C134.558 163.593 134.751 162.855 134.937 162.118C135.196 161.088 135.46 160.06 135.759 159.031C135.932 158.437 136.117 157.843 136.303 157.249C136.667 156.088 137.054 154.93 137.466 153.774C137.634 153.303 137.796 152.832 137.973 152.361C138.57 150.768 139.202 149.18 139.889 147.604C139.968 147.422 140.055 147.244 140.136 147.064C140.759 145.654 141.421 144.256 142.112 142.868C142.327 142.435 142.547 142.002 142.771 141.57C143.444 140.26 144.146 138.962 144.874 137.678C145.017 137.428 145.151 137.172 145.295 136.922C146.164 135.422 147.077 133.947 148.017 132.493C148.29 132.069 148.578 131.656 148.858 131.237C149.554 130.195 150.268 129.167 150.999 128.153C151.395 127.604 151.797 127.06 152.203 126.521C152.841 125.675 153.494 124.849 154.153 124.028C154.708 123.337 155.266 122.649 155.837 121.977C156.376 121.341 156.931 120.728 157.485 120.111C158.426 119.06 159.386 118.037 160.363 117.043C160.973 116.423 161.582 115.798 162.205 115.203C162.687 114.741 163.174 114.29 163.665 113.843C164.47 113.108 165.286 112.397 166.111 111.704C166.602 111.291 167.092 110.877 167.589 110.48C168.485 109.765 169.396 109.09 170.312 108.428C170.747 108.114 171.176 107.782 171.615 107.481C172.974 106.548 174.348 105.663 175.739 104.858L303.375 31.1381C304.715 30.3643 306.034 29.6973 307.343 29.079C307.683 28.909 308.023 28.7552 308.361 28.603Z" fill="white"/>
<path d="M154.935 425.889C154.951 431.241 156.119 433.973 156.716 434.815C156.804 434.831 156.985 434.856 157.275 434.856C158.257 434.856 161.042 434.564 165.707 431.871L293.344 358.149C310.576 348.196 325.643 322.107 325.587 302.309L325.443 239.025L154.737 338.694L154.935 425.889Z" fill="#8DC868"/>
<path d="M325.023 55.9322C325.007 50.5026 323.8 47.7813 323.216 47.001L322.78 46.9849C322.649 46.9849 322.515 46.9913 322.489 46.9913L321.983 47.048C321.751 47.0739 321.515 47.116 321.274 47.1613C321.059 47.2018 320.843 47.2439 320.596 47.3038C320.177 47.4058 319.58 47.5547 319.141 47.7004C319.07 47.7247 318.997 47.7473 318.926 47.77C318.489 47.9286 317.915 48.1666 317.238 48.4693L316.639 48.7413C315.678 49.1962 314.921 49.5863 314.251 49.9732L186.612 123.697C185.809 124.16 184.929 124.721 184.003 125.356L183.041 126.063C182.405 126.523 181.769 126.989 181.152 127.481C180.861 127.715 180.575 127.959 180.285 128.2L180.097 128.359C179.497 128.862 178.903 129.379 178.332 129.9C177.969 130.232 177.607 130.567 177.241 130.917C176.843 131.297 176.456 131.697 176.068 132.093L175.864 132.301C175.124 133.053 174.398 133.827 173.689 134.617L173.451 134.884C173.102 135.273 172.752 135.66 172.417 136.055C171.974 136.578 171.54 137.115 171.107 137.654C170.592 138.295 170.079 138.939 169.579 139.605C169.259 140.031 168.941 140.461 168.639 140.88C168.061 141.682 167.496 142.498 166.943 143.323L166.278 144.312C165.49 145.531 164.76 146.716 164.132 147.804L163.783 148.432C163.2 149.455 162.643 150.491 162.114 151.516L161.59 152.549C161.046 153.645 160.522 154.749 160.054 155.806C159.964 156.012 159.87 156.217 159.765 156.447C159.305 157.509 158.839 158.675 158.342 159.997L157.951 161.096C157.632 161.985 157.334 162.877 157.056 163.764C156.915 164.216 156.773 164.668 156.643 165.113C156.42 165.879 156.227 166.646 156.025 167.447L155.915 167.884C155.816 168.268 155.716 168.652 155.627 169.055C155.553 169.391 155.494 169.728 155.431 170.063L155.299 170.772C155.142 171.593 154.989 172.414 154.873 173.226C154.769 173.942 154.684 174.653 154.614 175.363L154.506 176.414C154.417 177.617 154.373 178.628 154.375 179.516L154.722 331.435L325.428 231.767L325.023 55.9322Z" fill="#455A64"/>
<path d="M154.719 331.432L154.735 338.694L325.441 239.026L325.424 231.764L154.719 331.432Z" fill="white"/>
<path d="M297.832 141.585L281.546 150.992C287.407 138.026 286.592 125.145 279.122 120.876C274.947 118.502 269.486 119.261 264.033 122.411C258.58 125.561 253.133 131.101 248.984 138.284L244.548 145.978L243.776 136.145C243.71 135.318 243.102 134.993 242.276 135.415C241.548 135.836 240.928 136.777 240.791 137.682L239.401 146.765L236.833 145.301C232.658 142.927 227.197 143.686 221.743 146.836C216.29 149.985 210.846 155.524 206.702 162.704C199.273 175.577 198.532 189.358 204.455 195.518L188.163 204.928C187.331 205.409 186.655 206.581 186.656 207.537C186.659 208.494 187.341 208.883 188.172 208.402L207.053 197.497L212.89 200.826L243.128 218.065L246.578 212.086L246.723 213.945C246.789 214.793 247.434 215.118 248.23 214.668C248.998 214.225 249.639 213.187 249.728 212.261L250.337 205.569L273.159 166.013L278.967 155.96L297.842 145.059C298.673 144.578 299.35 143.406 299.348 142.449C299.345 141.492 298.665 141.104 297.832 141.585Z" fill="#8DC868"/>
<path d="M242.275 135.417C243.101 134.994 243.708 135.32 243.775 136.147L244.547 145.98L248.409 195.136L253.076 143.932C253.155 143.032 253.769 142.022 254.51 141.562C255.278 141.118 255.914 141.324 256.052 142.088L261.575 171.998L262.62 163.403C262.727 162.487 263.358 161.498 264.099 161.069L281.545 150.993L297.83 141.586C298.662 141.106 299.343 141.494 299.346 142.451C299.349 143.407 298.673 144.58 297.84 145.06L278.965 155.962L265.402 163.795L263.249 181.583C263.143 182.488 262.521 183.462 261.788 183.906C261.034 184.341 260.41 184.105 260.274 183.364L254.972 154.629L250.335 205.569L249.726 212.261C249.639 213.187 248.998 214.223 248.228 214.669C247.432 215.119 246.788 214.792 246.721 213.945L246.576 212.087L241.702 150.045L233.658 202.645C233.52 203.534 232.909 204.478 232.195 204.889C231.353 205.331 230.745 205.004 230.68 204.188L227.394 166.924L223.706 186.558C223.546 187.42 222.941 188.322 222.245 188.725L207.053 197.499L188.169 208.405C187.337 208.886 186.656 208.498 186.653 207.541C186.65 206.584 187.326 205.412 188.159 204.931L204.451 195.521L221.057 185.929L226.565 156.567C226.727 155.686 227.337 154.794 228.039 154.39C228.87 153.977 229.459 154.302 229.535 155.104L232.672 190.745L239.397 146.77L240.787 137.687C240.925 136.778 241.546 135.838 242.275 135.417Z" fill="white"/>
<path d="M221.944 249.609L222.003 270.734L215.799 274.316L215.754 258.558L212.603 260.378L212.589 255.013L221.944 249.609Z" fill="white"/>
<path d="M231.06 243.868C235.413 241.353 238.493 242.16 238.504 246.191C238.51 248.274 238.043 250.403 235.371 254.735L232.759 258.987L238.944 255.416L238.96 260.94L224.228 269.448L224.215 265.079L230.853 254.17C232.11 252.083 232.285 251.165 232.282 250.442C232.279 249.423 231.667 249.142 230.486 249.823C229.382 250.461 228.34 251.743 227.793 253.328L223.118 253.352C224.448 249.682 227.083 246.165 231.06 243.868Z" fill="white"/>
<path d="M248.491 233.8C253.336 231.001 256.814 233.03 256.833 240.026C256.852 247.044 253.398 253.077 248.553 255.875C243.689 258.685 240.211 256.656 240.19 249.639C240.171 242.642 243.625 236.61 248.491 233.8ZM248.537 250.168C249.737 249.474 250.621 247.695 250.609 243.618C250.598 239.566 249.708 238.81 248.507 239.503C247.307 240.198 246.404 241.988 246.415 246.04C246.426 250.118 247.336 250.863 248.537 250.168Z" fill="white"/>
<path d="M264.84 239.21C266.356 238.334 267.639 238.907 267.646 241.036C267.652 243.165 266.375 245.216 264.859 246.093C264.15 246.503 263.637 246.595 263.281 246.347L263.283 246.891L261.018 248.199L260.992 239.189L263.375 237.813L263.383 240.643C263.718 240.062 264.21 239.574 264.84 239.21ZM264.283 244.295C264.815 243.987 265.226 243.296 265.225 242.435C265.223 241.575 264.807 241.382 264.275 241.69C263.764 241.986 263.351 242.655 263.353 243.515C263.356 244.376 263.77 244.589 264.283 244.295Z" fill="white"/>
<path d="M272.246 234.933C273.743 234.069 275.026 234.642 275.033 236.794C275.039 238.922 273.762 240.952 272.266 241.817C271.635 242.181 271.143 242.285 270.787 242.103L270.795 244.91L268.411 246.286L268.385 237.299L270.651 235.991L270.652 236.535C271.005 235.876 271.516 235.354 272.246 234.933ZM271.688 240.018C272.22 239.711 272.631 239.042 272.63 238.183C272.627 237.323 272.212 237.108 271.68 237.415C271.147 237.723 270.736 238.414 270.738 239.275C270.741 240.133 271.156 240.324 271.688 240.018Z" fill="white"/>
<path d="M283.433 228.471C284.732 227.72 285.72 228.056 285.726 230.14L285.737 233.921L283.354 235.298L283.344 231.992C283.342 231.153 283.085 230.985 282.711 231.202C282.278 231.453 281.964 231.974 281.967 232.856L281.977 236.094L279.593 237.47L279.583 234.164C279.582 233.326 279.324 233.157 278.93 233.386C278.496 233.637 278.182 234.158 278.185 235.04L278.195 238.278L275.811 239.654L275.792 233.02L278.057 231.712L278.059 232.324C278.491 231.576 279.061 230.996 279.692 230.632C280.439 230.2 281.092 230.142 281.507 230.605C281.957 229.709 282.626 228.939 283.433 228.471Z" fill="white"/>
<path d="M184.616 339.884C190.352 336.57 195.014 339.241 195.033 345.823C195.051 352.418 190.42 360.444 184.684 363.757C178.947 367.07 174.285 364.412 174.266 357.817C174.248 351.235 178.879 343.196 184.616 339.884Z" fill="white"/>
<path d="M309.631 277.394L309.644 281.863L206.299 341.554L206.286 337.083L309.631 277.394Z" fill="white"/>
<path d="M309.73 312.208L309.743 316.691L206.398 376.38L206.385 371.898L309.73 312.208Z" fill="white"/>
<path d="M261.821 348.27L261.834 352.739L206.422 384.743L206.409 380.274L261.821 348.27Z" fill="white"/>
<path d="M247.042 340.026L247.055 344.509L206.374 368.006L206.362 363.524L247.042 340.026Z" fill="white"/>
<path d="M298.374 292.284L298.387 296.755L206.324 349.929L206.311 345.459L298.374 292.284Z" fill="white"/>
<path d="M269.74 292.045L269.753 296.528L206.275 333.191L206.264 328.709L269.74 292.045Z" fill="white"/>
<path d="M184.714 374.71C190.451 371.396 195.113 374.054 195.132 380.637C195.15 387.232 190.519 395.258 184.782 398.57C179.046 401.884 174.384 399.226 174.364 392.63C174.347 386.05 178.978 378.024 184.714 374.71Z" fill="white"/>
<path d="M443.286 421.881L425.601 411.599L189.903 529.013L207.652 539.263L443.286 421.881Z" fill="#455A64"/>
<path d="M557.609 488.346L322.377 605.527L341.399 616.512L576.565 499.365L557.609 488.346Z" fill="#455A64"/>
<path opacity="0.3" d="M443.286 421.881L425.601 411.599L189.903 529.013L207.652 539.263L443.286 421.881Z" fill="white"/>
<path d="M322.377 605.527L207.651 539.263L189.903 529.013L156.936 524.682L307.899 612.447L341.399 616.512L322.377 605.527Z" fill="#455A64"/>
<path opacity="0.5" d="M322.377 605.527L207.651 539.263L189.903 529.013L156.936 524.682L307.899 612.447L341.399 616.512L322.377 605.527Z" fill="white"/>
<path opacity="0.3" d="M557.609 488.346L322.377 605.527L341.399 616.512L576.565 499.365L557.609 488.346Z" fill="white"/>
<path d="M307.899 612.447L156.936 524.682L156.968 564.51L156.998 582.054L307.961 669.82L307.899 612.447Z" fill="#455A64"/>
<path d="M171.582 568.973L171.567 555.73C171.564 553.225 174.278 551.66 176.443 552.919L289.274 618.515C291.771 619.967 293.308 622.634 293.311 625.524L293.326 638.768C293.329 641.272 290.615 642.838 288.45 641.578L175.618 575.981C173.122 574.531 171.585 571.861 171.582 568.973Z" fill="#37474F"/>
<path d="M307.899 612.447L307.961 669.82L576.626 514.644L576.565 499.365L341.399 616.512L307.899 612.447Z" fill="#455A64"/>
<path opacity="0.1" d="M307.899 612.447L307.961 669.82L576.626 514.644L576.565 499.365L341.399 616.512L307.899 612.447Z" fill="white"/>
<path d="M443.286 421.881L443.27 429.118H428.76L443.286 421.881Z" fill="#455A64"/>
<path d="M431.095 427.954L207.651 539.263L322.377 605.527L550.897 491.689L441.865 428.3C438.563 426.38 434.516 426.251 431.095 427.954Z" fill="#37474F"/>
<path d="M310.862 437.393C308.174 437.393 305.995 439.572 305.995 442.263V603.649C308.933 605.451 312.294 606.547 315.731 606.822V442.263C315.73 439.572 313.552 437.393 310.862 437.393Z" fill="#E0E0E0"/>
<path opacity="0.2" d="M310.862 437.393C308.174 437.393 305.995 439.572 305.995 442.263V603.649C308.933 605.451 312.294 606.547 315.731 606.822V442.263C315.73 439.572 313.552 437.393 310.862 437.393Z" fill="black"/>
<path opacity="0.3" d="M310.862 437.393C308.174 437.393 305.995 439.572 305.995 442.263V456.228C308.862 456.737 311.767 457.015 314.687 457.015C315.035 457.015 315.383 456.991 315.731 456.983V442.261C315.73 439.572 313.552 437.393 310.862 437.393Z" fill="black"/>
<path d="M183.079 368.372C180.392 368.372 178.212 370.553 178.212 373.242V531.424C181.178 533.118 184.537 534.102 187.949 534.28V373.242C187.947 370.553 185.767 368.372 183.079 368.372Z" fill="#E0E0E0"/>
<path opacity="0.2" d="M183.079 368.372C180.392 368.372 178.212 370.553 178.212 373.242V531.424C181.178 533.118 184.537 534.102 187.949 534.28V373.242C187.947 370.553 185.767 368.372 183.079 368.372Z" fill="black"/>
<path opacity="0.3" d="M183.079 368.372C180.392 368.372 178.212 370.553 178.212 373.242V385.922L187.949 391.546V373.242C187.947 370.553 185.767 368.372 183.079 368.372Z" fill="black"/>
<path d="M219.969 335.494C219.047 334.417 218.027 333.974 217.1 334.092L185.84 341.215C186.798 341.038 187.869 341.49 188.83 342.613C190.761 344.87 191.515 348.979 190.513 351.791C190.02 353.178 189.189 353.984 188.244 354.18L219.36 347.068C220.315 346.881 221.155 346.07 221.652 344.671C222.652 341.859 221.899 337.75 219.969 335.494Z" fill="#455A64"/>
<path d="M185.618 341.266L185.623 341.291C185.686 341.271 185.746 341.236 185.809 341.223L185.618 341.266Z" fill="#455A64"/>
<path d="M188.167 354.2L188.183 354.196H188.165L188.167 354.2Z" fill="#455A64"/>
<path d="M190.513 351.792C191.515 348.98 190.761 344.872 188.83 342.615C187.869 341.491 186.798 341.04 185.84 341.216C185.83 341.218 185.82 341.221 185.811 341.223C185.746 341.236 185.688 341.273 185.625 341.291C184.751 341.545 183.987 342.317 183.523 343.619C182.521 346.431 183.275 350.539 185.206 352.796C186.157 353.908 187.217 354.356 188.167 354.196C188.172 354.194 188.178 354.196 188.183 354.196C188.204 354.193 188.223 354.186 188.245 354.181C189.188 353.986 190.018 353.179 190.513 351.792Z" fill="#263238"/>
<path d="M340.006 443.562L340.021 443.559H340.006V443.562Z" fill="#455A64"/>
<path d="M371.809 424.858C370.888 423.781 369.867 423.338 368.94 423.456L337.68 430.579C338.638 430.402 339.709 430.854 340.671 431.978C342.601 434.234 343.355 438.343 342.353 441.155C341.86 442.542 341.03 443.348 340.085 443.544L371.201 436.433C372.156 436.246 372.994 435.434 373.492 434.035C374.492 431.223 373.738 427.115 371.809 424.858Z" fill="#455A64"/>
<path d="M337.458 430.629L337.463 430.653C337.526 430.636 337.586 430.598 337.651 430.585L337.458 430.629Z" fill="#455A64"/>
<path d="M342.352 441.155C343.354 438.343 342.6 434.234 340.669 431.978C339.708 430.854 338.637 430.403 337.679 430.579C337.669 430.581 337.659 430.584 337.65 430.586C337.585 430.598 337.527 430.636 337.462 430.654C336.588 430.908 335.824 431.68 335.362 432.981C334.36 435.793 335.114 439.902 337.044 442.159C337.996 443.271 339.056 443.719 340.006 443.557C340.011 443.556 340.017 443.557 340.022 443.557C340.043 443.554 340.062 443.548 340.083 443.543C341.028 443.348 341.859 442.542 342.352 441.155Z" fill="#263238"/>
<g opacity="0.4">
<path d="M219.969 335.494C219.047 334.417 218.027 333.974 217.1 334.092L185.84 341.215C186.798 341.038 187.869 341.49 188.83 342.613C190.761 344.87 191.515 348.979 190.513 351.791C190.02 353.178 189.189 353.984 188.244 354.18L219.36 347.068C220.315 346.881 221.155 346.07 221.652 344.671C222.652 341.859 221.899 337.75 219.969 335.494Z" fill="white"/>
<path d="M185.618 341.266L185.623 341.291C185.686 341.271 185.746 341.236 185.809 341.223L185.618 341.266Z" fill="white"/>
<path d="M188.167 354.2L188.183 354.196H188.165L188.167 354.2Z" fill="white"/>
</g>
<g opacity="0.4">
<path d="M340.005 443.562L340.021 443.559H340.005V443.562Z" fill="white"/>
<path d="M371.809 424.858C370.888 423.781 369.867 423.338 368.94 423.456L337.68 430.579C338.638 430.402 339.709 430.854 340.671 431.978C342.601 434.234 343.355 438.343 342.353 441.155C341.86 442.542 341.03 443.348 340.085 443.544L371.201 436.433C372.156 436.246 372.994 435.434 373.492 434.035C374.492 431.223 373.738 427.115 371.809 424.858Z" fill="white"/>
<path d="M337.458 430.629L337.463 430.653C337.526 430.636 337.586 430.598 337.651 430.585L337.458 430.629Z" fill="white"/>
</g>
<path d="M337.035 433.077L324.613 436.174C314.344 438.749 303.639 437.252 294.47 431.955L180.62 366.198C177.103 364.168 177.294 360.691 177.437 359.674C177.579 358.658 178.349 355.263 182.288 354.275L187.27 353.053C188.992 351.654 188.795 344.103 185.155 343.542L179.922 344.826C173.377 346.464 168.729 351.637 167.792 358.322C166.857 365.007 169.904 371.257 175.749 374.632L289.599 440.389C297.336 444.86 305.954 447.146 314.684 447.146C318.785 447.146 322.91 446.643 326.979 445.621L339.148 442.588C340.871 441.189 340.674 433.637 337.035 433.077Z" fill="#E0E0E0"/>
<path d="M194.031 385.893V352.155L267.052 394.329V428.068L194.031 385.893Z" fill="#455A64"/>
<path d="M267.052 394.329L310.862 415.723V428.068H267.052V394.329Z" fill="#455A64"/>
<path d="M194.031 352.155L267.052 394.329L310.862 415.723L237.844 373.548L194.031 352.155Z" fill="#455A64"/>
<path opacity="0.1" d="M267.052 394.329L310.862 415.723V428.068H267.052V394.329Z" fill="white"/>
<path opacity="0.3" d="M194.031 352.155L267.052 394.329L310.862 415.723L237.844 373.548L194.031 352.155Z" fill="white"/>
<path opacity="0.2" d="M437.801 485.979C465.74 502.117 465.887 528.279 438.131 544.416C410.372 560.554 365.222 560.554 337.282 544.416C309.344 528.279 309.197 502.116 336.955 485.978C364.714 469.841 409.863 469.841 437.801 485.979Z" fill="black"/>
<path d="M384.912 303.588L391.054 276.74C382.677 277.934 374.764 281.318 368.112 286.55L336.005 311.804L358.102 318.619L384.912 303.588Z" fill="#FFA8A7"/>
<path d="M399.922 423.903L404.4 434.023C406.986 439.865 413.064 443.349 419.408 442.623L457.274 438.303C460.455 437.94 463.677 438.175 466.773 438.997L475.071 441.202V421.723L472.805 422.393C468.444 423.682 463.82 423.788 459.403 422.702L445.591 419.304C439.063 417.698 432.224 417.868 425.783 419.795L424.363 408.33L399.922 423.903Z" fill="#F28F8F"/>
<path d="M502.81 449.484C502.68 444.83 500.661 440.26 497.332 437.09C494.842 434.719 491.696 433.132 489.345 430.617C486.602 427.685 485.476 424.454 483.132 421.142C482.73 420.572 482.184 420.157 481.574 419.895C481.336 419.863 481.097 419.832 480.851 419.846C479.865 419.814 478.493 420.52 478.493 420.52L478.498 420.528C479.43 420.692 480.275 421.198 480.844 421.985C483.186 425.221 484.84 429.098 487.582 431.962C489.935 434.418 493.081 435.968 495.57 438.285C498.898 441.382 500.92 445.847 501.047 450.392C501.177 454.938 499.521 462.791 496.264 462.791C497.455 463.053 498.466 462.844 499.329 462.326C502.109 459.498 502.905 452.874 502.81 449.484Z" fill="#EBEBEB"/>
<path d="M483.133 421.142C485.474 424.454 486.6 427.685 489.345 430.617C491.698 433.131 494.843 434.719 497.332 437.09C500.662 440.262 502.682 444.83 502.81 449.484C502.904 452.875 502.109 459.498 499.331 462.326C502.86 460.206 503.829 452.701 503.726 449.047C503.596 444.5 501.577 440.037 498.248 436.94C495.758 434.623 492.612 433.072 490.261 430.617C487.518 427.753 486.39 424.596 484.049 421.36C483.453 420.538 482.555 420.031 481.573 419.895C482.184 420.157 482.73 420.572 483.133 421.142Z" fill="#455A64"/>
<path d="M471.959 421.928C471.163 422.287 470.274 422.407 469.407 422.302C469.407 422.302 466.849 422.053 466.009 421.888C464.455 421.582 464.219 423.413 464.219 423.413C464.219 423.413 465.52 423.571 467.125 423.396C467.498 424.133 468.289 424.421 469.082 424.653C469.875 424.884 470.713 424.999 471.441 425.386C472.169 425.774 472.786 426.543 472.665 427.361C472.532 428.256 471.627 428.798 471.121 429.55C470.571 430.361 470.52 431.659 470.99 432.52C470.012 431.955 468.697 432.484 468.017 433.385C467.336 434.285 467.13 435.447 466.946 436.561C466.818 437.335 466.689 438.121 466.776 438.902C466.863 439.682 467.197 440.469 467.831 440.932C468.465 441.395 469.428 441.438 470.001 440.902C472.074 444.273 481.539 445.558 486.272 451.917C491.005 458.276 492.062 462.792 496.266 462.792C499.523 462.792 501.177 454.939 501.049 450.394C500.92 445.846 498.9 441.383 495.572 438.286C493.081 435.97 489.935 434.419 487.584 431.963C484.841 429.098 483.188 425.221 480.846 421.986C480.276 421.2 479.432 420.693 478.5 420.529C478.221 420.481 477.937 420.455 477.648 420.471C476.263 420.547 474.276 420.882 471.959 421.928Z" fill="#8DC868"/>
<path d="M494.966 461.714L496.034 458.776C496.177 458.386 496.538 458.111 496.952 458.062C500.226 457.677 501.206 457.193 502.601 455.704C502.601 455.704 502.274 458.896 500.9 460.845C498.852 463.751 496.324 462.974 495.279 462.47C494.994 462.333 494.858 462.011 494.966 461.714Z" fill="#455A64"/>
<path d="M474.488 434.442C474.488 434.669 474.393 434.895 474.208 435.056C473.14 435.98 472.401 437.249 472.124 438.632C471.851 440.016 472.043 441.473 472.679 442.734C472.876 443.134 472.719 443.622 472.318 443.825C471.917 444.024 471.43 443.862 471.228 443.464C470.435 441.882 470.192 440.053 470.533 438.314C470.88 436.579 471.805 434.986 473.147 433.829C473.487 433.536 474 433.571 474.291 433.911C474.423 434.065 474.488 434.254 474.488 434.442Z" fill="#37474F"/>
<path d="M479.445 436.731C479.445 436.941 479.364 437.152 479.2 437.312C477.139 439.328 476.255 442.433 476.954 445.225C477.056 445.665 476.797 446.102 476.364 446.209C475.928 446.318 475.487 446.052 475.38 445.618C474.551 442.269 475.605 438.557 478.066 436.151C478.386 435.837 478.899 435.844 479.213 436.164C479.367 436.323 479.445 436.527 479.445 436.731Z" fill="#37474F"/>
<path d="M483.76 440.27C483.76 440.508 483.655 440.746 483.455 440.906C481.621 442.366 480.641 444.895 481.035 447.208C481.108 447.639 480.812 448.068 480.369 448.142C479.927 448.217 479.509 447.917 479.435 447.475C478.951 444.56 480.129 441.479 482.445 439.637C482.794 439.359 483.307 439.417 483.586 439.766C483.704 439.914 483.76 440.092 483.76 440.27Z" fill="#37474F"/>
<path d="M487.437 443.8C487.437 444.021 487.348 444.241 487.173 444.401C485.603 445.827 484.798 448.013 485.055 450.122C485.113 450.556 484.793 450.974 484.349 451.027C483.906 451.082 483.5 450.766 483.445 450.321C483.111 447.707 484.129 444.977 486.081 443.198C486.414 442.897 486.926 442.921 487.228 443.252C487.367 443.41 487.437 443.605 487.437 443.8Z" fill="#37474F"/>
<path d="M383.527 354.628C382.31 371.809 386.907 391.829 388.394 397.782L385.859 403.868C385.216 419.493 408.238 428.015 418.785 421.928C435.317 395.481 443.701 381.142 440.455 364.503L383.527 354.628Z" fill="#263238"/>
<path opacity="0.3" d="M389.733 395.119L399.922 374.851C391.404 372.314 384.912 362.169 384.912 362.169C386.231 370.792 394.445 376.271 394.445 376.271C388.36 385.911 389.733 395.119 389.733 395.119Z" fill="black"/>
<path d="M419.09 416.178C416.926 406.438 402.188 395.888 389.611 399.269L377.865 425.252C375.886 429.631 374.692 434.322 374.336 439.115L369.682 501.892C369.358 506.265 368.562 510.589 367.308 514.791L367.166 515.269L383.493 519.631C383.561 512.385 384.922 505.209 387.513 498.441L399.992 465.842C402.422 459.495 403.537 452.718 403.269 445.927L403.067 440.801L419.09 416.178Z" fill="#FFA8A7"/>
<path d="M357.968 547.098C362.62 546.969 367.186 544.948 370.356 541.618C372.725 539.127 374.313 535.98 376.826 533.628C379.756 530.884 382.986 529.757 386.297 527.413C386.867 527.01 387.281 526.465 387.543 525.854C387.575 525.616 387.606 525.377 387.592 525.131C387.624 524.145 386.918 522.772 386.918 522.772L386.91 522.777C386.747 523.709 386.24 524.554 385.454 525.124C382.219 527.467 378.344 529.121 375.481 531.865C373.026 534.217 371.476 537.366 369.161 539.856C366.065 543.187 361.602 545.207 357.058 545.335C352.513 545.465 344.664 543.81 344.664 540.55C344.402 541.741 344.611 542.753 345.129 543.616C347.956 546.397 354.577 547.192 357.968 547.098Z" fill="#EBEBEB"/>
<path d="M386.297 527.413C382.986 529.756 379.756 530.882 376.826 533.628C374.313 535.982 372.725 539.129 370.356 541.618C367.186 544.95 362.62 546.97 357.968 547.098C354.577 547.192 347.957 546.397 345.129 543.618C347.25 547.147 354.751 548.118 358.403 548.014C362.948 547.885 367.41 545.865 370.505 542.535C372.821 540.043 374.371 536.896 376.826 534.544C379.688 531.8 382.844 530.673 386.079 528.329C386.901 527.734 387.407 526.835 387.543 525.853C387.281 526.464 386.867 527.01 386.297 527.413Z" fill="#455A64"/>
<path d="M385.511 516.233C385.151 515.437 385.032 514.548 385.137 513.681C385.137 513.681 385.386 511.121 385.551 510.281C385.857 508.727 384.604 508.589 384.604 508.589C384.604 508.589 384.371 509.862 384.158 511.377C383.421 511.749 383.017 512.562 382.784 513.354C382.552 514.147 382.438 514.985 382.051 515.714C381.662 516.442 380.894 517.059 380.078 516.938C379.182 516.807 378.641 515.9 377.891 515.393C377.078 514.843 375.782 514.793 374.921 515.262C375.486 514.284 374.957 512.97 374.057 512.288C373.157 511.607 371.995 511.403 370.882 511.217C370.109 511.089 369.322 510.959 368.542 511.047C367.762 511.134 366.976 511.468 366.513 512.102C366.05 512.737 366.007 513.7 366.542 514.273C363.173 516.347 361.888 525.815 355.532 530.55C349.177 535.286 344.661 536.343 344.661 540.548C344.661 543.807 352.511 545.462 357.055 545.334C361.599 545.204 366.062 543.184 369.157 539.854C371.473 537.362 373.023 534.215 375.478 531.863C378.342 529.119 382.218 527.465 385.451 525.122C386.237 524.553 386.744 523.708 386.907 522.775C386.956 522.497 386.981 522.212 386.965 521.924C386.891 520.541 386.556 518.553 385.511 516.233Z" fill="#8DC868"/>
<path d="M345.741 539.25L348.678 540.319C349.069 540.461 349.343 540.822 349.391 541.237C349.776 544.511 350.26 545.492 351.749 546.888C351.749 546.888 348.558 546.561 346.61 545.187C343.705 543.137 344.482 540.608 344.985 539.563C345.123 539.279 345.445 539.143 345.741 539.25Z" fill="#455A64"/>
<path d="M373.002 518.764C372.775 518.764 372.549 518.668 372.389 518.484C371.465 517.415 370.196 516.675 368.814 516.399C367.431 516.125 365.974 516.318 364.714 516.954C364.314 517.151 363.825 516.994 363.623 516.593C363.424 516.191 363.584 515.704 363.984 515.502C365.565 514.709 367.393 514.466 369.131 514.807C370.866 515.154 372.458 516.08 373.615 517.422C373.908 517.762 373.873 518.275 373.533 518.566C373.379 518.699 373.191 518.764 373.002 518.764Z" fill="#37474F"/>
<path d="M370.714 523.722C370.504 523.722 370.293 523.641 370.135 523.478C368.12 521.416 365.016 520.532 362.225 521.231C361.785 521.333 361.348 521.074 361.241 520.64C361.133 520.205 361.398 519.764 361.832 519.656C365.18 518.827 368.89 519.881 371.295 522.343C371.609 522.664 371.602 523.177 371.282 523.491C371.123 523.645 370.918 523.722 370.714 523.722Z" fill="#37474F"/>
<path d="M367.176 528.041C366.939 528.041 366.701 527.936 366.541 527.735C365.081 525.901 362.553 524.92 360.241 525.315C359.811 525.388 359.382 525.092 359.307 524.648C359.233 524.206 359.532 523.789 359.974 523.714C362.888 523.23 365.968 524.409 367.809 526.725C368.088 527.075 368.029 527.588 367.68 527.867C367.534 527.985 367.354 528.041 367.176 528.041Z" fill="#37474F"/>
<path d="M363.647 531.719C363.427 531.719 363.207 531.63 363.047 531.454C361.621 529.885 359.437 529.077 357.328 529.335C356.895 529.393 356.477 529.073 356.424 528.629C356.369 528.186 356.684 527.779 357.129 527.724C359.743 527.391 362.471 528.409 364.249 530.361C364.55 530.695 364.526 531.206 364.196 531.509C364.037 531.65 363.843 531.719 363.647 531.719Z" fill="#37474F"/>
<path d="M426.391 275.417C418.75 274.719 407.417 274.655 399.765 275.223C395.815 275.518 391.753 276.018 388.305 277.97C383.616 280.625 380.674 285.684 379.374 290.916C378.075 296.148 378.212 301.615 378.358 307.004C378.834 324.576 380.145 339.588 382.04 357.063C399.492 367.15 422.565 371.924 441.949 366.397C442.226 343.717 441.105 319.759 436.533 297.542C434.88 289.509 432.548 280.831 426.391 275.417Z" fill="#455A64"/>
<path opacity="0.3" d="M426.391 275.417C418.75 274.719 407.417 274.655 399.765 275.223C395.815 275.518 391.753 276.018 388.305 277.97C383.616 280.625 380.674 285.684 379.374 290.916C378.075 296.148 378.212 301.615 378.358 307.004C378.834 324.576 380.145 339.588 382.04 357.063C399.492 367.15 422.565 371.924 441.949 366.397C442.226 343.717 441.105 319.759 436.533 297.542C434.88 289.509 432.548 280.831 426.391 275.417Z" fill="white"/>
<path d="M479.153 320.531C479.603 315.662 477.586 310.902 473.782 307.83L441.585 281.83C437.223 278.307 431.957 276.084 426.39 275.416L423.237 275.176C420.353 277.838 419.089 296.865 432.07 304.576L460.062 320.939L459.791 356.927L450.218 367.861C449.498 368.683 449.767 369.975 450.755 370.44C451.877 370.968 453.205 370.807 454.17 370.022L457.291 367.479C455.361 371.099 453.678 375.233 451.747 378.853C451.349 379.599 450.938 380.413 451.063 381.25C451.17 381.971 451.673 382.589 452.293 382.971C452.912 383.353 453.637 383.526 454.359 383.624C456.867 383.96 459.453 383.428 461.725 382.312C463.995 381.197 465.961 379.515 467.586 377.574C470.649 373.911 472.525 369.268 472.866 364.504C476.261 348.471 478.23 330.537 479.153 320.531Z" fill="#FFA8A7"/>
<path d="M393.972 268.524V271.448C393.972 273.59 393.436 275.662 392.805 277.703C392.542 278.558 392.558 279.532 392.86 280.34C393.407 281.794 394.746 282.837 396.204 283.295C397.662 283.753 399.231 283.69 400.738 283.44C405.167 282.705 409.319 280.347 412.264 276.891L411.596 256.959L393.972 268.524Z" fill="#FFA8A7"/>
<path opacity="0.2" d="M408.029 265.612C409.539 263.182 410.241 260.383 410.714 257.541L393.974 268.526V271.45C393.974 272.304 393.872 273.148 393.729 273.983C396.089 273.551 398.408 272.911 400.581 271.906C403.571 270.52 406.288 268.413 408.029 265.612Z" fill="black"/>
<path d="M375.466 236.203C373.047 236.285 370.609 235.492 368.699 234.003C367.608 233.151 366.696 232.078 366.019 230.87C365.437 229.831 366.398 228.597 367.57 228.814C368.893 229.059 370.269 229.075 371.563 228.856C368.498 224.866 367.133 219.702 367.848 214.761C368.018 213.583 369.317 212.9 370.387 213.424C375.847 216.108 382.033 217.432 388.085 217.002C391.337 216.77 394.543 216.082 397.792 215.833C401.043 215.584 404.433 215.807 407.338 217.287C410.243 218.768 412.56 221.717 412.553 224.979C413.322 223.874 414.443 223.288 415.78 223.113C417.115 222.94 418.518 223.354 419.544 224.227C417.664 225.258 415.827 226.302 413.947 227.333C415.874 226.645 418.3 228.151 419.259 229.959C420.219 231.767 420.267 233.902 420.293 235.949C420.329 238.668 420.363 241.404 419.928 244.09C419.492 246.774 418.557 249.432 416.842 251.543C415.398 253.317 413.426 254.656 411.243 255.337C408.304 256.257 405.087 255.978 402.152 255.048C399.216 254.117 396.519 252.566 393.909 250.929C387.379 246.84 381.122 241.436 375.466 236.203Z" fill="#263238"/>
<path d="M375.055 230.781C373.172 241.975 374.429 253.68 378.644 264.218C379.625 266.668 380.894 269.206 383.183 270.514C385.585 271.885 388.556 271.6 391.29 271.187C395.694 270.524 400.131 269.617 404.094 267.584C408.057 265.551 411.539 262.255 412.956 258.031C415.871 258.729 418.914 257.382 420.717 254.988C422.52 252.593 423.167 249.505 423.233 246.508C423.276 244.59 422.881 242.324 421.157 241.478C419.555 240.693 417.631 241.574 416.245 242.697C413.976 244.536 412.283 247.076 411.461 249.879C410.194 245.205 408.22 240.695 406.953 236.021C406.454 234.184 405.838 232.18 404.236 231.154C402.275 229.897 399.718 230.619 397.459 231.179C390.566 232.886 381.837 232.894 375.055 230.781Z" fill="#FFA8A7"/>
<path d="M388.675 244.969L383.212 254.169L389.726 255.392L388.675 244.969Z" fill="#F28F8F"/>
<path d="M396.004 258.563C394.354 259.366 392.705 260.168 391.054 260.971C391.774 262.096 393.588 262.585 394.807 262.037C396.025 261.49 396.367 259.849 396.004 258.563Z" fill="#F28F8F"/>
<path opacity="0.3" d="M396.004 258.563C394.354 259.366 392.705 260.168 391.054 260.971C391.774 262.096 393.588 262.585 394.807 262.037C396.025 261.49 396.367 259.849 396.004 258.563Z" fill="black"/>
<path d="M393.09 262.201C393.685 262.306 394.299 262.268 394.808 262.039C395.765 261.61 396.172 260.506 396.132 259.43C395.43 259.433 394.726 259.663 394.181 260.108C393.554 260.621 393.169 261.395 393.09 262.201Z" fill="#F28F8F"/>
<path d="M398.108 245.334C398.211 246.362 397.462 247.28 396.435 247.384C395.407 247.487 394.49 246.738 394.386 245.71C394.282 244.682 395.032 243.764 396.059 243.66C397.088 243.557 398.006 244.306 398.108 245.334Z" fill="#263238"/>
<path d="M382.42 246.307C382.523 247.335 381.774 248.253 380.747 248.357C379.719 248.46 378.802 247.711 378.698 246.683C378.594 245.655 379.344 244.737 380.371 244.633C381.399 244.528 382.316 245.278 382.42 246.307Z" fill="#263238"/>
<path d="M379.861 239.078C378.581 240.167 377.301 241.258 376.023 242.348C375.517 241.41 375.782 240.099 376.534 239.345C377.288 238.592 378.924 238.573 379.861 239.078Z" fill="#263238"/>
<path d="M395.779 237.248C397.25 238.061 398.721 238.874 400.194 239.686C400.503 238.667 399.982 237.435 399.093 236.845C398.203 236.256 396.598 236.565 395.779 237.248Z" fill="#263238"/>
<path d="M397.004 346.557C396.979 346.115 396.94 345.675 396.885 345.236C395.935 337.618 390.247 331.429 382.897 329.221L358.814 314.613L342.664 306.567L335.994 311.814C334.505 312.984 333.394 314.567 332.798 316.364C331.138 321.363 333.787 326.772 338.753 328.523L377.586 342.217C380.19 344.734 381.614 348.315 382.188 351.891C382.358 352.953 382.431 354.046 382.819 355.048C383.774 357.513 386.619 358.959 389.245 358.658C391.872 358.357 394.176 356.537 395.474 354.233C396.771 351.927 397.155 349.197 397.004 346.557Z" fill="#FFA8A7"/>
<path d="M384.033 329.229C384.033 329.218 384.033 329.206 384.033 329.195V326.869H382.308V327.736L378.575 325.591C377.798 325.145 376.844 325.146 376.068 325.595L369.969 329.117V328.099L368.312 328.241V330.556C368.312 330.838 368.452 331.12 368.732 331.282L373.754 334.183C374.531 334.631 375.489 334.631 376.266 334.183L383.617 329.936C383.886 329.781 384.02 329.515 384.031 329.245H384.033V329.229Z" fill="#8DC868"/>
<path d="M376.085 323.67L369.845 327.273C369.371 327.547 369.371 328.233 369.845 328.507L374.115 330.974C374.775 331.356 375.589 331.356 376.251 330.974L382.501 327.364C382.976 327.089 382.975 326.403 382.499 326.131L378.214 323.668C377.555 323.288 376.743 323.289 376.085 323.67Z" fill="#8DC868"/>
<path opacity="0.3" d="M384.033 329.229C384.033 329.218 384.033 329.206 384.033 329.195V326.869H382.308V327.736L378.575 325.591C377.798 325.145 376.844 325.146 376.068 325.595L369.969 329.117V328.099L368.312 328.241V330.556C368.312 330.838 368.452 331.12 368.732 331.282L373.754 334.183C374.531 334.631 375.489 334.631 376.266 334.183L383.617 329.936C383.886 329.781 384.02 329.515 384.031 329.245H384.033V329.229Z" fill="black"/>
<path d="M376.068 323.28L368.731 327.518C368.173 327.84 368.173 328.646 368.731 328.968L373.754 331.869C374.531 332.318 375.489 332.318 376.265 331.869L383.617 327.623C384.175 327.301 384.175 326.493 383.615 326.171L378.576 323.275C377.799 322.831 376.845 322.831 376.068 323.28Z" fill="#8DC868"/>
<path opacity="0.5" d="M376.085 323.67L369.845 327.273C369.371 327.547 369.371 328.233 369.845 328.507L374.115 330.974C374.775 331.356 375.589 331.356 376.251 330.974L382.501 327.364C382.976 327.089 382.975 326.403 382.499 326.131L378.214 323.668C377.555 323.288 376.743 323.289 376.085 323.67Z" fill="white"/>
<path d="M373.311 340.706C372.326 339.78 371.795 334.734 373.755 333.108L368.732 330.207C367.154 332.272 367.525 336.666 368.432 338.914C368.643 339.434 369.08 339.816 369.611 339.999C370.578 340.331 372.208 340.886 372.902 341.108C373.612 341.334 374.094 340.982 374.094 340.982L373.311 340.706Z" fill="#455A64"/>
</svg>
