<svg width="712" height="689" viewBox="0 0 712 689" fill="none" xmlns="http://www.w3.org/2000/svg">
<path d="M104.742 338.157C-34.1534 418.306 -34.1488 548.251 104.75 628.4C243.649 708.548 468.848 708.548 607.742 628.4C746.638 548.251 746.633 418.306 607.734 338.157C468.835 258.009 243.638 258.009 104.742 338.157Z" fill="#FAFAFA"/>
<path d="M41.9854 333.702L46.0281 336.11L179.429 259.133L175.389 256.723L41.9854 333.702Z" fill="#FAFAFA"/>
<path d="M175.389 256.723L46.0295 331.359V93.7599L175.39 19.1519L175.389 256.723Z" fill="white"/>
<path d="M187.06 3.57959L38.4011 89.3593V349.313L187.058 263.532L187.06 3.57959ZM179.428 259.134L46.028 336.112L46.0295 93.7602L179.43 16.7822L179.428 259.134Z" fill="#F0F0F0"/>
<path d="M179.428 259.133L175.389 256.723L175.39 19.1518L179.43 16.7817L179.428 259.133Z" fill="#E0E0E0"/>
<path d="M46.0281 248.786V253.528L179.429 176.55L175.389 174.139L46.0281 248.786Z" fill="#FAFAFA"/>
<path d="M46.0281 162.827V167.569L179.429 90.5909L175.389 88.1816L46.0281 162.827Z" fill="#FAFAFA"/>
<path d="M187.06 3.5794L182.954 1.23047L34.2981 87.0117L38.4011 89.3591L187.06 3.5794Z" fill="#FAFAFA"/>
<path d="M34.2981 87.0117L38.4011 89.3591V349.313L34.2981 346.964V87.0117Z" fill="#E0E0E0"/>
<path d="M104.827 59.8314L108.93 57.4629V299.828L104.827 297.479V59.8314Z" fill="#E0E0E0"/>
<path d="M116.558 53.082L108.93 57.4633V299.828L116.557 295.413L116.558 53.082Z" fill="#F0F0F0"/>
<path d="M187.058 86.1914V94.9811L38.4011 180.762V171.971L187.058 86.1914Z" fill="#F0F0F0"/>
<path d="M187.058 172.129V180.921L38.4011 266.7V257.909L187.058 172.129Z" fill="#F0F0F0"/>
<path d="M108.93 131.272L104.827 128.899L46.0281 162.827V167.569L108.93 131.272Z" fill="#FAFAFA"/>
<path d="M108.93 217.183L104.827 214.81L46.0281 248.74V253.48L108.93 217.183Z" fill="#FAFAFA"/>
<path d="M602.945 98.3553L600.297 99.9323L545.991 68.5941L548.637 67.0171L602.945 98.3553Z" fill="#FAFAFA"/>
<path d="M548.637 67.0174L600.298 96.8208L600.296 42.7516L548.635 12.9663L548.637 67.0174Z" fill="white"/>
<path d="M540.995 71.4751L605.292 108.577V39.87L540.995 2.76807V71.4751ZM545.989 11.413L600.296 42.7497L600.297 99.9306L545.991 68.594L545.989 11.413Z" fill="#F0F0F0"/>
<path d="M545.991 68.5941L548.637 67.017L548.635 12.966L545.989 11.4131L545.991 68.5941Z" fill="#E0E0E0"/>
<path d="M540.995 2.76828L543.683 1.23047L607.978 38.3324L605.292 39.8703L540.995 2.76828Z" fill="#FAFAFA"/>
<path d="M607.979 38.3325L605.292 39.8703V108.576L607.979 107.04V38.3325Z" fill="#E0E0E0"/>
<path d="M550.653 65.4009L598.28 92.884V79.1417L586.372 51.6601L578.954 58.5305L581.622 70.049L565.177 34.8979L550.653 51.6601V65.4009Z" fill="#F0F0F0"/>
<path d="M579.403 38.3898C581.349 39.513 582.925 42.2434 582.925 44.4883C582.925 46.7332 581.348 47.6438 579.403 46.5206C577.457 45.3974 575.881 42.6685 575.881 40.4221C575.881 38.1772 577.457 37.2666 579.403 38.3898Z" fill="#F0F0F0"/>
<path d="M679.992 173.477L677.344 175.054L623.038 143.716L625.683 142.138L679.992 173.477Z" fill="#FAFAFA"/>
<path d="M625.684 142.138L677.344 171.943L677.343 117.874L625.682 88.0884L625.684 142.138Z" fill="white"/>
<path d="M618.042 146.596L682.337 183.698V114.991L618.04 77.8887L618.042 146.596ZM623.036 86.5351L677.343 117.872L677.344 175.053L623.038 143.716L623.036 86.5351Z" fill="#F0F0F0"/>
<path d="M623.038 143.716L625.684 142.138L625.682 88.088L623.036 86.5352L623.038 143.716Z" fill="#E0E0E0"/>
<path d="M618.042 77.8904L620.728 76.3525L685.025 113.455L682.339 114.992L618.042 77.8904Z" fill="#FAFAFA"/>
<path d="M685.026 113.455L682.339 114.992L682.337 183.698L685.026 182.162V113.455Z" fill="#E0E0E0"/>
<path d="M627.699 140.522L675.326 168.005V154.264L663.418 126.781L656.001 133.651L658.669 145.17L642.224 110.019L627.699 126.781V140.522Z" fill="#F0F0F0"/>
<path d="M656.449 113.51C658.395 114.632 659.971 117.364 659.971 119.609C659.971 121.854 658.393 122.764 656.449 121.641C654.503 120.518 652.926 117.789 652.926 115.543C652.926 113.298 654.504 112.389 656.449 113.51Z" fill="#F0F0F0"/>
<path d="M640.519 388.537C640.411 388.552 640.299 388.547 640.187 388.522L630.606 386.254C630.339 386.191 630.121 386.007 630.031 385.767C629.943 385.538 621.604 362.566 639.373 331.424C652.053 309.204 671.897 294.76 684.544 298.555C689.714 300.105 693.307 303.47 694.402 307.788C695.619 312.579 693.693 317.826 689.255 321.818C688.262 322.711 686.718 323.922 684.758 325.455C672.647 334.941 644.283 357.155 641.216 387.854C641.195 388.077 641.067 388.277 640.869 388.407C640.765 388.475 640.644 388.52 640.519 388.537ZM631.467 384.884L639.667 386.824C643.244 355.971 671.539 333.809 683.689 324.292C685.621 322.779 687.149 321.582 688.1 320.727C692.123 317.11 693.875 312.402 692.794 308.133C691.819 304.292 688.709 301.403 684.034 300.001C672.129 296.437 653.156 310.549 640.839 332.132C624.673 360.472 630.485 381.801 631.467 384.884Z" fill="#BA68C8"/>
<path d="M635.076 387.248C635.04 387.252 635.002 387.257 634.965 387.255C634.509 387.265 634.131 386.93 634.125 386.508C633.416 350.651 660.366 316.106 678.499 308.991C678.922 308.824 679.406 309.006 679.585 309.394C679.763 309.781 679.569 310.229 679.149 310.394C661.218 317.427 635.107 352.475 635.778 386.481C635.784 386.866 635.479 387.191 635.076 387.248Z" fill="#BA68C8"/>
<path d="M630.938 386.269C630.82 386.286 630.696 386.28 630.574 386.245L624.077 384.436C623.815 384.362 623.609 384.177 623.526 383.937C623.41 383.596 611.955 349.338 620.396 303.191C624.696 279.684 639.575 256.754 655.776 248.667C663.567 244.783 671.221 244.295 678.533 247.224C682.666 248.881 685.253 251.322 686.223 254.481C688.904 263.211 679.061 276.209 668.642 289.971C661.35 299.597 653.812 309.552 650.373 318.343C650.217 318.74 649.742 318.942 649.314 318.802C648.884 318.659 648.661 318.223 648.816 317.826C652.329 308.845 659.932 298.806 667.284 289.096C677.474 275.639 687.101 262.931 684.632 254.894C683.793 252.16 681.582 250.107 677.872 248.62C671.056 245.887 663.886 246.35 656.567 250.007C640.776 257.888 626.252 280.361 622.029 303.445C614.13 346.62 623.762 379.232 624.984 383.096L631.054 384.787C631.49 384.908 631.739 385.335 631.606 385.737C631.509 386.027 631.242 386.226 630.938 386.269Z" fill="#BA68C8"/>
<path d="M629.328 364.451C629.308 364.454 629.289 364.457 629.269 364.457C628.813 364.49 628.415 364.178 628.378 363.759C623.481 308.291 657.082 263.878 667.023 256.255C667.373 255.988 667.897 256.029 668.188 256.353C668.48 256.676 668.434 257.157 668.082 257.427C658.285 264.939 625.183 308.769 630.028 363.637C630.062 364.038 629.753 364.391 629.328 364.451Z" fill="#BA68C8"/>
<path d="M418.128 384.564L444.611 399.846L227.351 524.9L190.3 503.52C175.093 503.52 162.944 503.522 147.737 503.522L73.6738 546.268C73.6753 562.64 73.6753 566.733 73.6753 583.105L195.034 653.133C210.241 653.131 222.39 653.131 237.597 653.131L311.658 610.385C311.657 594.013 311.657 589.92 311.657 573.548L285.239 558.304L502.498 433.25L539.506 454.604C554.738 454.591 566.9 454.579 582.134 454.565L648.606 416.043C648.591 399.688 648.587 395.579 648.572 379.226L527.192 309.185C511.96 309.198 499.798 309.21 484.564 309.224L418.092 347.746C418.108 364.103 418.113 368.211 418.128 384.564Z" fill="#E0E0E0"/>
<path d="M590.333 549.793C609.082 549.793 624.281 541.023 624.281 530.204C624.281 519.386 609.082 510.615 590.333 510.615C571.583 510.615 556.384 519.386 556.384 530.204C556.384 541.023 571.583 549.793 590.333 549.793Z" fill="#E0E0E0"/>
<path d="M477.716 417.385L473.554 407.725L540.045 401.79L568.175 409.31L477.716 417.385Z" fill="#37474F"/>
<path d="M540.044 313.183V401.79L568.174 409.31L568.168 299.688L540.044 313.183Z" fill="#455A64"/>
<path d="M473.554 230.513L492.458 205.557L568.169 299.688L540.045 313.183L473.554 230.513Z" fill="#37474F"/>
<path d="M407.065 236.449L402 213.632L492.458 205.557L473.554 230.513L407.065 236.449Z" fill="#263238"/>
<path d="M402 213.632V324.777L477.716 417.385L473.554 407.725L407.065 325.054V236.449L402 213.632Z" fill="black"/>
<path d="M407.065 325.054V236.449L473.554 230.513L540.045 313.183V401.789L473.554 407.725L407.065 325.054Z" fill="#455A64"/>
<path d="M568.174 409.31L620.657 379.026L620.653 269.404L568.168 299.688L568.174 409.31Z" fill="#455A64"/>
<path d="M492.458 205.557L568.168 299.688L620.653 269.404L544.941 175.271L492.458 205.557Z" fill="#37474F"/>
<path d="M402 213.632L454.482 183.348L544.941 175.271L492.458 205.557L402 213.632Z" fill="#263238"/>
<path opacity="0.2" d="M568.175 409.31C568.568 391.04 569.247 372.77 569.406 354.5C569.647 336.23 569.998 317.959 570.006 299.689L570.007 299.046L569.6 298.537L531.894 251.352L493.811 204.469L493.215 203.734L492.303 203.826C462.182 206.873 432.074 210.062 402 213.631C431.917 211.835 461.8 209.663 491.671 207.353L528.733 253.89L566.339 300.345C566.357 318.396 566.698 336.446 566.938 354.499C567.098 372.77 567.778 391.04 568.175 409.31Z" fill="black"/>
<path d="M544.941 175.271L566.972 179.58L630.005 257.951L620.653 269.404L544.941 175.271Z" fill="#37474F"/>
<path d="M630.01 349.219L620.657 379.026L620.653 269.404L630.005 257.952L630.01 349.219Z" fill="#455A64"/>
<g opacity="0.2">
<path d="M620.657 379.026C621.36 360.756 621.93 342.484 622.188 324.216C622.596 305.945 622.505 287.675 622.688 269.405L622.694 268.695L622.238 268.128C609.615 252.444 596.881 236.847 584.083 221.303C571.228 205.808 558.196 190.449 544.941 175.271C556.923 191.471 569.129 207.492 581.509 223.37C593.948 239.202 606.452 254.984 619.064 270.678L618.616 269.405C618.8 287.675 618.711 305.945 619.122 324.216C619.38 342.484 619.953 360.756 620.657 379.026Z" fill="black"/>
</g>
<path opacity="0.1" d="M407.065 236.449L471.795 234.878L535.412 314.897L536.291 399.248L473.554 407.725L540.045 401.79V313.183L473.554 230.514L407.065 236.449Z" fill="white"/>
<path d="M588.035 370.727C587.693 371.154 587.314 371.451 586.892 371.629C586.477 371.805 586.136 371.822 585.875 371.674L576.467 366.501C576.242 366.37 575.981 366.194 575.675 365.995C575.369 365.794 575.216 365.444 575.216 364.954V358.934C575.216 358.574 575.369 358.173 575.675 357.734C575.981 357.296 576.342 356.952 576.755 356.717L613.571 335.469C613.986 335.229 614.345 335.156 614.651 335.243C614.957 335.33 615.1 335.56 615.1 335.92V342.382C615.1 342.747 614.956 343.137 614.651 343.576C614.345 344.019 613.984 344.354 613.571 344.593L588.666 358.964L593.798 361.874C594.059 362.024 594.158 362.295 594.104 362.687C594.05 363.077 593.852 363.486 593.51 363.913L588.035 370.727Z" fill="#263238"/>
<path d="M574.646 337.705C574.646 335.24 575.061 332.885 575.898 330.623C576.735 328.36 577.852 326.25 579.256 324.273C580.669 322.291 582.308 320.472 584.19 318.808C586.071 317.149 588.035 315.679 590.087 314.395C591.716 313.391 593.436 312.361 595.21 311.339C597.002 310.306 598.676 309.373 600.234 308.538C602.287 307.451 604.25 306.658 606.132 306.145C608.006 305.645 609.653 305.56 611.058 305.919C612.462 306.273 613.587 307.093 614.415 308.396C615.253 309.688 615.676 311.562 615.676 314.029C615.676 316.494 615.253 318.859 614.415 321.121C613.587 323.373 612.462 325.494 611.058 327.471C609.653 329.452 608.006 331.272 606.132 332.926C604.251 334.589 602.287 336.057 600.234 337.343C598.676 338.308 597.002 339.309 595.21 340.343C593.436 341.364 591.716 342.327 590.087 343.2C588.034 344.287 586.071 345.08 584.19 345.588C582.309 346.1 580.669 346.178 579.256 345.825C577.852 345.471 576.735 344.64 575.898 343.348C575.061 342.054 574.646 340.171 574.646 337.705ZM599.948 317.829C596.715 319.566 593.528 321.404 590.367 323.361C589.431 323.964 588.548 324.596 587.747 325.241C586.955 325.88 586.261 326.565 585.667 327.304C585.082 328.038 584.614 328.834 584.272 329.689C583.929 330.542 583.768 331.459 583.768 332.443C583.768 333.428 583.931 334.159 584.272 334.619C584.614 335.079 585.082 335.335 585.667 335.394C586.261 335.446 586.955 335.338 587.747 335.082C588.548 334.813 589.431 334.421 590.367 333.916C593.528 332.253 596.715 330.42 599.948 328.385C600.902 327.801 601.776 327.189 602.568 326.553C603.369 325.912 604.054 325.22 604.648 324.468C605.242 323.709 605.701 322.91 606.043 322.055C606.386 321.201 606.556 320.279 606.556 319.295C606.556 318.309 606.386 317.585 606.043 317.125C605.701 316.666 605.242 316.394 604.648 316.329C604.054 316.26 603.369 316.361 602.568 316.637C601.774 316.913 600.901 317.308 599.948 317.829Z" fill="#263238"/>
<path d="M229.177 506.919C223.879 509.975 216.561 509.535 208.477 504.87C192.311 495.54 179.204 472.852 179.204 454.194C179.204 444.865 182.48 438.31 187.778 435.252C190.994 433.396 433.103 293.691 436.32 291.835C441.618 288.779 448.937 289.22 457.02 293.884C473.187 303.214 486.293 325.902 486.293 344.56C486.293 353.89 483.015 360.444 477.719 363.501C474.501 365.356 232.393 505.061 229.177 506.919Z" fill="#F0F0F0"/>
<path d="M179.204 454.193C179.204 444.863 182.48 438.308 187.778 435.252C193.076 432.196 200.393 432.638 208.477 437.302C224.645 446.632 237.751 469.321 237.751 487.979C237.751 497.309 234.474 503.864 229.177 506.92C223.879 509.976 216.561 509.534 208.477 504.87C192.309 495.539 179.204 472.85 179.204 454.193Z" fill="#FAFAFA"/>
<path d="M295.276 469.146L305.146 463.45C310.388 460.426 313.739 453.834 313.696 444.543C313.74 425.89 300.623 403.184 284.438 393.891C276.41 389.212 269.024 388.816 263.783 391.841L253.913 397.537C259.156 394.511 266.542 394.907 274.57 399.587C290.756 408.879 303.872 431.586 303.828 450.239C303.869 459.53 300.52 466.12 295.276 469.146Z" fill="#E0E0E0"/>
<path d="M430.535 390.613L440.405 384.917C445.647 381.893 448.996 375.302 448.955 366.01C448.999 347.357 435.881 324.652 419.695 315.359C411.667 310.679 404.282 310.284 399.038 313.308L389.168 319.004C394.412 315.978 401.797 316.375 409.826 321.054C426.01 330.346 439.128 353.053 439.084 371.706C439.128 380.998 435.779 387.587 430.535 390.613Z" fill="#E0E0E0"/>
<path d="M337.705 444.179L397.141 409.883C402.383 406.857 405.731 400.267 405.691 390.975C405.734 372.322 392.617 349.617 376.432 340.324C368.404 335.644 361.019 335.249 355.775 338.273L296.34 372.57C301.583 369.544 308.969 369.94 316.997 374.62C333.181 383.913 346.299 406.619 346.257 425.271C346.298 434.563 342.949 441.155 337.705 444.179Z" fill="#E0E0E0"/>
<path d="M141.165 611.595L137.004 601.936L203.495 596L231.623 603.52L141.165 611.595Z" fill="#37474F"/>
<path d="M203.495 507.395V596L231.623 603.52L231.619 493.9L203.495 507.395Z" fill="#455A64"/>
<path d="M137.004 424.724L155.908 399.768L231.619 493.9L203.495 507.395L137.004 424.724Z" fill="#37474F"/>
<path d="M70.5137 430.66L65.4497 407.843L155.908 399.768L137.004 424.724L70.5137 430.66Z" fill="#263238"/>
<path d="M65.4497 407.843V518.987L141.165 611.595L137.004 601.936L70.5137 519.266V430.66L65.4497 407.843Z" fill="black"/>
<path d="M70.5137 519.266V430.659L137.004 424.724L203.495 507.395V596L137.004 601.935L70.5137 519.266Z" fill="#455A64"/>
<path d="M231.623 603.52L284.106 573.236L284.102 463.614L231.619 493.9L231.623 603.52Z" fill="#455A64"/>
<path d="M155.908 399.768L231.619 493.9L284.102 463.614L208.391 369.482L155.908 399.768Z" fill="#37474F"/>
<path d="M65.4497 407.843L117.933 377.558L208.391 369.482L155.908 399.768L65.4497 407.843Z" fill="#263238"/>
<path opacity="0.2" d="M231.623 603.52C232.017 585.25 232.696 566.98 232.854 548.711C233.096 530.441 233.447 512.17 233.455 493.9L233.456 493.256L233.049 492.748L195.343 445.563L157.26 398.679L156.664 397.945L155.752 398.037C125.63 401.084 95.5227 404.272 65.4482 407.841C95.3658 406.045 125.249 403.873 155.12 401.563L192.181 448.1L229.787 494.556C229.806 512.607 230.148 530.656 230.386 548.709C230.548 566.98 231.228 585.25 231.623 603.52Z" fill="black"/>
<path d="M208.391 369.482L230.421 373.791L293.456 452.162L284.102 463.614L208.391 369.482Z" fill="#37474F"/>
<path d="M293.46 543.43L284.106 573.236L284.102 463.614L293.456 452.162L293.46 543.43Z" fill="#455A64"/>
<g opacity="0.2">
<path d="M284.106 573.236C284.809 554.966 285.379 536.695 285.637 518.427C286.044 500.155 285.954 481.885 286.136 463.616L286.143 462.906L285.685 462.339C273.063 446.654 260.328 431.058 247.53 415.514C234.673 400.018 221.643 384.66 208.388 369.482C220.37 385.682 232.577 401.702 244.957 417.581C257.395 433.413 269.899 449.195 282.512 464.888L282.064 463.616C282.248 481.885 282.159 500.155 282.569 518.427C282.83 536.695 283.403 554.966 284.106 573.236Z" fill="black"/>
</g>
<path opacity="0.1" d="M70.5137 430.66L135.245 429.089L198.861 509.108L199.742 593.458L137.004 601.936L203.495 596V507.395L137.004 424.724L70.5137 430.66Z" fill="white"/>
<path d="M251.469 564.946C251.126 565.372 250.749 565.669 250.326 565.847C249.911 566.023 249.57 566.04 249.309 565.892L239.9 560.72C239.676 560.588 239.415 560.412 239.108 560.213C238.802 560.012 238.65 559.663 238.65 559.173V553.153C238.65 552.792 238.802 552.391 239.108 551.952C239.415 551.514 239.775 551.17 240.189 550.935L277.006 529.687C277.419 529.448 277.78 529.374 278.086 529.461C278.392 529.549 278.537 529.778 278.537 530.138V536.6C278.537 536.965 278.392 537.355 278.086 537.794C277.78 538.237 277.419 538.572 277.006 538.812L252.101 553.183L257.233 556.093C257.494 556.242 257.593 556.513 257.539 556.905C257.485 557.296 257.287 557.704 256.945 558.131L251.469 564.946Z" fill="#263238"/>
<path d="M238.08 531.925C238.08 529.46 238.494 527.105 239.332 524.842C240.169 522.58 241.285 520.468 242.689 518.491C244.103 516.509 245.741 514.691 247.624 513.026C249.505 511.368 251.469 509.899 253.522 508.613C255.151 507.611 256.871 506.579 258.645 505.557C260.437 504.524 262.111 503.59 263.669 502.756C265.722 501.669 267.685 500.876 269.567 500.363C271.441 499.863 273.088 499.778 274.493 500.137C275.897 500.491 277.022 501.312 277.851 502.614C278.688 503.906 279.112 505.78 279.112 508.247C279.112 510.712 278.688 513.077 277.851 515.339C277.022 517.591 275.897 519.713 274.493 521.689C273.088 523.67 271.441 525.491 269.567 527.144C267.686 528.807 265.722 530.277 263.669 531.561C262.111 532.526 260.437 533.527 258.645 534.562C256.871 535.582 255.151 536.546 253.522 537.419C251.469 538.506 249.506 539.299 247.624 539.807C245.743 540.318 244.103 540.396 242.689 540.043C241.285 539.689 240.169 538.858 239.332 537.566C238.494 536.274 238.08 534.39 238.08 531.925ZM263.381 512.048C260.149 513.785 256.961 515.624 253.801 517.579C252.864 518.182 251.982 518.814 251.181 519.461C250.389 520.1 249.695 520.785 249.101 521.523C248.515 522.258 248.048 523.054 247.705 523.908C247.363 524.762 247.201 525.678 247.201 526.664C247.201 527.65 247.363 528.38 247.705 528.84C248.048 529.3 248.515 529.556 249.101 529.613C249.695 529.666 250.389 529.559 251.181 529.301C251.982 529.033 252.864 528.641 253.801 528.136C256.961 526.473 260.149 524.64 263.381 522.606C264.336 522.022 265.209 521.41 266.001 520.774C266.802 520.133 267.487 519.441 268.082 518.689C268.676 517.931 269.135 517.132 269.477 516.278C269.819 515.425 269.99 514.502 269.99 513.518C269.99 512.532 269.819 511.808 269.477 511.347C269.135 510.887 268.676 510.615 268.082 510.551C267.487 510.481 266.802 510.582 266.001 510.858C265.208 511.131 264.335 511.528 263.381 512.048Z" fill="#263238"/>
<path d="M608.826 446.257C607.722 445.617 606.541 445.052 605.301 444.554C603.008 443.636 601.462 441.471 601.466 439.003L601.477 432.234L579.363 432.201L579.352 438.97C579.349 441.44 577.795 443.599 575.501 444.511C574.259 445.004 573.077 445.566 571.971 446.202C566.877 449.132 564.328 452.978 564.323 456.827L564.224 524.801C564.218 528.65 566.756 532.504 571.841 535.447C582.01 541.334 598.511 541.358 608.698 535.501C613.791 532.572 616.341 528.727 616.347 524.878L616.447 456.902C616.45 453.053 613.911 449.2 608.826 446.257Z" fill="#8DC868"/>
<path opacity="0.2" d="M608.826 446.257C607.722 445.617 606.541 445.052 605.301 444.554C603.008 443.636 601.462 441.471 601.466 439.003L601.477 432.234L579.363 432.201L579.352 438.97C579.349 441.44 577.795 443.599 575.501 444.511C574.259 445.004 573.077 445.566 571.971 446.202C566.877 449.132 564.328 452.978 564.323 456.827L564.224 524.801C564.218 528.65 566.756 532.504 571.841 535.447C582.01 541.334 598.511 541.358 608.698 535.501C613.791 532.572 616.341 528.727 616.347 524.878L616.447 456.902C616.45 453.053 613.911 449.2 608.826 446.257Z" fill="black"/>
<path opacity="0.6" d="M613.011 471.828C612.656 461.17 570.208 462.322 567.695 471.356L567.616 524.806C567.612 527.518 569.772 530.33 573.54 532.511C577.951 535.065 583.89 536.478 590.266 536.487C596.642 536.496 602.586 535.101 607.004 532.56C610.778 530.389 612.946 527.583 612.95 524.87L613.011 471.828Z" fill="#8DC868"/>
<path opacity="0.2" d="M573.432 534.602C564.132 529.271 564.144 520.649 573.46 515.345C582.777 510.041 597.867 510.064 607.167 515.395C616.467 520.726 616.455 529.348 607.14 534.652C597.824 539.956 582.731 539.934 573.432 534.602Z" fill="black"/>
<path opacity="0.15" d="M603.578 439.355C598.787 436.58 592.017 435.632 585.87 436.519L585.876 432.21L579.363 432.201L579.354 438.284L579.352 438.967C579.348 441.44 577.795 443.596 575.496 444.511C574.263 445.008 573.078 445.563 571.97 446.201C571.926 446.222 571.89 446.252 571.844 446.273C566.833 449.193 564.331 453.008 564.325 456.824L564.225 524.798C564.219 528.65 566.755 532.501 571.838 535.444C579.155 539.682 589.741 540.864 598.9 539.029C577.72 540.451 572.615 531.466 572.624 524.971L572.722 458.408C572.725 456.118 573.074 454.225 574.67 452.635C575.389 453.305 576.246 453.929 577.245 454.503C584.508 458.704 596.288 458.722 603.556 454.543C607.459 452.299 609.273 449.304 608.991 446.358L608.549 446.101C608.042 443.831 606.595 441.103 603.578 439.355Z" fill="black"/>
<path opacity="0.4" d="M608.826 446.256C607.722 445.617 606.541 445.052 605.301 444.554C603.008 443.636 601.462 441.471 601.466 439.001L601.477 432.232L599.06 432.229C599.047 441.266 599.05 439.363 599.047 441.29C599.044 443.377 602.231 444.319 604.308 445.457C606.386 446.596 613.402 450.304 614 453.571C614.604 456.873 614.225 462.599 614.215 469.654C614.204 476.706 614.144 517.982 614.136 522.612C614.13 527.187 612.213 533.806 603.707 537.771C605.474 537.158 607.173 536.423 608.7 535.546C613.792 532.616 616.339 528.926 616.345 524.876L616.444 456.9C616.45 453.053 613.911 449.199 608.826 446.256Z" fill="white"/>
<path d="M609.027 441.743L609.024 443.673C609.038 446.417 607.211 449.176 603.559 451.283C596.291 455.461 584.514 455.443 577.242 451.244C575.436 450.195 574.067 448.983 573.165 447.681C572.262 446.398 571.813 445.025 571.816 443.653L571.819 441.652C571.819 441.238 571.857 440.822 571.965 440.407C572.421 438.079 574.193 435.825 577.268 434.06C577.358 434.006 577.449 433.951 577.539 433.917C584.843 429.884 596.421 429.954 603.584 434.099C606.653 435.873 608.437 438.132 608.885 440.443C608.994 440.876 609.028 441.309 609.027 441.743Z" fill="#37474F"/>
<path d="M591.925 452.403L591.936 445.561C591.941 442.854 592.621 446.519 587.871 446.511C583.752 446.505 580.099 437.004 577.539 433.913C577.449 433.949 577.358 434.004 577.268 434.056C574.195 435.822 572.421 438.074 571.965 440.404C571.857 440.818 571.82 441.234 571.819 441.649L571.816 443.65C571.814 445.022 572.264 446.395 573.165 447.678C574.065 448.979 575.436 450.19 577.242 451.241C584.514 455.439 596.291 455.458 603.559 451.28C598.427 453.296 591.921 454.986 591.925 452.403Z" fill="#263238"/>
<path d="M577.254 449.246C569.994 445.043 570.004 438.246 577.276 434.064C584.547 429.882 596.327 429.9 603.587 434.103C610.848 438.307 610.837 445.103 603.565 449.285C596.294 453.466 584.514 453.449 577.254 449.246Z" fill="#8DC868"/>
<path d="M609.037 435.297L609.031 439.143C609.031 439.577 608.995 440.01 608.885 440.443C608.429 442.753 606.639 445.007 603.566 446.771C600.312 448.643 596.157 449.667 591.93 449.84C586.673 450.084 581.274 449.049 577.249 446.713C575.445 445.664 574.092 444.471 573.172 443.169C572.541 442.284 572.145 441.344 571.965 440.405C571.858 439.989 571.822 439.556 571.823 439.142L571.829 435.205C571.834 432.443 573.644 429.702 577.278 427.614C577.604 427.435 577.928 427.254 578.272 427.093C585.593 423.438 596.663 423.635 603.595 427.653C607.239 429.77 609.06 432.535 609.037 435.297Z" fill="#37474F"/>
<path d="M577.264 442.712C570.004 438.509 570.014 431.712 577.287 427.53C584.558 423.348 596.339 423.366 603.598 427.569C610.858 431.772 610.847 438.57 603.575 442.751C596.303 446.933 584.523 446.915 577.264 442.712Z" fill="#455A64"/>
<path d="M573.172 443.169C574.09 444.47 575.444 445.664 577.249 446.713C581.274 449.049 586.673 450.085 591.93 449.84C591.981 448.491 592.738 447.457 587.87 446.513C583.828 445.729 577.848 444.037 575.063 439.612C572.507 435.546 573.986 430.191 578.272 427.091C577.928 427.254 577.602 427.434 577.278 427.613C573.644 429.701 571.834 432.443 571.829 435.204L571.823 439.141C571.823 439.555 571.858 439.989 571.965 440.404C572.146 441.345 572.541 442.284 573.172 443.169Z" fill="#263238"/>
<path d="M584.795 425.413L584.75 433.876C584.75 434.007 584.759 434.14 584.792 434.272C584.924 434.976 585.466 435.667 586.398 436.21C587.385 436.787 588.649 437.107 589.936 437.169C591.536 437.254 593.183 436.95 594.413 436.247C594.965 435.931 595.378 435.57 595.662 435.177C595.856 434.909 595.979 434.624 596.034 434.337C596.068 434.212 596.08 434.079 596.081 433.953L596.126 425.463C596.131 424.622 595.585 423.784 594.482 423.14C594.383 423.084 594.285 423.028 594.18 422.978C591.958 421.851 588.587 421.887 586.468 423.098C585.354 423.734 584.795 424.572 584.795 425.413Z" fill="#8DC868"/>
<path opacity="0.35" d="M584.795 425.413L584.75 433.876C584.75 434.007 584.759 434.14 584.792 434.272C584.924 434.976 585.466 435.667 586.398 436.21C587.385 436.787 588.649 437.107 589.936 437.169C591.536 437.254 593.183 436.95 594.413 436.247C594.965 435.931 595.378 435.57 595.662 435.177C595.856 434.909 595.979 434.624 596.034 434.337C596.068 434.212 596.08 434.079 596.081 433.953L596.126 425.463C596.131 424.622 595.585 423.784 594.482 423.14C594.383 423.084 594.285 423.028 594.18 422.978C591.958 421.851 588.587 421.887 586.468 423.098C585.354 423.734 584.795 424.572 584.795 425.413Z" fill="black"/>
<path d="M584.796 425.385C584.787 427.182 587.316 428.653 590.444 428.67C593.573 428.686 596.117 427.242 596.127 425.445C596.136 423.648 593.607 422.176 590.479 422.16C587.35 422.143 584.805 423.588 584.796 425.385Z" fill="#8DC868"/>
<path opacity="0.5" d="M588.45 425.404C588.447 426.042 589.344 426.565 590.454 426.571C591.565 426.577 592.468 426.064 592.471 425.427C592.474 424.789 591.577 424.266 590.467 424.26C589.356 424.252 588.453 424.766 588.45 425.404Z" fill="#8DC868"/>
<path opacity="0.3" d="M588.45 425.404C588.447 426.042 589.344 426.565 590.454 426.571C591.565 426.577 592.468 426.064 592.471 425.427C592.474 424.789 591.577 424.266 590.467 424.26C589.356 424.252 588.453 424.766 588.45 425.404Z" fill="black"/>
<path d="M583.401 424.486L583.355 427.364C583.355 427.528 583.368 427.693 583.408 427.858C583.574 428.736 584.248 429.597 585.412 430.275C586.642 430.994 588.217 431.394 589.822 431.471C591.818 431.576 593.871 431.198 595.405 430.322C596.093 429.928 596.61 429.478 596.962 428.986C597.205 428.651 597.357 428.296 597.427 427.94C597.469 427.783 597.482 427.617 597.484 427.46L597.529 424.549C597.535 423.5 596.855 422.455 595.481 421.651C595.357 421.582 595.235 421.513 595.105 421.451C592.335 420.044 588.13 420.091 585.488 421.599C584.099 422.392 583.401 423.436 583.401 424.486Z" fill="#8DC868"/>
<path opacity="0.2" d="M583.401 424.486L583.355 427.364C583.355 427.528 583.368 427.693 583.408 427.858C583.574 428.736 584.248 429.597 585.412 430.275C586.642 430.994 588.217 431.394 589.822 431.471C591.818 431.576 593.871 431.198 595.405 430.322C596.093 429.928 596.61 429.478 596.962 428.986C597.205 428.651 597.357 428.296 597.427 427.94C597.469 427.783 597.482 427.617 597.484 427.46L597.529 424.549C597.535 423.5 596.855 422.455 595.481 421.651C595.357 421.582 595.235 421.513 595.105 421.451C592.335 420.044 588.13 420.091 585.488 421.599C584.099 422.392 583.401 423.436 583.401 424.486Z" fill="black"/>
<path d="M583.402 424.45C583.39 426.692 586.543 428.526 590.445 428.548C594.348 428.569 597.52 426.769 597.532 424.527C597.544 422.285 594.392 420.451 590.489 420.43C586.587 420.409 583.414 422.209 583.402 424.45Z" fill="#8DC868"/>
<path opacity="0.5" d="M587.958 424.475C587.953 425.271 589.073 425.923 590.459 425.93C591.844 425.938 592.971 425.298 592.975 424.502C592.98 423.706 591.86 423.055 590.476 423.047C589.089 423.04 587.963 423.679 587.958 424.475Z" fill="#8DC868"/>
<path opacity="0.3" d="M587.958 424.475C587.953 425.271 589.073 425.923 590.459 425.93C591.844 425.938 592.971 425.298 592.975 424.502C592.98 423.706 591.86 423.055 590.476 423.047C589.089 423.04 587.963 423.679 587.958 424.475Z" fill="black"/>
<path d="M472.849 438.144C472.849 438.144 465.684 483.496 464.749 496.916C464.248 504.104 465.097 506.251 467.081 511.151C468.642 515.004 469.594 517.42 472.333 522.35C472.969 523.493 450.302 534.514 447.389 533.616C439.735 531.26 436.651 522.47 433.638 515.932C431.333 510.929 432.992 508.467 432.878 503.15C432.75 497.21 425.008 445.225 424.086 439.352C434.246 428.964 461.003 434.393 472.849 438.144Z" fill="#FFBDA7"/>
<path d="M428.417 525.6C428.262 527.92 428.772 529.817 429.464 531.978C430.156 534.136 437.571 539.472 440.147 543.042C442.724 546.611 443.031 548.045 445.95 552.916C449.184 558.315 450.838 564.894 465.613 570.565C480.586 576.312 490.473 574.136 497.519 572.104C504.565 570.072 506.81 566.611 506.81 566.611C506.81 566.611 509.481 558.152 504.837 556.117C500.193 554.078 428.417 525.6 428.417 525.6Z" fill="#263238"/>
<path d="M467.102 506.622C468.182 507.764 468.716 510.955 469.167 512.435C470.685 517.418 474.382 522.068 477.713 526.007C493.481 544.648 508.92 544.699 508.002 560.36C507.538 564.743 499.135 571.059 480.01 570.97C470.24 570.925 455.674 563.821 451.488 557.546C447.303 551.269 445.619 545.863 442.218 541.263C438.818 536.665 430.255 530.922 428.416 525.6C427.337 522.478 427.598 518.986 427.99 515.761C428.313 513.109 429.967 508.058 430.369 505.408C430.804 502.545 430.381 500.825 432.635 500.692L433.582 504.858C435.549 511.748 436.942 511.356 439.435 513.19C442.034 515.104 444.051 518.059 446.21 520.507C445.098 515.833 443.268 512.839 445.739 510.638C448.053 508.577 451.435 507.392 457.768 506.435C464.102 505.476 466.143 505.605 467.102 506.622Z" fill="#8DC868"/>
<path opacity="0.4" d="M467.102 506.622C468.182 507.764 468.716 510.955 469.167 512.435C470.685 517.418 474.382 522.068 477.713 526.007C493.481 544.648 508.92 544.699 508.002 560.36C507.538 564.743 499.135 571.059 480.01 570.97C470.24 570.925 455.674 563.821 451.488 557.546C447.303 551.269 445.619 545.863 442.218 541.263C438.818 536.665 430.255 530.922 428.416 525.6C427.337 522.478 427.598 518.986 427.99 515.761C428.313 513.109 429.967 508.058 430.369 505.408C430.804 502.545 430.381 500.825 432.635 500.692L433.582 504.858C435.549 511.748 436.942 511.356 439.435 513.19C442.034 515.104 444.051 518.059 446.21 520.507C445.098 515.833 443.268 512.839 445.739 510.638C448.053 508.577 451.435 507.392 457.768 506.435C464.102 505.476 466.143 505.605 467.102 506.622Z" fill="black"/>
<path opacity="0.3" d="M480.012 570.97C470.241 570.925 455.675 563.82 451.489 557.546C449.976 555.277 448.795 553.125 447.738 551.081C448.056 551.459 448.355 551.878 448.641 552.186C449.279 552.875 449.936 553.546 450.614 554.194C453.226 556.688 456.309 559.098 459.883 559.976C463.064 560.755 470.872 562.929 473.493 559.869C474.978 558.137 474.418 555.246 472.958 552.98C472.341 552.023 470.439 549.748 470.439 549.748C470.439 549.748 475.123 545.875 480.27 544.174C486.917 541.978 490.566 542.035 490.566 542.035C491.452 543.042 493.048 544.636 494.475 545.353C495.905 546.072 498.447 546.944 499.831 546.804C500.5 546.736 501.112 546.574 501.687 546.374C505.873 549.974 508.389 553.793 508.004 560.36C507.54 564.743 499.136 571.059 480.012 570.97Z" fill="black"/>
<path d="M477.714 526.007C482.606 531.79 487.465 535.781 491.814 539.006C495.267 544.521 493.932 545.92 491.277 544.165C488.607 542.4 480.883 530.94 474.282 521.736C475.403 523.231 476.578 524.664 477.714 526.007Z" fill="#37474F"/>
<path d="M435.457 514.354C432.894 512.786 431.063 510.155 430.028 507.102C430.172 506.483 430.297 505.896 430.371 505.408C430.805 502.545 430.383 500.823 432.636 500.692L433.585 504.858C435.552 511.748 436.945 511.356 439.438 513.19C442.037 515.104 444.054 518.059 446.211 520.507C452.864 528.846 454.212 532.739 461.21 539.71C468.208 546.682 474.605 549.216 474.184 550.648C473.763 552.079 471.155 553.59 464.663 549.125C458.17 544.66 449.936 533.764 446.531 527.968C443.125 522.172 439.061 516.557 435.457 514.354Z" fill="#37474F"/>
<path d="M470.544 550.719C470.731 550.7 470.914 550.626 471.069 550.495C476.446 545.964 483.185 543.513 491.102 543.222C491.639 543.183 492.063 542.75 492.045 542.209C492.024 541.669 491.571 541.247 491.031 541.266C482.667 541.575 475.524 544.178 469.808 548.999C469.396 549.347 469.342 549.964 469.692 550.377C469.909 550.638 470.234 550.754 470.544 550.719Z" fill="#EBEBEB"/>
<path d="M464.885 544.684C465.069 544.664 465.25 544.592 465.405 544.47C471.109 539.896 478.251 537.399 486.616 537.058C487.23 537.021 487.602 536.567 487.58 536.013C487.556 535.46 487.088 535.029 486.536 535.05C477.72 535.418 470.196 538.052 464.149 542.902C463.716 543.249 463.646 543.88 463.993 544.313C464.215 544.592 464.556 544.72 464.885 544.684Z" fill="#EBEBEB"/>
<path d="M457.698 539.247C457.899 539.226 458.098 539.148 458.27 539.011C464.564 533.966 472.441 531.214 481.659 530.842C482.249 530.828 482.745 530.301 482.721 529.69C482.695 529.081 482.179 528.605 481.569 528.629C471.872 529.031 463.554 531.938 456.885 537.284C456.409 537.666 456.333 538.364 456.715 538.84C456.959 539.145 457.333 539.286 457.698 539.247Z" fill="#EBEBEB"/>
<path d="M452.458 533.463C452.656 533.442 452.85 533.365 453.018 533.229C459.184 528.281 466.893 525.587 475.949 525.217C476.526 525.193 477.013 524.688 476.989 524.088C476.966 523.489 476.459 523.025 475.859 523.049C466.354 523.435 458.193 526.294 451.659 531.537C451.192 531.911 451.117 532.594 451.493 533.063C451.734 533.363 452.102 533.5 452.458 533.463Z" fill="#EBEBEB"/>
<path d="M448.317 526.609C448.515 526.588 448.709 526.511 448.877 526.375C455.047 521.431 462.746 518.736 471.81 518.365C472.399 518.339 472.874 517.836 472.85 517.236C472.827 516.637 472.32 516.171 471.72 516.197C462.204 516.587 454.055 519.44 447.516 524.682C447.05 525.057 446.975 525.74 447.349 526.209C447.592 526.509 447.96 526.648 448.317 526.609Z" fill="#EBEBEB"/>
<path d="M368.181 292.673L309.234 296.454C305.988 324.827 310.262 354.105 320.495 362.646C347.724 385.373 417.87 396.33 417.87 396.33C417.344 402.807 416.93 410.664 418.961 424.705C420.807 437.479 424.875 459.44 428.39 474.92C438.269 482.43 464.247 478.65 468.138 473.557C468.138 473.557 475.717 433.499 479.061 395.724C481.096 372.733 479.657 363.393 467.152 349.747C448.468 329.363 368.181 292.673 368.181 292.673Z" fill="#37474F"/>
<path d="M395.733 376.963C385.48 364.146 357.747 334.795 357.747 334.795C357.747 334.795 367.581 323.835 366.141 305.019L329.816 334.387L388.049 390.211C394.385 391.747 400.144 392.991 404.89 393.945C403.227 388.222 400.506 382.93 395.733 376.963Z" fill="#263238"/>
<path d="M397.392 480.268C397.392 480.268 391.413 529.895 390.751 536.573C390.088 543.25 390.932 548.507 391.594 552.748C392.078 555.851 393.494 558.729 394.959 561.473C396.1 563.61 398.789 567.287 397.086 569.612C396.459 570.468 395.528 571.05 394.593 571.553C392.592 572.625 390.411 573.262 388.437 574.311C386.198 575.502 383.496 575.933 380.998 576.223C377.969 576.574 374.845 576.636 371.932 575.739C364.278 573.382 361.193 564.592 358.181 558.054C355.875 553.051 357.535 550.589 357.421 545.272C357.293 539.33 349.551 487.348 348.629 481.474C358.787 471.089 385.546 476.517 397.392 480.268Z" fill="#FFBDA7"/>
<path d="M352.959 567.724C352.803 570.044 353.313 571.941 354.006 574.102C354.698 576.261 362.112 581.596 364.689 585.166C367.265 588.735 367.573 590.169 370.492 595.04C373.726 600.439 375.379 607.018 390.155 612.689C405.128 618.436 415.014 616.26 422.06 614.228C429.107 612.196 431.351 608.735 431.351 608.735C431.351 608.735 434.023 600.276 429.378 598.241C424.735 596.202 352.959 567.724 352.959 567.724Z" fill="#263238"/>
<path d="M391.645 548.746C392.725 549.888 393.259 553.079 393.71 554.559C395.228 559.542 398.925 564.193 402.256 568.131C418.024 586.772 433.463 586.823 432.544 602.485C432.081 606.867 423.678 613.183 404.553 613.094C394.783 613.049 380.217 605.945 376.031 599.67C371.846 593.395 370.162 587.987 366.761 583.387C363.361 578.789 354.798 573.047 352.959 567.724C351.88 564.602 352.141 561.11 352.533 557.885C352.856 555.233 354.511 550.181 354.912 547.532C355.347 544.669 354.924 542.949 357.178 542.816L358.125 546.982C360.092 553.872 361.485 553.48 363.978 555.314C366.577 557.228 368.594 560.183 370.753 562.631C369.641 557.957 367.811 554.963 370.282 552.762C372.596 550.701 375.978 549.516 382.311 548.559C388.643 547.6 390.684 547.729 391.645 548.746Z" fill="#8DC868"/>
<path opacity="0.4" d="M391.645 548.746C392.725 549.888 393.259 553.079 393.71 554.559C395.228 559.542 398.925 564.193 402.256 568.131C418.024 586.772 433.463 586.823 432.544 602.485C432.081 606.867 423.678 613.183 404.553 613.094C394.783 613.049 380.217 605.945 376.031 599.67C371.846 593.395 370.162 587.987 366.761 583.387C363.361 578.789 354.798 573.047 352.959 567.724C351.88 564.602 352.141 561.11 352.533 557.885C352.856 555.233 354.511 550.181 354.912 547.532C355.347 544.669 354.924 542.949 357.178 542.816L358.125 546.982C360.092 553.872 361.485 553.48 363.978 555.314C366.577 557.228 368.594 560.183 370.753 562.631C369.641 557.957 367.811 554.963 370.282 552.762C372.596 550.701 375.978 549.516 382.311 548.559C388.643 547.6 390.684 547.729 391.645 548.746Z" fill="black"/>
<path opacity="0.3" d="M404.555 613.094C394.784 613.049 380.218 605.944 376.032 599.67C374.519 597.401 373.338 595.249 372.281 593.205C372.599 593.583 372.898 594.002 373.184 594.31C373.822 594.997 374.479 595.67 375.157 596.318C377.769 598.812 380.852 601.223 384.425 602.1C387.605 602.879 395.415 605.053 398.036 601.993C399.521 600.261 398.961 597.37 397.501 595.104C396.884 594.147 394.983 591.872 394.983 591.872C394.983 591.872 399.667 587.999 404.814 586.298C411.462 584.102 415.111 584.159 415.111 584.159C415.996 585.166 417.592 586.76 419.019 587.477C420.449 588.196 422.991 589.066 424.376 588.928C425.044 588.861 425.657 588.698 426.231 588.498C430.417 592.098 432.934 595.916 432.549 602.484C432.081 606.867 423.679 613.183 404.555 613.094Z" fill="black"/>
<path d="M402.256 568.131C407.148 573.914 412.007 577.905 416.357 581.13C419.81 586.645 418.475 588.044 415.82 586.289C413.15 584.524 405.427 573.064 398.826 563.86C399.945 565.355 401.12 566.788 402.256 568.131Z" fill="#37474F"/>
<path d="M359.999 556.478C357.436 554.91 355.605 552.279 354.57 549.226C354.712 548.607 354.837 548.02 354.912 547.532C355.347 544.667 354.924 542.947 357.178 542.816L358.127 546.982C360.094 553.872 361.486 553.48 363.98 555.314C366.579 557.228 368.596 560.183 370.753 562.631C377.405 570.97 378.754 574.863 385.751 581.834C392.749 588.806 399.147 591.34 398.726 592.772C398.305 594.203 395.697 595.714 389.204 591.249C382.712 586.784 374.477 575.888 371.073 570.092C367.666 564.296 363.603 558.681 359.999 556.478Z" fill="#37474F"/>
<path d="M395.087 592.843C395.274 592.822 395.457 592.75 395.612 592.619C400.989 588.088 407.728 585.637 415.645 585.346C416.182 585.307 416.606 584.874 416.586 584.333C416.567 583.793 416.113 583.371 415.572 583.39C407.208 583.699 400.065 586.302 394.35 591.123C393.938 591.471 393.884 592.088 394.234 592.501C394.452 592.762 394.775 592.878 395.087 592.843Z" fill="#EBEBEB"/>
<path d="M389.426 586.808C389.61 586.788 389.791 586.716 389.947 586.594C395.65 582.02 402.793 579.523 411.157 579.182C411.771 579.145 412.142 578.691 412.121 578.137C412.097 577.584 411.63 577.153 411.077 577.174C402.262 577.542 394.738 580.176 388.69 585.026C388.257 585.373 388.188 586.004 388.535 586.437C388.758 586.716 389.097 586.844 389.426 586.808Z" fill="#EBEBEB"/>
<path d="M382.241 581.371C382.442 581.35 382.641 581.272 382.813 581.135C389.106 576.09 396.984 573.338 406.202 572.966C406.792 572.951 407.288 572.425 407.264 571.814C407.238 571.205 406.722 570.729 406.112 570.753C396.415 571.155 388.097 574.062 381.428 579.408C380.952 579.79 380.876 580.488 381.258 580.964C381.502 581.269 381.876 581.41 382.241 581.371Z" fill="#EBEBEB"/>
<path d="M377.001 575.587C377.199 575.566 377.393 575.489 377.561 575.353C383.726 570.405 391.436 567.711 400.492 567.341C401.067 567.317 401.556 566.812 401.532 566.212C401.509 565.613 401.002 565.149 400.402 565.173C390.897 565.558 382.736 568.418 376.201 573.661C375.735 574.035 375.66 574.718 376.036 575.187C376.275 575.487 376.643 575.624 377.001 575.587Z" fill="#EBEBEB"/>
<path d="M372.859 568.733C373.056 568.712 373.251 568.635 373.418 568.499C379.588 563.555 387.287 560.86 396.352 560.489C396.94 560.463 397.415 559.96 397.391 559.36C397.368 558.761 396.862 558.295 396.261 558.321C386.746 558.711 378.597 561.564 372.058 566.806C371.592 567.181 371.516 567.864 371.89 568.333C372.133 568.633 372.503 568.772 372.859 568.733Z" fill="#EBEBEB"/>
<path d="M403.603 427.405C405.638 404.413 404.197 395.073 391.692 381.429C373.01 361.044 345.501 335.021 345.501 335.021C353.819 327.672 366.28 320.65 368.179 292.674C367.968 284.47 348.435 277.545 348.435 277.545H250.312C250.312 277.545 247.034 284.016 243.934 292.674C235.043 317.507 238.224 351.431 261.198 369.152C297.897 397.457 343.439 422.773 343.439 422.773C341.731 431.293 341.47 442.346 343.501 456.386C345.349 469.161 349.219 496.189 352.733 511.669C362.612 519.179 390.244 515.654 394.136 510.561C394.137 510.558 400.259 465.181 403.603 427.405Z" fill="#37474F"/>
<path d="M360.648 469.337C360.498 466.138 360.355 463.423 360.228 461.005C359.732 451.523 359.483 446.765 359.878 435.376C359.905 434.589 359.978 433.589 360.058 432.447C360.471 426.668 361.094 417.934 358.133 413.393C353.007 405.533 342.878 399.103 332.152 392.295C327.36 389.254 322.405 386.107 317.578 382.656C312.102 378.741 307.088 375.341 302.238 372.051C283.916 359.628 271.812 351.422 267.382 337.218L266.668 334.922C261.648 318.727 259.058 310.409 240.93 303.62C240.835 304.1 240.737 304.576 240.65 305.058C257.905 311.565 260.274 319.19 265.283 335.35L265.997 337.646C270.58 352.334 283.516 361.107 301.423 373.248C306.266 376.532 311.272 379.927 316.734 383.831C321.593 387.304 326.567 390.463 331.376 393.516C341.964 400.237 351.966 406.587 356.919 414.183C359.614 418.314 358.988 427.094 358.613 432.341C358.53 433.505 358.457 434.523 358.429 435.322C358.032 446.774 358.281 451.553 358.779 461.075C358.905 463.491 359.047 466.203 359.199 469.401C359.281 471.171 359.377 472.864 359.469 474.48C360.003 483.936 360.39 490.769 357.125 493.927C355.57 495.434 353.156 496.132 349.678 496.097C349.764 496.585 349.85 497.071 349.937 497.555C353.689 497.552 356.332 496.711 358.134 494.968C361.875 491.348 361.473 484.238 360.916 474.397C360.827 472.793 360.731 471.101 360.648 469.337Z" fill="#263238"/>
<path d="M264.899 52.4456C257.761 57.5174 253.674 65.9754 251.847 74.5373C250.021 83.0978 250.173 91.9357 249.832 100.682C249.674 104.737 249.09 107.781 246.572 111.136C244.66 113.684 242.353 115.945 240.73 118.686C237.986 123.321 237.452 129.201 239.318 134.254C240.43 137.266 242.371 140.148 242.19 143.353C241.964 147.356 238.573 150.324 236.398 153.694C232.939 159.052 232.51 166.096 234.756 172.065C236.577 176.904 240.022 180.964 244.208 183.945C248.876 187.266 252.558 190.286 258.307 191.909C265.941 194.063 274.102 194.334 281.863 192.691C287.532 191.491 293.122 189.189 297.252 185.126C302.653 179.814 304.988 172.071 305.665 164.528C307.104 148.514 302.027 132.734 297.746 117.236C293.466 101.737 289.941 85.198 294.408 69.7505C295.874 64.6788 299.123 55.9555 295.184 51.2244C292.087 47.5035 282.62 47.3407 278.28 47.7854C273.545 48.2694 268.807 49.667 264.899 52.4456Z" fill="#263238"/>
<path d="M289.583 46.4874C287.733 46.6321 285.904 47.19 284.243 48.0312C281.768 49.2841 279.638 51.1385 277.787 53.204C276.119 55.0645 274.654 57.1149 273.527 59.3462C272.244 61.8881 271.397 64.7738 271.888 67.5795C273.082 74.4077 280.862 74.9701 286.277 73.1383C291.127 71.4979 295.165 68.1509 297.508 63.6189C298.763 61.1916 299.619 58.5004 299.542 55.7685C299.42 51.4627 296.707 47.2849 292.302 46.5884C291.403 46.4452 290.49 46.4165 289.583 46.4874Z" fill="#8DC868"/>
<path d="M342.057 151.74C354.938 151.565 366.064 155.848 371.319 165.001C376.573 174.154 380.439 188.791 382.532 193.297C384.626 197.802 387.562 201.318 391.458 210.43C394.724 218.069 399.026 230.759 399.026 230.759L444.16 219.615L451.221 237.244C451.221 237.244 436.494 246.887 426.473 252.693C413.168 260.401 402.772 264.894 397.145 266.912C390.073 269.447 383.641 271.076 378.623 265.206C373.604 259.337 348.7 210.697 348.7 210.697L342.057 151.74Z" fill="#FFBDA7"/>
<path d="M478.448 217.807L477.764 216.21L488.753 215.251L493.399 216.504L478.448 217.807Z" fill="#8DC868"/>
<path d="M488.785 200.609L488.753 215.251L493.399 216.504L493.437 198.39L488.785 200.609Z" fill="#8DC868"/>
<path opacity="0.1" d="M488.785 200.609L488.753 215.251L493.399 216.504L493.437 198.39L488.785 200.609Z" fill="white"/>
<path d="M477.826 186.926L480.959 182.808L493.437 198.39L488.785 200.609L477.826 186.926Z" fill="#8DC868"/>
<path opacity="0.3" d="M477.826 186.926L480.959 182.808L493.437 198.39L488.785 200.609L477.826 186.926Z" fill="white"/>
<path d="M466.837 187.883L466.007 184.111L480.959 182.808L477.826 186.926L466.837 187.883Z" fill="#8DC868"/>
<path opacity="0.2" d="M466.837 187.883L466.007 184.111L480.959 182.808L477.826 186.926L466.837 187.883Z" fill="white"/>
<path d="M466.007 184.111L465.968 202.477L478.447 217.807L477.764 216.21L466.805 202.525L466.837 187.883L466.007 184.111Z" fill="#8DC868"/>
<path opacity="0.2" d="M466.007 184.111L465.968 202.477L478.447 217.807L477.764 216.21L466.805 202.525L466.837 187.883L466.007 184.111Z" fill="black"/>
<path d="M466.805 202.525L466.837 187.883L477.826 186.925L488.785 200.609L488.754 215.251L477.764 216.21L466.805 202.525Z" fill="#8DC868"/>
<path opacity="0.1" d="M466.805 202.525L466.837 187.883L477.826 186.925L488.785 200.609L488.754 215.251L477.764 216.21L466.805 202.525Z" fill="black"/>
<path d="M493.399 216.504L502.082 211.518L502.12 193.404L493.437 198.39L493.399 216.504Z" fill="#8DC868"/>
<path opacity="0.1" d="M493.399 216.504L502.082 211.518L502.12 193.404L493.437 198.39L493.399 216.504Z" fill="white"/>
<path d="M480.959 182.808L493.437 198.39L502.12 193.404L489.642 177.821L480.959 182.808Z" fill="#8DC868"/>
<path opacity="0.3" d="M480.959 182.808L493.437 198.39L502.12 193.404L489.642 177.821L480.959 182.808Z" fill="white"/>
<path d="M466.007 184.111L474.691 179.123L489.642 177.821L480.959 182.808L466.007 184.111Z" fill="#8DC868"/>
<path opacity="0.2" d="M466.007 184.111L474.691 179.123L489.642 177.821L480.959 182.808L466.007 184.111Z" fill="white"/>
<path d="M493.399 216.504C493.47 213.486 493.589 210.466 493.622 207.448C493.669 204.428 493.733 201.409 493.742 198.39V198.284L493.675 198.2L487.46 190.388L481.184 182.627L481.085 182.505L480.935 182.52C475.957 183.013 470.98 183.529 466.008 184.109C470.953 183.823 475.892 183.474 480.829 183.103L486.937 190.808L493.135 198.497C493.132 201.48 493.182 204.462 493.215 207.446C493.233 210.466 493.34 213.484 493.399 216.504Z" fill="#8DC868"/>
<path d="M489.642 177.821L493.28 178.541L503.67 191.513L502.12 193.404L489.642 177.821Z" fill="#8DC868"/>
<path opacity="0.3" d="M489.642 177.821L493.28 178.541L503.67 191.513L502.12 193.404L489.642 177.821Z" fill="white"/>
<path d="M503.639 206.596L502.082 211.518L502.12 193.404L503.67 191.513L503.639 206.596Z" fill="#8DC868"/>
<path opacity="0.1" d="M503.639 206.596L502.082 211.518L502.12 193.404L503.67 191.513L503.639 206.596Z" fill="white"/>
<path d="M502.082 211.518C502.204 208.5 502.305 205.48 502.354 202.462C502.427 199.442 502.418 196.424 502.455 193.404L502.456 193.286L502.381 193.193C500.301 190.597 498.201 188.014 496.092 185.442C493.972 182.876 491.824 180.334 489.64 177.821C491.615 180.501 493.626 183.153 495.667 185.783C497.717 188.403 499.777 191.016 501.856 193.614L501.782 193.402C501.806 196.422 501.785 199.441 501.847 202.46C501.884 205.479 501.972 208.499 502.082 211.518Z" fill="#8DC868"/>
<path opacity="0.1" d="M466.837 187.883L477.533 187.646L488.019 200.891L488.135 214.831L477.764 216.21L488.754 215.251L488.785 200.609L477.826 186.925L466.837 187.883Z" fill="white"/>
<path d="M437.345 232.516C436.468 233.019 435.259 232.944 433.925 232.169C431.257 230.622 429.099 226.868 429.105 223.785C429.108 222.242 429.653 221.161 430.529 220.658C431.062 220.352 471.119 197.351 471.652 197.045C472.528 196.541 473.738 196.617 475.072 197.39C477.74 198.939 479.897 202.691 479.891 205.774C479.888 207.317 479.344 208.398 478.467 208.901C477.935 209.209 437.877 232.21 437.345 232.516Z" fill="#8DC868"/>
<path d="M430.529 220.658C430.996 220.389 461.765 202.723 469.769 198.126C471.652 197.045 470.522 194.61 471.402 193.925C472.281 193.241 477.393 194.483 480.377 198.901C483.361 203.318 483.183 208.7 482.088 209.326C480.992 209.952 479.2 208.461 477.324 209.558C470.723 213.349 437.826 232.238 437.345 232.515C436.468 233.019 435.259 232.944 433.925 232.17C431.257 230.623 429.098 226.869 429.105 223.786C429.109 222.244 429.653 221.161 430.529 220.658Z" fill="#8DC868"/>
<path opacity="0.2" d="M433.205 230.478C434.266 229.732 435.526 229.171 436.655 228.534C439.595 226.875 442.535 225.217 445.475 223.557C454.051 218.714 462.836 214.203 471.166 208.951C472.39 208.179 473.625 207.365 475.755 206.002C476.987 205.213 478.648 205.564 479.582 204.129C480.004 203.479 480.08 202.665 480.051 201.89C479.977 199.888 479.25 197.928 478.039 196.333C478.879 197.031 479.686 197.877 480.377 198.901C483.361 203.318 483.183 208.7 482.088 209.326C480.992 209.952 479.2 208.461 477.324 209.558C470.723 213.348 437.826 232.238 437.345 232.515C436.468 233.019 435.259 232.943 433.925 232.17C433.444 231.891 432.988 231.52 432.549 231.115C432.754 230.867 432.97 230.644 433.205 230.478Z" fill="black"/>
<path d="M429.105 223.784C429.108 222.242 429.653 221.161 430.529 220.658C431.406 220.154 432.616 220.229 433.949 221.004C436.618 222.551 438.775 226.305 438.769 229.388C438.766 230.931 438.221 232.012 437.345 232.515C436.468 233.019 435.259 232.943 433.925 232.17C431.257 230.622 429.099 226.868 429.105 223.784Z" fill="#8DC868"/>
<path d="M422.764 249.783L422.081 248.184L433.07 247.227L437.716 248.48L422.764 249.783Z" fill="#8DC868"/>
<path d="M433.101 232.585L433.07 247.227L437.716 248.48L437.754 230.365L433.101 232.585Z" fill="#8DC868"/>
<path opacity="0.1" d="M433.101 232.585L433.07 247.227L437.716 248.48L437.754 230.365L433.101 232.585Z" fill="white"/>
<path d="M422.142 218.901L425.275 214.784L437.753 230.365L433.101 232.585L422.142 218.901Z" fill="#8DC868"/>
<path opacity="0.3" d="M422.142 218.901L425.275 214.784L437.753 230.365L433.101 232.585L422.142 218.901Z" fill="white"/>
<path d="M411.153 219.858L410.323 216.086L425.275 214.784L422.142 218.901L411.153 219.858Z" fill="#8DC868"/>
<path opacity="0.2" d="M411.153 219.858L410.323 216.086L425.275 214.784L422.142 218.901L411.153 219.858Z" fill="white"/>
<path d="M410.323 216.086L410.286 234.453L422.764 249.783L422.08 248.184L411.121 234.501L411.153 219.859L410.323 216.086Z" fill="#8DC868"/>
<path opacity="0.2" d="M410.323 216.086L410.286 234.453L422.764 249.783L422.08 248.184L411.121 234.501L411.153 219.859L410.323 216.086Z" fill="black"/>
<path d="M411.121 234.501L411.153 219.858L422.142 218.901L433.101 232.584L433.069 247.227L422.08 248.184L411.121 234.501Z" fill="#8DC868"/>
<path opacity="0.1" d="M411.121 234.501L411.153 219.858L422.142 218.901L433.101 232.584L433.069 247.227L422.08 248.184L411.121 234.501Z" fill="black"/>
<path d="M437.716 248.48L446.399 243.494L446.438 225.378L437.754 230.365L437.716 248.48Z" fill="#8DC868"/>
<path opacity="0.1" d="M437.716 248.48L446.399 243.494L446.438 225.378L437.754 230.365L437.716 248.48Z" fill="white"/>
<path d="M425.275 214.784L437.753 230.365L446.438 225.378L433.958 209.796L425.275 214.784Z" fill="#8DC868"/>
<path opacity="0.3" d="M425.275 214.784L437.753 230.365L446.438 225.378L433.958 209.796L425.275 214.784Z" fill="white"/>
<path d="M410.323 216.086L419.008 211.099L433.958 209.796L425.275 214.784L410.323 216.086Z" fill="#8DC868"/>
<path opacity="0.2" d="M410.323 216.086L419.008 211.099L433.958 209.796L425.275 214.784L410.323 216.086Z" fill="white"/>
<path d="M437.716 248.48C437.788 245.46 437.906 242.441 437.939 239.423C437.986 236.403 438.049 233.385 438.058 230.365V230.26L437.992 230.175L431.777 222.364L425.5 214.603L425.402 214.48L425.251 214.496C420.273 214.989 415.297 215.506 410.325 216.085C415.269 215.798 420.208 215.45 425.145 215.079L431.253 222.782L437.452 230.471C437.449 233.454 437.498 236.436 437.532 239.42C437.551 242.441 437.657 245.46 437.716 248.48Z" fill="#8DC868"/>
<path d="M433.958 209.796L437.598 210.517L447.987 223.489L446.438 225.378L433.958 209.796Z" fill="#8DC868"/>
<path opacity="0.3" d="M433.958 209.796L437.598 210.517L447.987 223.489L446.438 225.378L433.958 209.796Z" fill="white"/>
<path d="M447.955 238.571L446.398 243.494L446.438 225.378L447.987 223.489L447.955 238.571Z" fill="#8DC868"/>
<path opacity="0.1" d="M447.955 238.571L446.398 243.494L446.438 225.378L447.987 223.489L447.955 238.571Z" fill="white"/>
<path d="M446.398 243.494C446.521 240.476 446.622 237.456 446.671 234.437C446.745 231.418 446.736 228.399 446.774 225.381L446.775 225.263L446.7 225.17C444.62 222.574 442.52 219.991 440.411 217.419C438.292 214.854 436.144 212.311 433.959 209.799C435.934 212.48 437.945 215.132 439.986 217.76C442.036 220.38 444.096 222.993 446.175 225.591L446.101 225.379C446.125 228.399 446.104 231.418 446.166 234.437C446.201 237.454 446.29 240.474 446.398 243.494Z" fill="#8DC868"/>
<path opacity="0.1" d="M411.153 219.858L421.851 219.622L432.335 232.866L432.451 246.806L422.08 248.184L433.069 247.227L433.101 232.584L422.142 218.901L411.153 219.858Z" fill="white"/>
<path d="M450.284 214.98C452.627 217.694 453.725 223.22 450.599 224.982L447.987 226.405L447.955 238.421L448.89 238.759C455.019 235.483 461.445 233.838 465.744 231.414C470.042 228.99 474.925 227.292 476.384 223.912C477.841 220.532 479.633 207.389 479.539 204.78C479.446 202.17 475.195 199.84 467.969 198.247C460.744 196.653 458.955 197.498 457.396 198.948C455.838 200.398 455.47 201.623 455.47 201.623C455.47 201.623 452.387 201.313 450.356 202.479C448.326 203.644 447.931 206.605 447.931 206.605C447.931 206.605 445.728 206.94 443.79 208.461C441.853 209.984 442.381 213.853 442.381 213.853L444.295 212.754C445.421 212.135 448.38 212.782 450.181 214.864C450.2 214.884 450.216 214.905 450.234 214.926C450.252 214.943 450.267 214.962 450.284 214.98Z" fill="#FFBDA7"/>
<path d="M326.781 150.81C326.781 150.81 299.471 149.67 282.659 153.326C273.079 155.41 263.812 157.668 263.812 157.668C259.901 162.562 242.635 182.341 244.273 192.92C245.678 201.99 259.681 237.474 261.201 249.025C252.736 264.661 242.762 293.327 242.762 293.327C266.096 315.319 352.803 318.323 368.181 292.674C368.181 292.674 368.137 276.205 363.419 258.564C363.221 246.569 364.034 236.7 364.367 230.102C364.367 230.102 374.808 225.24 376.912 209.295C378.235 199.272 374.569 189.434 361.646 173.593C348.61 157.612 341.957 151.741 341.957 151.741L326.781 150.81Z" fill="#8DC868"/>
<path opacity="0.2" d="M336.402 228.052C324.617 241.34 296.528 235.801 289.36 220.917C292.075 243.765 330.758 245.551 336.402 228.052Z" fill="black"/>
<path opacity="0.3" d="M261.283 303.492C265.045 288.488 269.694 273.698 276.28 259.028C278.399 254.306 278.829 248.992 277.36 244.028C268.632 214.529 263.048 192.068 263.048 192.068L244.231 192.557C244.228 192.56 244.228 192.561 244.225 192.563C245.296 201.019 259.66 237.316 261.2 249.023C252.734 264.659 242.76 293.326 242.76 293.326C247.011 297.333 253.466 300.861 261.283 303.492Z" fill="white"/>
<path d="M316.513 131.034C323.624 127.628 330.181 123.81 336.28 118.802C339.714 115.981 340.696 111.698 341.778 107.606C342.931 103.247 344.685 99.3396 347.525 95.8162C350.422 92.2235 353.644 91.1938 355.365 86.817C356.79 83.1911 357.569 77.2238 357.213 73.3446C356.904 69.9674 355.569 65.3359 353.962 61.7869C350.488 54.1144 344.201 48.4908 336.513 45.5976C327.924 42.3652 316.463 41.6008 307.468 43.4251C291.912 46.5776 285.114 53.2505 281.148 63.2041C267.13 71.561 269.365 90.8967 270.485 95.1755C272.637 103.415 278.046 113.732 283.693 119.996C288.469 125.294 292.297 129.63 294.646 136.427C295.408 138.632 294.436 139.774 297.32 139.665C300.176 139.556 303.481 137.241 306.005 136.038C309.506 134.367 313.01 132.712 316.513 131.034Z" fill="#263238"/>
<path d="M350.138 56.8914C353.938 54.8063 358.599 54.354 362.726 55.6717C366.853 56.9879 370.388 60.0544 372.272 63.9532C369.813 60.8535 366.022 58.9327 362.095 58.4156C358.169 57.8985 354.131 58.7171 350.538 60.3861C353.443 59.8449 356.318 61.4837 358.507 63.4648C362.738 67.2942 365.529 72.6796 366.22 78.3438C365.467 75.425 363.44 73.0293 361.472 70.7437C359.516 68.4717 357.498 66.1484 354.855 64.7312C353.588 64.0527 352.203 63.5974 350.989 62.83C349.774 62.0611 348.703 60.8716 348.583 59.4408" fill="#263238"/>
<path d="M291.09 144.654C292.099 136.395 293.124 123.691 293.124 123.691C291.626 125.729 283.483 128.602 277.787 120.784C271.227 111.782 272.176 105.272 276.63 100.877C281.718 95.8568 290.727 97.0252 294.555 104.856C295.036 105.839 298.055 104.301 298.523 103.905C299.796 102.828 300.404 101.114 300.69 99.5234C301.051 97.5137 300.838 96.2849 300.146 94.5979C299.577 93.2108 299.296 92.0695 299.903 90.592C300.526 89.0753 301.699 87.8677 302.709 86.5771C305.376 83.1698 307.003 78.9604 307.323 74.6455C307.484 72.4684 307.337 70.1994 308.189 68.1882C309.418 65.2905 312.572 63.5446 315.709 63.2506C318.845 62.9566 321.969 63.8899 324.883 65.0839C326.461 65.7307 328.039 66.4665 329.736 66.6459C331.406 66.8223 333.13 66.4303 334.559 65.5498C336.943 64.0798 338.674 61.2515 341.463 60.9891C343.525 60.7946 345.412 62.1304 346.877 63.5944C350.791 67.5037 352.798 72.7685 354.33 77.9759C356.778 86.2967 357.05 95.1904 356.75 103.802C356.03 124.419 351.324 133.928 344.64 137.054C340.651 138.918 336.919 140.094 329.265 139.603C329.265 139.603 329 142.186 328.608 145.995C328.321 148.786 328.755 150.396 332.305 151.146C335.697 155.669 344.091 166.747 324.06 167.74C298.219 169.022 285.237 156.496 282.758 153.323C289.681 151.719 290.457 149.838 291.09 144.654Z" fill="#FFBDA7"/>
<path d="M303.903 105.035C304.65 109.201 302.609 113.976 298.663 115.519C299.764 113.22 300.56 110.715 300.489 108.167C300.419 105.619 299.387 103.016 297.373 101.448C296.581 100.832 295.665 100.389 294.875 99.7719C294.083 99.1553 293.397 98.2929 293.341 97.2918C293.086 92.6136 298.203 96.1536 299.545 97.4351C301.692 99.4825 303.375 102.086 303.903 105.035Z" fill="#263238"/>
<path d="M321.284 116.619L332.072 119.835C331.24 122.915 328.15 124.694 325.173 123.808C322.192 122.918 320.453 119.701 321.284 116.619Z" fill="#B16668"/>
<path d="M322.012 119.081C325.013 118.951 327.606 120.978 328.294 123.785C327.309 124.087 326.234 124.123 325.171 123.806C323.032 123.17 321.552 121.327 321.183 119.202C321.457 119.152 321.727 119.095 322.012 119.081Z" fill="#F0997A"/>
<path d="M351.984 83.8786L343.368 83.1052C343.493 80.702 345.523 78.9274 347.904 79.1415C350.281 79.3541 352.109 81.4754 351.984 83.8786Z" fill="#263238"/>
<path d="M311.227 85.1617L319.79 83.3088C319.363 80.9086 317.099 79.3799 314.734 79.891C312.37 80.4036 310.8 82.7646 311.227 85.1617Z" fill="#263238"/>
<path d="M342.464 94.8679C342.349 96.8324 343.871 98.5616 345.86 98.732C347.848 98.9009 349.552 97.443 349.666 95.4785C349.78 93.5125 348.26 91.7832 346.271 91.6159C344.283 91.447 342.577 92.9034 342.464 94.8679Z" fill="#263238"/>
<path d="M316.345 95.9955C316.23 97.96 317.751 99.6893 319.741 99.8597C321.73 100.029 323.433 98.5706 323.546 96.6062C323.661 94.6402 322.14 92.9109 320.152 92.7435C318.163 92.5732 316.457 94.0296 316.345 95.9955Z" fill="#263238"/>
<path d="M346.18 106.471L334.322 111.836L330.724 88.2793L346.18 106.471Z" fill="#F0997A"/>
<path d="M329.265 139.604C315.529 138.48 302.325 134.24 299.127 128.056C299.127 128.056 299.47 133.545 305.093 136.704C312.978 141.132 328.918 142.985 328.918 142.985L329.265 139.604Z" fill="#F0997A"/>
<path d="M181.678 351.178L182.47 349.631L171.571 347.924L166.849 348.856L181.678 351.178Z" fill="#8DC868"/>
<path d="M172.542 333.313L171.571 347.924L166.849 348.856L168.053 330.78L172.542 333.313Z" fill="#8DC868"/>
<path opacity="0.1" d="M172.542 333.313L171.571 347.924L166.849 348.856L168.053 330.78L172.542 333.313Z" fill="white"/>
<path d="M184.413 320.411L181.569 316.088L168.053 330.781L172.542 333.313L184.413 320.411Z" fill="#8DC868"/>
<path opacity="0.3" d="M184.413 320.411L181.569 316.088L168.053 330.781L172.542 333.313L184.413 320.411Z" fill="white"/>
<path d="M195.31 322.118L196.396 318.41L181.569 316.088L184.413 320.411L195.31 322.118Z" fill="#8DC868"/>
<path opacity="0.2" d="M195.31 322.118L196.396 318.41L181.569 316.088L184.413 320.411L195.31 322.118Z" fill="white"/>
<path d="M196.396 318.41L195.177 336.737L181.678 351.178L182.47 349.631L194.338 336.728L195.31 322.117L196.396 318.41Z" fill="#8DC868"/>
<path opacity="0.2" d="M196.396 318.41L195.177 336.737L181.678 351.178L182.47 349.631L194.338 336.728L195.31 322.117L196.396 318.41Z" fill="black"/>
<path d="M194.338 336.728L195.31 322.117L184.412 320.411L172.542 333.313L171.571 347.924L182.47 349.631L194.338 336.728Z" fill="#8DC868"/>
<path opacity="0.1" d="M194.338 336.728L195.31 322.117L184.412 320.411L172.542 333.313L171.571 347.924L182.47 349.631L194.338 336.728Z" fill="black"/>
<path d="M166.849 348.856L158.529 343.288L159.731 325.212L168.053 330.78L166.849 348.856Z" fill="#8DC868"/>
<path opacity="0.1" d="M166.849 348.856L158.529 343.288L159.731 325.212L168.053 330.78L166.849 348.856Z" fill="white"/>
<path d="M181.569 316.088L168.053 330.78L159.731 325.213L173.247 310.521L181.569 316.088Z" fill="#8DC868"/>
<path opacity="0.3" d="M181.569 316.088L168.053 330.78L159.731 325.213L173.247 310.521L181.569 316.088Z" fill="white"/>
<path d="M196.396 318.41L188.074 312.842L173.247 310.521L181.569 316.088L196.396 318.41Z" fill="#8DC868"/>
<path opacity="0.2" d="M196.396 318.41L188.074 312.842L173.247 310.521L181.569 316.088L196.396 318.41Z" fill="white"/>
<path d="M167.655 339.832C167.892 336.859 168.147 333.886 168.347 330.91L175.057 323.663L181.678 316.396C186.579 317.103 191.481 317.789 196.394 318.413C191.475 317.495 186.546 316.64 181.613 315.808L181.463 315.782L181.358 315.897L174.565 323.21L167.83 330.577L167.757 330.657L167.75 330.762C167.551 333.775 167.409 336.791 167.248 339.807C167.073 342.821 166.985 345.84 166.849 348.857C167.116 345.848 167.429 342.843 167.655 339.832Z" fill="#8DC868"/>
<path d="M173.247 310.521L169.568 310.989L158.314 323.221L159.731 325.213L173.247 310.521Z" fill="#8DC868"/>
<path opacity="0.3" d="M173.247 310.521L169.568 310.989L158.314 323.221L159.731 325.213L173.247 310.521Z" fill="white"/>
<path d="M157.313 338.271L158.529 343.288L159.731 325.213L158.314 323.221L157.313 338.271Z" fill="#8DC868"/>
<path opacity="0.1" d="M157.313 338.271L158.529 343.288L159.731 325.213L158.314 323.221L157.313 338.271Z" fill="white"/>
<path d="M158.529 343.288C158.613 340.268 158.719 337.248 158.877 334.233C159.01 331.216 159.225 328.204 159.396 325.19L159.402 325.072L159.483 324.984C161.737 322.535 164.007 320.103 166.288 317.68C168.578 315.267 170.895 312.877 173.247 310.519C171.093 313.059 168.905 315.567 166.689 318.05C164.464 320.524 162.23 322.989 159.978 325.439L160.066 325.234C159.835 328.245 159.649 331.257 159.381 334.266C159.139 337.275 158.844 340.283 158.529 343.288Z" fill="#8DC868"/>
<path opacity="0.1" d="M195.31 322.117L184.654 321.149L173.287 333.646L172.218 347.545L182.47 349.631L171.571 347.924L172.542 333.313L184.412 320.411L195.31 322.117Z" fill="white"/>
<path d="M221.676 368.663C222.516 369.226 223.728 369.233 225.111 368.552C227.879 367.19 230.288 363.593 230.493 360.516C230.596 358.978 230.127 357.861 229.288 357.299C228.778 356.958 190.389 331.27 189.879 330.928C189.039 330.366 187.828 330.358 186.444 331.04C183.676 332.401 181.266 335.998 181.062 339.075C180.959 340.613 181.429 341.73 182.269 342.293C182.777 342.634 221.166 368.321 221.676 368.663Z" fill="#8DC868"/>
<path d="M229.288 357.3C228.842 357.001 199.354 337.269 191.683 332.137C189.879 330.93 191.172 328.578 190.342 327.834C189.511 327.091 184.327 327.982 181.047 332.184C177.768 336.387 177.578 341.77 178.626 342.468C179.676 343.167 181.566 341.803 183.363 343.024C189.689 347.257 221.215 368.353 221.676 368.662C222.517 369.224 223.728 369.232 225.111 368.55C227.879 367.189 230.29 363.591 230.493 360.514C230.597 358.978 230.128 357.861 229.288 357.3Z" fill="#8DC868"/>
<path opacity="0.2" d="M225.945 366.913C224.939 366.096 223.72 365.45 222.637 364.737C219.818 362.883 216.999 361.025 214.179 359.17C205.957 353.752 197.5 348.652 189.549 342.842C188.381 341.988 187.205 341.091 185.173 339.585C183.996 338.714 182.316 338.95 181.483 337.455C181.106 336.778 181.086 335.959 181.168 335.189C181.379 333.197 182.239 331.291 183.556 329.782C182.67 330.421 181.806 331.21 181.047 332.184C177.768 336.387 177.578 341.77 178.626 342.468C179.676 343.167 181.566 341.803 183.363 343.024C189.689 347.257 221.215 368.353 221.676 368.662C222.517 369.224 223.728 369.232 225.111 368.55C225.61 368.304 226.09 367.965 226.556 367.591C226.371 367.333 226.17 367.095 225.945 366.913Z" fill="black"/>
<path d="M230.495 360.516C230.597 358.978 230.128 357.861 229.29 357.299C228.449 356.736 227.238 356.729 225.853 357.41C223.085 358.772 220.675 362.369 220.471 365.446C220.368 366.984 220.838 368.101 221.678 368.663C222.518 369.226 223.729 369.233 225.114 368.552C227.881 367.19 230.29 363.593 230.495 360.516Z" fill="#8DC868"/>
<path d="M235.041 386.886L235.833 385.34L224.935 383.633L220.213 384.565L235.041 386.886Z" fill="#8DC868"/>
<path d="M225.906 369.022L224.935 383.632L220.213 384.564L221.417 366.489L225.906 369.022Z" fill="#8DC868"/>
<path opacity="0.1" d="M225.906 369.022L224.935 383.632L220.213 384.564L221.417 366.489L225.906 369.022Z" fill="white"/>
<path d="M237.776 356.119L234.933 351.797L221.417 366.489L225.906 369.022L237.776 356.119Z" fill="#8DC868"/>
<path opacity="0.3" d="M237.776 356.119L234.933 351.797L221.417 366.489L225.906 369.022L237.776 356.119Z" fill="white"/>
<path d="M248.674 357.826L249.76 354.119L234.933 351.797L237.776 356.119L248.674 357.826Z" fill="#8DC868"/>
<path opacity="0.2" d="M248.674 357.826L249.76 354.119L234.933 351.797L237.776 356.119L248.674 357.826Z" fill="white"/>
<path d="M249.76 354.119L248.541 372.446L235.042 386.886L235.833 385.339L247.702 372.437L248.674 357.826L249.76 354.119Z" fill="#8DC868"/>
<path opacity="0.2" d="M249.76 354.119L248.541 372.446L235.042 386.886L235.833 385.339L247.702 372.437L248.674 357.826L249.76 354.119Z" fill="black"/>
<path d="M247.702 372.437L248.673 357.826L237.776 356.119L225.906 369.022L224.935 383.632L235.833 385.339L247.702 372.437Z" fill="#8DC868"/>
<path opacity="0.1" d="M247.702 372.437L248.673 357.826L237.776 356.119L225.906 369.022L224.935 383.632L235.833 385.339L247.702 372.437Z" fill="black"/>
<path d="M220.213 384.564L211.892 378.996L213.095 360.921L221.417 366.489L220.213 384.564Z" fill="#8DC868"/>
<path opacity="0.1" d="M220.213 384.564L211.892 378.996L213.095 360.921L221.417 366.489L220.213 384.564Z" fill="white"/>
<path d="M234.933 351.797L221.417 366.489L213.094 360.921L226.61 346.229L234.933 351.797Z" fill="#8DC868"/>
<path opacity="0.3" d="M234.933 351.797L221.417 366.489L213.094 360.921L226.61 346.229L234.933 351.797Z" fill="white"/>
<path d="M249.76 354.119L241.437 348.551L226.611 346.229L234.933 351.797L249.76 354.119Z" fill="#8DC868"/>
<path opacity="0.2" d="M249.76 354.119L241.437 348.551L226.611 346.229L234.933 351.797L249.76 354.119Z" fill="white"/>
<path d="M221.019 375.541C221.255 372.568 221.51 369.595 221.711 366.619L228.421 359.371L235.041 352.104C239.941 352.811 244.845 353.497 249.758 354.122C244.839 353.203 239.909 352.349 234.975 351.516L234.826 351.491L234.718 351.605L227.926 358.919L221.19 366.287L221.118 366.367L221.111 366.472C220.911 369.485 220.77 372.501 220.608 375.517C220.433 378.531 220.346 381.55 220.21 384.567C220.48 381.556 220.792 378.552 221.019 375.541Z" fill="#8DC868"/>
<path d="M226.611 346.229L222.931 346.698L211.678 358.93L213.095 360.921L226.611 346.229Z" fill="#8DC868"/>
<path opacity="0.3" d="M226.611 346.229L222.931 346.698L211.678 358.93L213.095 360.921L226.611 346.229Z" fill="white"/>
<path d="M210.677 373.979L211.892 378.997L213.095 360.921L211.678 358.93L210.677 373.979Z" fill="#8DC868"/>
<path opacity="0.1" d="M210.677 373.979L211.892 378.997L213.095 360.921L211.678 358.93L210.677 373.979Z" fill="white"/>
<path d="M211.892 378.997C211.977 375.977 212.082 372.957 212.241 369.942C212.374 366.925 212.589 363.912 212.76 360.899L212.766 360.781L212.847 360.692C215.101 358.244 217.371 355.812 219.652 353.389C221.942 350.975 224.259 348.586 226.611 346.228C224.456 348.768 222.269 351.275 220.053 353.758C217.828 356.232 215.594 358.697 213.342 361.147L213.429 360.942C213.199 363.953 213.013 366.967 212.745 369.975C212.503 372.985 212.209 375.992 211.892 378.997Z" fill="#8DC868"/>
<path opacity="0.1" d="M248.673 357.826L238.018 356.858L226.651 369.355L225.582 383.254L235.833 385.339L224.935 383.632L225.906 369.022L237.776 356.119L248.673 357.826Z" fill="white"/>
<path d="M194.406 326.147C195.486 317.619 198.8 288.347 200.094 279.282C201.795 267.368 202.19 260.688 203.712 253.288C205.413 245.011 213.813 224.492 221.368 204.795C231.122 179.366 234.24 172.324 240.76 166.803C248.191 160.51 256.4 158.757 267.925 156.682C278.455 167.738 270.335 202.566 264.672 212.766C258.288 224.266 241.463 253.628 241.463 253.628C241.463 253.628 234.673 276.687 229.068 295.672C225.85 306.568 222.366 317.503 222.366 317.503C221.032 322.784 217.715 329.608 218.972 335.261C220.228 340.915 222.168 347.529 222.168 347.529L219.296 350.648L215.268 347.918C215.268 347.918 212.428 347.577 209.744 351.592C207.99 354.219 207.587 359.23 208.842 360.076C210.097 360.92 211.483 361.843 211.483 361.843L210.699 373.631C210.699 373.631 207.531 374.834 204.279 375.421C201.027 376.007 200.971 374.83 198.403 373.174C195.836 371.519 194.374 372.892 192.213 371.412C190.051 369.931 189.684 367.405 188.259 366.69C186.833 365.975 185.293 364.976 184.423 361.957C183.553 358.939 183.782 351.467 183.648 347.446C183.513 343.427 193.567 332.771 194.406 326.147Z" fill="#FFBDA7"/>
<path d="M478.722 18.3257L392.263 68.3076C391.309 68.8579 390.535 70.1967 390.535 72.7854V118.347C390.535 119.499 391.313 120.8 392.272 121.341L399.147 125.247C400.106 125.789 401.658 125.781 402.611 125.231L489.07 75.2489C490.025 74.6986 490.797 73.3598 490.797 72.2577V25.1886C490.797 24.088 490.019 22.7552 489.059 22.214L482.185 18.3076C481.227 17.7664 479.676 17.7739 478.722 18.3257Z" fill="#8DC868"/>
<path opacity="0.3" d="M478.722 18.3257L392.263 68.3076C391.309 68.8579 390.535 70.1967 390.535 72.7854V118.347C390.535 119.499 391.313 120.8 392.272 121.341L399.147 125.247C400.106 125.789 401.658 125.781 402.611 125.231L489.07 75.2489C490.025 74.6986 490.797 73.3598 490.797 72.2577V25.1886C490.797 24.088 490.019 22.7552 489.059 22.214L482.185 18.3076C481.227 17.7664 479.676 17.7739 478.722 18.3257Z" fill="white"/>
<path d="M402.612 125.231C401.691 125.764 400.011 125.782 399.144 125.252L392.272 121.339C391.315 120.806 390.533 119.538 390.533 118.348V72.7867C390.533 70.7257 390.934 70.0533 391.14 69.5693L401.393 75.4673C401.194 75.8472 400.875 76.3297 400.883 77.1664V124.236C400.884 125.265 401.595 125.82 402.612 125.231Z" fill="#8DC868"/>
<path d="M385.8 109.118C384.714 108.472 376.44 103.811 376.176 103.661C375.378 103.174 375.09 101.993 375.832 101.196L390.533 84.3491L400.881 90.2802L385.506 106.697C384.788 107.463 385.073 108.592 385.8 109.118Z" fill="#8DC868"/>
<path opacity="0.3" d="M385.8 109.118C384.714 108.472 376.44 103.811 376.176 103.661C375.378 103.174 375.09 101.993 375.832 101.196L390.533 84.3491L400.881 90.2802L385.506 106.697C384.788 107.463 385.073 108.592 385.8 109.118Z" fill="white"/>
<path d="M489.072 24.1922L402.612 74.1741C401.658 74.7244 400.885 76.0632 400.885 77.1653V90.2835L385.503 106.694C384.507 107.762 385.237 109.227 386.491 109.342L400.885 108.291V124.234C400.885 125.335 401.658 125.781 402.612 125.231L489.07 75.2491C490.025 74.6988 490.797 73.36 490.797 72.2579V25.1888C490.799 24.0882 490.026 23.6419 489.072 24.1922Z" fill="white"/>
<path d="M489.607 25.2582V72.2579C489.607 72.9304 489.057 73.8817 488.474 74.2179L402.076 124.165V108.292V107.011L400.797 107.104L386.531 108.146C386.378 108.11 386.286 108.003 386.249 107.908C386.231 107.861 386.177 107.72 386.372 107.51L401.754 91.0991L402.076 90.7554V90.285V77.1669C402.076 76.496 402.627 75.5431 403.209 75.2069L489.607 25.2582ZM489.842 23.9556C489.61 23.9556 489.348 24.0309 489.07 24.1908L402.612 74.1742C401.658 74.7245 400.885 76.0633 400.885 77.1654V90.2835L385.503 106.694C384.507 107.762 385.237 109.227 386.491 109.342L400.885 108.291V124.234C400.885 125.015 401.274 125.466 401.841 125.466C402.073 125.466 402.336 125.391 402.613 125.23L489.072 75.2476C490.026 74.6973 490.799 73.3585 490.799 72.2564V25.1888C490.799 24.4079 490.41 23.9556 489.842 23.9556Z" fill="#8DC868"/>
<path d="M410.821 103.643C410.738 103.52 410.697 103.27 410.697 102.889V102.498C410.697 102.117 410.738 101.817 410.821 101.598C410.904 101.381 411.035 101.22 411.216 101.116L414.035 99.489V84.0686L410.991 86.4568C410.812 86.5608 410.676 86.4432 410.584 86.1055C410.495 85.7663 410.45 85.3863 410.45 84.9657C410.45 84.6235 410.599 84.3189 410.899 84.043L415.592 80.013C415.772 79.909 415.944 79.8743 416.111 79.909C416.275 79.9452 416.358 80.0522 416.358 80.2316V98.1487L418.706 96.7948C418.887 96.6908 419.018 96.6998 419.101 96.8219C419.184 96.9455 419.224 97.1973 419.224 97.5788V97.9692C419.224 98.3507 419.184 98.6507 419.101 98.8663C419.018 99.0849 418.887 99.2462 418.706 99.3503L411.216 103.671C411.035 103.775 410.904 103.766 410.821 103.643Z" fill="#37474F"/>
<path d="M421.03 97.3167V95.1231C421.03 94.6225 421.361 94.1823 422.021 93.7993L422.518 93.5129C423.178 93.1314 423.51 93.1902 423.51 93.6908V95.8844C423.51 96.3865 423.178 96.8282 422.518 97.2097L422.021 97.4961C421.361 97.8791 421.03 97.8188 421.03 97.3167Z" fill="#37474F"/>
<path d="M425.271 94.8699V92.6763C425.271 92.1757 425.602 91.7355 426.263 91.3526L426.759 91.0661C427.42 90.6847 427.752 90.7435 427.752 91.244V93.4377C427.752 93.9397 427.419 94.3814 426.759 94.7629L426.263 95.0493C425.601 95.4323 425.271 95.372 425.271 94.8699Z" fill="#37474F"/>
<path d="M429.511 92.4227V90.229C429.511 89.7285 429.841 89.2882 430.503 88.9053L431 88.6188C431.66 88.2374 431.991 88.2962 431.991 88.7967V90.9904C431.991 91.4924 431.659 91.9342 431 92.3156L430.503 92.6021C429.841 92.985 429.511 92.9247 429.511 92.4227Z" fill="#37474F"/>
<path d="M436.649 88.4245C436.551 88.1019 436.502 87.7476 436.502 87.3662C436.502 87.1264 436.525 86.9531 436.57 86.8475L441.758 73.9646C442.238 72.7841 442.562 71.8825 442.728 71.2553C442.894 70.6281 442.977 70.0251 442.977 69.4431C442.977 68.5611 442.77 67.9988 442.357 67.756C441.942 67.5148 441.382 67.5977 440.676 68.0048C440.15 68.3079 439.717 68.6591 439.381 69.0526C439.041 69.4491 438.655 69.9527 438.219 70.5648C437.993 70.9357 437.836 71.1468 437.745 71.198C437.564 71.3021 437.37 71.2041 437.159 70.9055C436.947 70.607 436.843 70.3176 436.843 70.0356C436.843 69.615 437.055 69.0979 437.475 68.4827C437.896 67.8706 438.421 67.2706 439.053 66.6856C439.685 66.1006 440.295 65.6378 440.882 65.3001C442.233 64.5191 443.316 64.3608 444.129 64.8252C444.941 65.2895 445.347 66.3117 445.347 67.8947C445.347 68.5973 445.276 69.2893 445.132 69.9723C444.989 70.6568 444.737 71.4815 444.377 72.4539C444.016 73.4233 443.475 74.7471 442.754 76.4266L439.459 84.8484L444.894 81.7124C445.075 81.6084 445.206 81.6144 445.289 81.7245C445.372 81.8376 445.413 82.0848 445.413 82.4663V82.8568C445.413 83.2382 445.372 83.5367 445.289 83.7538C445.206 83.9724 445.075 84.1337 444.894 84.2378L437 88.7939C436.863 88.8723 436.747 88.7502 436.649 88.4245Z" fill="#37474F"/>
<path d="M447.196 82.219V80.0254C447.196 79.5249 447.527 79.0846 448.189 78.7017L448.684 78.4152C449.346 78.0338 449.676 78.0926 449.676 78.5931V80.7868C449.676 81.2888 449.344 81.7306 448.684 82.112L448.189 82.3985C447.525 82.7799 447.196 82.7211 447.196 82.219Z" fill="#37474F"/>
<path d="M451.435 79.7718V77.5781C451.435 77.0776 451.767 76.6374 452.428 76.2544L452.924 75.968C453.585 75.5865 453.917 75.6453 453.917 76.1459V78.3395C453.917 78.8416 453.585 79.2833 452.924 79.6647L452.428 79.9512C451.767 80.3326 451.435 80.2738 451.435 79.7718Z" fill="#37474F"/>
<path d="M455.677 77.325V75.1314C455.677 74.6308 456.007 74.1906 456.669 73.8076L457.166 73.5212C457.826 73.1397 458.158 73.1985 458.158 73.6991V75.8927C458.158 76.3948 457.825 76.8365 457.166 77.218L456.669 77.5044C456.007 77.8859 455.677 77.8271 455.677 77.325Z" fill="#37474F"/>
<path d="M464.811 72.6996C464.163 72.9031 463.634 72.974 463.221 72.9122C462.806 72.8488 462.599 72.6393 462.599 72.279C462.599 71.997 462.709 71.5794 462.928 71.0231C463.145 70.4683 463.329 70.1441 463.48 70.0582C463.556 70.0145 463.727 70.0054 463.999 70.0295C464.375 70.0732 464.743 70.0657 465.103 70.0069C465.464 69.9496 465.886 69.7823 466.367 69.5049C467.119 69.0707 467.773 68.3877 468.328 67.4559C468.885 66.5242 469.166 65.3859 469.166 64.0426C469.166 62.7415 468.909 61.9515 468.396 61.6756C467.886 61.3982 467.141 61.5429 466.165 62.1068L465.284 62.6149C465.105 62.7189 464.973 62.7098 464.891 62.5877C464.806 62.4641 464.767 62.2123 464.767 61.8324V61.4419C464.767 61.062 464.806 60.768 464.891 60.5599C464.973 60.3519 465.105 60.1951 465.284 60.091L466.029 59.6614C466.63 59.3146 467.129 58.8427 467.529 58.2411C467.929 57.6411 468.217 57.0169 468.396 56.3731C468.577 55.7264 468.669 55.1444 468.669 54.6228C468.669 53.8614 468.491 53.3111 468.138 52.9749C467.785 52.6372 467.201 52.702 466.39 53.1709C465.939 53.4317 465.557 53.7212 465.251 54.0393C464.942 54.3589 464.66 54.6801 464.405 55.0087C464.147 55.3359 463.99 55.5183 463.931 55.553C463.78 55.6404 463.599 55.5228 463.39 55.2032C463.178 54.8851 463.074 54.5745 463.074 54.273C463.074 53.7724 463.47 53.1241 464.258 52.3281C465.047 51.5306 465.862 50.8898 466.705 50.4043C468.028 49.6415 469.078 49.4982 469.852 49.9716C470.627 50.4465 471.015 51.4959 471.015 53.1196C471.015 54.2021 470.807 55.2228 470.395 56.1817C469.98 57.1421 469.436 57.9984 468.758 58.7492V58.8683C469.556 58.7296 470.218 58.9889 470.743 59.6478C471.271 60.3051 471.532 61.3665 471.532 62.8289C471.532 64.1527 471.326 65.404 470.912 66.583C470.501 67.7635 469.932 68.8023 469.209 69.7009C468.487 70.5994 467.675 71.3065 466.773 71.8282C466.112 72.2051 465.458 72.4976 464.811 72.6996Z" fill="#37474F"/>
<path d="M473.361 67.1199V64.9263C473.361 64.4257 473.691 63.984 474.353 63.6026L474.85 63.3161C475.51 62.9347 475.842 62.9935 475.842 63.494V65.6877C475.842 66.1897 475.509 66.6314 474.85 67.0129L474.353 67.2993C473.691 67.6823 473.361 67.622 473.361 67.1199Z" fill="#37474F"/>
<path d="M477.603 64.6727V62.479C477.603 61.9785 477.933 61.5367 478.595 61.1553L479.09 60.8688C479.751 60.4874 480.082 60.5462 480.082 61.0467V63.2404C480.082 63.7424 479.751 64.1842 479.09 64.5656L478.595 64.8521C477.933 65.235 477.603 65.1747 477.603 64.6727Z" fill="#37474F"/>
<path d="M481.841 62.2259V60.0322C481.841 59.5317 482.173 59.09 482.834 58.7085L483.33 58.4221C483.992 58.0406 484.323 58.0994 484.323 58.6V60.7936C484.323 61.2957 483.991 61.7374 483.33 62.1188L482.834 62.4053C482.173 62.7882 481.841 62.7279 481.841 62.2259Z" fill="#37474F"/>
</svg>
