<svg width="36" height="36" viewBox="0 0 36 36" fill="none" xmlns="http://www.w3.org/2000/svg">
    <rect x="0.5" y="0.5" width="35" height="35" rx="9.5" stroke="currentColor"/>
    <path d="M20.8018 12.3446C23.2022 13.4171 24.875 15.8255 24.875 18.6246C24.875 22.4215 21.797 25.4996 18 25.4996C14.203 25.4996 11.125 22.4215 11.125 18.6246C11.125 16.7812 11.8505 15.1073 13.0315 13.8728C13.6703 14.7648 14.5171 15.4976 15.501 16.0004C15.5386 13.6874 16.6233 11.6289 18.3018 10.2783C18.9379 11.1314 19.7816 11.8484 20.8018 12.3446Z" stroke="currentColor" stroke-width="1.5" stroke-linecap="round" stroke-linejoin="round"/>
    <path d="M18 22.9999C19.7259 22.9999 21.125 21.6008 21.125 19.8749C21.125 18.2888 19.9434 16.9787 18.4124 16.7769C17.5721 17.5307 16.9885 18.5648 16.8086 19.7321C16.1564 19.5727 15.5544 19.2853 15.0307 18.8981C14.9297 19.2055 14.875 19.5338 14.875 19.8749C14.875 21.6008 16.2741 22.9999 18 22.9999Z" stroke="currentColor" stroke-width="1.5" stroke-linecap="round" stroke-linejoin="round"/>
</svg>
