<svg width="36" height="36" viewBox="0 0 36 36" fill="none" xmlns="http://www.w3.org/2000/svg">
    <rect x="0.5" y="0.5" width="35" height="35" rx="9.5" stroke="currentColor"/>
    <path d="M18 10.5V24.875M18 24.875C16.7733 24.875 15.5983 25.0959 14.5124 25.5M18 24.875C19.2267 24.875 20.4017 25.0959 21.4876 25.5M23.625 12.1424C21.7871 11.8838 19.9092 11.75 18 11.75C16.0908 11.75 14.2129 11.8838 12.375 12.1424M23.625 12.1424C24.467 12.2609 25.3007 12.4056 26.125 12.5757M23.625 12.1424L25.8086 21.0801C25.9102 21.4957 25.7202 21.9364 25.3176 22.0812C24.789 22.2714 24.2191 22.375 23.625 22.375C23.0309 22.375 22.461 22.2714 21.9324 22.0812C21.5298 21.9364 21.3398 21.4957 21.4414 21.0801L23.625 12.1424ZM9.875 12.5757C10.6993 12.4056 11.533 12.2609 12.375 12.1424M12.375 12.1424L14.5586 21.0801C14.6602 21.4957 14.4702 21.9364 14.0676 22.0812C13.539 22.2714 12.9691 22.375 12.375 22.375C11.7809 22.375 11.211 22.2714 10.6824 22.0812C10.2798 21.9364 10.0898 21.4957 10.1914 21.0801L12.375 12.1424Z" stroke="currentColor" stroke-width="1.5" stroke-linecap="round" stroke-linejoin="round"/>
</svg>
