<svg width="36" height="36" viewBox="0 0 36 36" fill="none" xmlns="http://www.w3.org/2000/svg">
    <rect x="0.5" y="0.5" width="35" height="35" rx="9.5" stroke="currentColor"/>
    <path d="M22.9846 23.604C21.8434 22.0979 20.0353 21.125 18 21.125C15.9647 21.125 14.1566 22.0979 13.0154 23.604M22.9846 23.604C24.5279 22.2303 25.5 20.2287 25.5 18C25.5 13.8579 22.1421 10.5 18 10.5C13.8579 10.5 10.5 13.8579 10.5 18C10.5 20.2287 11.4721 22.2303 13.0154 23.604M22.9846 23.604C21.6596 24.7834 19.9135 25.5 18 25.5C16.0865 25.5 14.3404 24.7834 13.0154 23.604M20.5 16.125C20.5 17.5057 19.3807 18.625 18 18.625C16.6193 18.625 15.5 17.5057 15.5 16.125C15.5 14.7443 16.6193 13.625 18 13.625C19.3807 13.625 20.5 14.7443 20.5 16.125Z"
          stroke="currentColor"
          stroke-width="1.5"
          stroke-linecap="round"
          stroke-linejoin="round"/>
</svg>
