<svg width="44" height="45" viewBox="0 0 44 45" fill="none" xmlns="http://www.w3.org/2000/svg">
<path d="M37.6429 20H23.3571C20.3985 20 18 22.3985 18 25.3571V39.6429C18 42.6015 20.3985 45 23.3571 45H37.6429C40.6015 45 43 42.6015 43 39.6429V25.3571C43 22.3985 40.6015 20 37.6429 20Z" fill="#191A24"/>
<path d="M22.98 36V26.872H26.214C26.858 26.872 27.446 26.9607 27.978 27.138C28.51 27.306 28.9347 27.6 29.252 28.02C29.5787 28.4307 29.742 28.9953 29.742 29.714C29.742 30.414 29.5787 30.9833 29.252 31.422C28.9347 31.8607 28.51 32.1873 27.978 32.402C27.446 32.6073 26.858 32.71 26.214 32.71H25.038V36H22.98ZM25.038 31.072H26.046C26.5873 31.072 26.998 30.96 27.278 30.736C27.5673 30.5027 27.712 30.162 27.712 29.714C27.712 29.266 27.5673 28.9533 27.278 28.776C26.998 28.5987 26.5873 28.51 26.046 28.51H25.038V31.072ZM25.836 32.178L27.264 30.848L30.176 36H27.866L25.836 32.178ZM33.5165 36.168C32.7232 36.168 32.1492 35.916 31.7945 35.412C31.4399 34.908 31.2625 34.2173 31.2625 33.34V29.056H33.3205V33.074C33.3205 33.5407 33.3905 33.8813 33.5305 34.096C33.6799 34.3107 33.9459 34.418 34.3285 34.418C34.5899 34.418 34.8232 34.362 35.0285 34.25C35.2339 34.138 35.4532 33.928 35.6865 33.62V29.056H37.7445V36H36.0645L35.9105 35.006H35.8545C35.5465 35.3513 35.2059 35.6313 34.8325 35.846C34.4592 36.0607 34.0205 36.168 33.5165 36.168Z" fill="#FAFCF7"/>
<path d="M19.6429 0H5.35714C2.39847 0 0 2.39847 0 5.35714V19.6429C0 22.6015 2.39847 25 5.35714 25H19.6429C22.6015 25 25 22.6015 25 19.6429V5.35714C25 2.39847 22.6015 0 19.6429 0Z" fill="#8BD94D"/>
<path d="M5.288 17V7.872H11.336V9.608H7.36V11.442H10.734V13.164H7.36V15.264H11.476V17H5.288ZM13.4025 17V10.056H15.0825L15.2365 10.98H15.2925C15.5912 10.6813 15.9319 10.4247 16.3145 10.21C16.7065 9.99533 17.1639 9.888 17.6865 9.888C18.4705 9.888 19.0445 10.14 19.4085 10.644C19.7725 11.148 19.9545 11.8387 19.9545 12.716V17H17.8965V12.982C17.8965 12.5153 17.8172 12.1747 17.6585 11.96C17.5092 11.7453 17.2479 11.638 16.8745 11.638C16.5945 11.638 16.3472 11.7033 16.1325 11.834C15.9272 11.9553 15.7032 12.1327 15.4605 12.366V17H13.4025Z" fill="#FFFCFE"/>
</svg>
