<svg width="48" height="48" viewBox="0 0 48 48" fill="none" xmlns="http://www.w3.org/2000/svg">
<path opacity="0.998" fill-rule="evenodd" clip-rule="evenodd" d="M17.4999 8.5C16.8332 8.5 16.4999 8.83333 16.4999 9.5C15.8332 9.5 15.4999 9.83333 15.4999 10.5C14.8332 10.5 14.4999 10.8333 14.4999 11.5C13.8332 11.5 13.4999 11.8333 13.4999 12.5C13.1666 12.5 12.8332 12.5 12.4999 12.5C11.5177 13.1408 10.5177 13.8075 9.4999 14.5C8.58307 13.8728 7.58307 13.5394 6.4999 13.5C4.02448 12.3126 3.02448 10.3126 3.4999 7.5C5.72231 7.17798 7.55565 7.84464 8.9999 9.5C11.0193 6.28822 13.8526 4.62155 17.4999 4.5C17.4999 5.83333 17.4999 7.16667 17.4999 8.5Z" fill="#4F6068"/>
<path opacity="0.94" fill-rule="evenodd" clip-rule="evenodd" d="M21.5 8.5C23.1667 8.5 24.8333 8.5 26.5 8.5C26.5 9.5 26.5 10.5 26.5 11.5C25.5 11.5 24.5 11.5 23.5 11.5C22.8333 11.5 22.1667 11.5 21.5 11.5C18.8333 10.5 18.8333 9.5 21.5 8.5Z" fill="#495D62"/>
<path fill-rule="evenodd" clip-rule="evenodd" d="M43.5 11.5C38.1667 11.5 32.8333 11.5 27.5 11.5C27.5 10.5 27.5 9.5 27.5 8.5C32.8333 8.5 38.1667 8.5 43.5 8.5C43.5 9.5 43.5 10.5 43.5 11.5Z" fill="#445963"/>
<path opacity="0.895" fill-rule="evenodd" clip-rule="evenodd" d="M21.5 8.50008C18.8333 9.50008 18.8333 10.5001 21.5 11.5001C19.8333 13.5001 18.1667 15.5001 16.5 17.5001C15.1667 18.1668 13.8333 18.8334 12.5 19.5001C10.1667 17.8334 8.16667 15.8334 6.5 13.5001C7.58317 13.5395 8.58317 13.8729 9.5 14.5001C10.5178 13.8076 11.5178 13.1409 12.5 12.5001C12.8333 13.8334 13.1667 13.8334 13.5 12.5001C14.1667 12.5001 14.5 12.1668 14.5 11.5001C15.1667 11.5001 15.5 11.1668 15.5 10.5001C16.1667 10.5001 16.5 10.1668 16.5 9.50008C17.1667 9.50008 17.5 9.16675 17.5 8.50008C18.9613 7.31442 20.2946 7.31442 21.5 8.50008Z" fill="#8BC667"/>
<path opacity="0.884" fill-rule="evenodd" clip-rule="evenodd" d="M23.5 11.5002C24.5 11.5002 25.5 11.5002 26.5 11.5002C26.8333 11.5002 27.1667 11.5002 27.5 11.5002C32.8333 11.5002 38.1667 11.5002 43.5 11.5002C44.9587 11.4328 46.2921 11.7661 47.5 12.5002C47.5 13.5002 47.5 14.5002 47.5 15.5002C39.5789 16.6331 31.5789 16.7998 23.5 16.0002C22.2721 14.51 22.2721 13.01 23.5 11.5002Z" fill="#8CC767"/>
<path opacity="0.909" fill-rule="evenodd" clip-rule="evenodd" d="M16.5001 17.5C17.4346 18.5676 17.7679 19.901 17.5001 21.5C16.8334 21.5 16.5001 21.8333 16.5001 22.5C15.8334 22.5 15.5001 22.8333 15.5001 23.5C14.8334 23.5 14.5001 23.8333 14.5001 24.5C13.8334 24.5 13.5001 24.8333 13.5001 25.5C12.8334 25.5 12.5001 25.8333 12.5001 26.5C10.5649 27.1495 8.56482 27.4828 6.50007 27.5C4.1497 25.7867 3.1497 23.4534 3.50007 20.5C5.90322 20.393 7.73656 21.393 9.00007 23.5C10.3757 22.2949 11.5424 20.9616 12.5001 19.5C13.8334 18.8333 15.1668 18.1667 16.5001 17.5Z" fill="#465B64"/>
<path opacity="0.938" fill-rule="evenodd" clip-rule="evenodd" d="M17.5 21.5C18.5 21.5 19.5 21.5 20.5 21.5C19.0462 23.2633 19.3796 24.5967 21.5 25.5C19.8333 27.5 18.1667 29.5 16.5 31.5C15.1667 31.8333 13.8333 32.1667 12.5 32.5C9.91083 31.5806 7.91083 29.914 6.5 27.5C8.56475 27.4828 10.5648 27.1495 12.5 26.5C13.1667 26.5 13.5 26.1667 13.5 25.5C14.1667 25.5 14.5 25.1667 14.5 24.5C15.1667 24.5 15.5 24.1667 15.5 23.5C16.1667 23.5 16.5 23.1667 16.5 22.5C17.1667 22.5 17.5 22.1667 17.5 21.5Z" fill="#8CC766"/>
<path opacity="0.91" fill-rule="evenodd" clip-rule="evenodd" d="M20.5 21.4998C23.5184 21.3352 26.5184 21.5018 29.5 21.9998C30.6843 23.1453 30.6843 24.3119 29.5 25.4998C27.1667 25.4998 24.8333 25.4998 22.5 25.4998C22.1667 25.4998 21.8333 25.4998 21.5 25.4998C19.3796 24.5965 19.0462 23.2631 20.5 21.4998Z" fill="#475D63"/>
<path opacity="0.962" fill-rule="evenodd" clip-rule="evenodd" d="M43.5 25.5002C39.8333 25.5002 36.1667 25.5002 32.5 25.5002C31.3157 24.3123 31.3157 23.1457 32.5 22.0002C36.1516 21.5016 39.8183 21.3349 43.5 21.5002C43.5 22.8335 43.5 24.1669 43.5 25.5002Z" fill="#445963"/>
<path opacity="0.975" fill-rule="evenodd" clip-rule="evenodd" d="M22.5 25.5C24.8333 25.5 27.1667 25.5 29.5 25.5C30.5 25.5 31.5 25.5 32.5 25.5C36.1667 25.5 39.8333 25.5 43.5 25.5C44.8333 25.5 46.1667 25.5 47.5 25.5C47.5 26.8333 47.5 28.1667 47.5 29.5C39.1667 29.5 30.8333 29.5 22.5 29.5C22.5 28.1667 22.5 26.8333 22.5 25.5Z" fill="#8DC768"/>
<path opacity="0.987" fill-rule="evenodd" clip-rule="evenodd" d="M16.4999 31.5C17.4344 32.5676 17.7677 33.901 17.4999 35.5C16.8332 35.5 16.4999 35.8333 16.4999 36.5C15.8332 36.5 15.4999 36.8333 15.4999 37.5C14.8332 37.5 14.4999 37.8333 14.4999 38.5C13.8332 38.5 13.4999 38.8333 13.4999 39.5C13.1666 39.5 12.8332 39.5 12.4999 39.5C11.5177 40.1408 10.5177 40.8075 9.4999 41.5C8.58307 40.8728 7.58307 40.5394 6.4999 40.5C4.02448 39.3126 3.02448 37.3126 3.4999 34.5C5.72231 34.178 7.55565 34.8446 8.9999 36.5C10.3755 35.2949 11.5422 33.9616 12.4999 32.5C13.8332 32.1667 15.1666 31.8333 16.4999 31.5Z" fill="#4F6068"/>
<path opacity="0.995" fill-rule="evenodd" clip-rule="evenodd" d="M21.5 35.5C25.8333 35.5 30.1667 35.5 34.5 35.5C34.5 36.5 34.5 37.5 34.5 38.5C30.8333 38.5 27.1667 38.5 23.5 38.5C22.8333 38.5 22.1667 38.5 21.5 38.5C18.8333 37.5 18.8333 36.5 21.5 35.5Z" fill="#465B64"/>
<path fill-rule="evenodd" clip-rule="evenodd" d="M43.5 38.5C41.1667 38.5 38.8333 38.5 36.5 38.5C36.5 37.5 36.5 36.5 36.5 35.5C38.8333 35.5 41.1667 35.5 43.5 35.5C43.5 36.5 43.5 37.5 43.5 38.5Z" fill="#445964"/>
<path opacity="0.895" fill-rule="evenodd" clip-rule="evenodd" d="M21.5 35.5001C18.8333 36.5001 18.8333 37.5001 21.5 38.5001C19.1542 41.6791 16.3209 44.3457 13 46.5001C10.3483 45.0146 8.18162 43.0146 6.5 40.5001C7.58317 40.5395 8.58317 40.8729 9.5 41.5001C10.5178 40.8076 11.5178 40.1409 12.5 39.5001C12.8333 40.8334 13.1667 40.8334 13.5 39.5001C14.1667 39.5001 14.5 39.1668 14.5 38.5001C15.1667 38.5001 15.5 38.1668 15.5 37.5001C16.1667 37.5001 16.5 37.1668 16.5 36.5001C17.1667 36.5001 17.5 36.1668 17.5 35.5001C18.9613 34.3144 20.2946 34.3144 21.5 35.5001Z" fill="#8BC667"/>
<path opacity="0.884" fill-rule="evenodd" clip-rule="evenodd" d="M23.5 38.5002C27.1667 38.5002 30.8333 38.5002 34.5 38.5002C35.1667 38.5002 35.8333 38.5002 36.5 38.5002C38.8333 38.5002 41.1667 38.5002 43.5 38.5002C44.9587 38.4328 46.2921 38.7661 47.5 39.5002C47.5 40.5002 47.5 41.5002 47.5 42.5002C39.5789 43.6331 31.5789 43.7998 23.5 43.0002C22.2721 41.51 22.2721 40.01 23.5 38.5002Z" fill="#8CC767"/>
</svg>
