<svg width="31" height="32" viewBox="0 0 31 32" fill="none" xmlns="http://www.w3.org/2000/svg">
<path fill-rule="evenodd" clip-rule="evenodd" d="M15.003 0.122246C15.7521 0.0465072 16.4583 0.181262 17.1216 0.526469C21.1858 2.85254 25.25 5.17856 29.3142 7.50463C30.1715 8.10624 30.6831 8.92179 30.8491 9.95124C30.878 13.9509 30.878 17.9506 30.8491 21.9503C30.7003 23.102 30.131 23.9885 29.1413 24.6096C25.1421 26.8824 21.1499 29.1659 17.1648 31.4601C16.112 32.0207 15.0455 32.0491 13.9653 31.5452C9.86495 29.1801 5.7575 26.8257 1.64295 24.482C0.732518 23.8402 0.220902 22.9679 0.108055 21.8652C0.0792161 17.9222 0.0792161 13.9793 0.108055 10.0363C0.242044 9.05608 0.696027 8.2547 1.47 7.63228C5.51273 5.29549 9.56251 2.96942 13.6194 0.654118C14.0516 0.391373 14.5128 0.214068 15.003 0.122246Z" fill="#303240"/>
<path fill-rule="evenodd" clip-rule="evenodd" d="M8.38808 11.8658C8.38808 12.8444 8.38808 13.8231 8.38808 14.8017C13.1152 14.8017 17.8425 14.8017 22.5696 14.8017C22.5624 13.8372 22.5696 12.8727 22.5912 11.9083C22.6264 11.826 22.648 11.7409 22.6561 11.653C23.075 10.9554 23.6659 10.7639 24.4288 11.0786C24.5957 11.1933 24.7398 11.3281 24.8611 11.4828C24.9426 11.6149 25.0003 11.7567 25.0341 11.9083C25.005 14.6395 24.9762 17.3768 24.9476 20.1205C24.9495 20.1594 24.9639 20.1878 24.9909 20.2056C24.6856 20.9091 24.1523 21.1715 23.3911 20.9927C22.9594 20.8012 22.6856 20.4821 22.5696 20.0354C22.5696 19.0709 22.5696 18.1064 22.5696 17.142C17.8425 17.142 13.1152 17.142 8.38808 17.142C8.38808 18.1206 8.38808 19.0993 8.38808 20.0779C8.07924 20.9107 7.48833 21.2014 6.61539 20.9502C6.2647 20.7481 6.03412 20.4574 5.92361 20.0779C5.91639 17.3405 5.92361 14.6031 5.94522 11.8658C5.99884 11.7178 6.06369 11.576 6.13979 11.4403C6.66969 10.8529 7.275 10.7749 7.95572 11.2063C8.14994 11.3977 8.29404 11.6176 8.38808 11.8658Z" fill="#8BD94D"/>
<path fill-rule="evenodd" clip-rule="evenodd" d="M5.40432 13.8233C5.36835 15.2344 5.34673 16.6527 5.33947 18.0783C5.32451 18.1514 5.30289 18.2223 5.27461 18.291C5.27997 18.3169 5.29437 18.331 5.31785 18.3336C5.00231 18.9922 4.48347 19.2262 3.76134 19.0357C3.43516 18.8976 3.21176 18.6636 3.09117 18.3336C3.02027 16.818 3.00583 15.3004 3.04794 13.7808C3.48086 12.8303 4.15103 12.6246 5.05843 13.1638C5.22606 13.3591 5.34137 13.5789 5.40432 13.8233Z" fill="#8BD94D"/>
<path fill-rule="evenodd" clip-rule="evenodd" d="M27.8872 13.6531C27.9016 13.7666 27.9161 13.88 27.9305 13.9935C27.9377 15.3835 27.9305 16.7735 27.9089 18.1634C27.6558 18.8519 27.1585 19.1427 26.4172 19.0356C26.0065 18.9151 25.7398 18.6527 25.6173 18.2485C25.5885 16.7167 25.5885 15.1849 25.6173 13.6531C26.0177 12.8872 26.6158 12.6957 27.4116 13.0787C27.6134 13.2412 27.772 13.4327 27.8872 13.6531Z" fill="#8BD94D"/>
</svg>
