<svg width="48" height="48" viewBox="0 0 48 48" fill="none" xmlns="http://www.w3.org/2000/svg">
<path opacity="0.966" fill-rule="evenodd" clip-rule="evenodd" d="M40.5 31.4999C40.5 26.4999 40.5 21.4999 40.5 16.4999C40.5 15.8332 40.1667 15.4999 39.5 15.4999C39.8799 13.3019 39.2132 11.6353 37.5 10.4999C36.3192 8.9327 34.6526 8.09936 32.5 7.9999C24.8406 7.50021 17.1739 7.33355 9.5 7.4999C9.5 6.4999 9.5 5.4999 9.5 4.4999C19.6051 4.05045 29.6051 4.55045 39.5 5.9999C41.0488 7.21388 42.2155 8.71388 43 10.4999C43.4996 17.492 43.6663 24.492 43.5 31.4999C42.5 31.4999 41.5 31.4999 40.5 31.4999Z" fill="#17183F"/>
<path opacity="0.977" fill-rule="evenodd" clip-rule="evenodd" d="M37.5 10.4999C38.038 12.1171 38.3713 13.7838 38.5 15.4999C38.6661 21.1763 38.4994 26.843 38 32.4999C36.2785 36.1258 33.7785 36.9592 30.5 34.9999C32.0905 33.9541 33.5905 32.7874 35 31.4999C35.8174 25.9835 35.6507 20.6502 34.5 15.4999C34.1193 14.0688 33.1193 13.2354 31.5 12.9999C23.4647 12.2639 15.4647 12.4306 7.50002 13.4999C7.00747 15.8055 6.67414 18.1389 6.50002 20.4999C5.50002 20.4999 4.50002 20.4999 3.50002 20.4999C3.33593 17.8126 3.5026 15.1459 4.00002 12.4999C4.50002 11.3332 5.33335 10.4999 6.50002 9.99993C16.88 9.21475 27.2133 9.38142 37.5 10.4999Z" fill="#191A3E"/>
<path opacity="0.989" fill-rule="evenodd" clip-rule="evenodd" d="M34.5001 15.4998C35.6508 20.6501 35.8175 25.9834 35.0001 31.4998C33.5906 32.7873 32.0906 33.954 30.5001 34.9998C33.7786 36.9591 36.2786 36.1257 38.0001 32.4998C38.4995 26.8429 38.6662 21.1762 38.5001 15.4998C38.8334 15.4998 39.1668 15.4998 39.5001 15.4998C40.1668 15.4998 40.5001 15.8331 40.5001 16.4998C40.5001 21.4998 40.5001 26.4998 40.5001 31.4998C40.8958 34.0442 40.2291 36.2109 38.5001 37.9998C34.8334 38.3331 31.1668 38.6665 27.5001 38.9998C24.3929 42.2162 20.7262 44.3829 16.5001 45.4998C16.5001 44.4998 16.5001 43.4998 16.5001 42.4998C19.2394 38.7523 22.9061 36.7523 27.5001 36.4998C27.5001 35.4998 27.5001 34.4998 27.5001 33.4998C22.9616 32.8722 19.295 34.3722 16.5001 37.9998C15.5521 38.4826 14.5521 38.6493 13.5001 38.4998C14.0671 35.0884 12.7338 33.0884 9.50007 32.4998C9.33414 27.4887 9.50081 22.4887 10.0001 17.4998C10.5001 16.9998 11.0001 16.4998 11.5001 15.9998C19.1595 15.5001 26.8262 15.3334 34.5001 15.4998Z" fill="#8BC567"/>
<path fill-rule="evenodd" clip-rule="evenodd" d="M14.4999 21.5C16.4645 21.9483 16.7978 22.9483 15.4999 24.5C13.4806 23.8671 13.1473 22.8671 14.4999 21.5Z" fill="#252943"/>
<path fill-rule="evenodd" clip-rule="evenodd" d="M20.4999 21.5C22.4645 21.9483 22.7978 22.9483 21.4999 24.5C19.4806 23.8671 19.1473 22.8671 20.4999 21.5Z" fill="#252943"/>
<path fill-rule="evenodd" clip-rule="evenodd" d="M26.4999 21.5C28.4645 21.9483 28.7978 22.9483 27.4999 24.5C25.4806 23.8671 25.1473 22.8671 26.4999 21.5Z" fill="#252943"/>
<path opacity="0.967" fill-rule="evenodd" clip-rule="evenodd" d="M9.50008 32.5C12.7338 33.0886 14.0671 35.0886 13.5001 38.5C14.5521 38.6495 15.5521 38.4828 16.5001 38C19.295 34.3724 22.9616 32.8724 27.5001 33.5C27.5001 34.5 27.5001 35.5 27.5001 36.5C22.9061 36.7525 19.2394 38.7525 16.5001 42.5C14.6209 43.3414 12.6209 43.6747 10.5001 43.5C10.5001 41.1667 10.5001 38.8333 10.5001 36.5C8.17275 36.7529 6.17275 36.0863 4.50008 34.5C3.5742 30.9062 3.24087 27.2396 3.50008 23.5C4.50008 23.5 5.50008 23.5 6.50008 23.5C6.33796 25.5273 6.50462 27.5273 7.00008 29.5C7.23563 31.1193 8.06896 32.1193 9.50008 32.5Z" fill="#1A1B3F"/>
</svg>
