<svg width="48" height="48" viewBox="0 0 48 48" fill="none" xmlns="http://www.w3.org/2000/svg">
<path opacity="0.962" fill-rule="evenodd" clip-rule="evenodd" d="M41.5002 20.5C41.6664 26.5092 41.4997 32.5092 41.0002 38.5C39.4614 41.5208 36.9614 42.8541 33.5002 42.5C33.5002 41.5 33.5002 40.5 33.5002 39.5C35.1441 39.7135 36.6441 39.3802 38.0002 38.5C38.6669 31.8333 38.6669 25.1667 38.0002 18.5C34.5446 15.198 30.7112 12.5313 26.5002 10.5C26.0379 9.12011 25.0379 8.45344 23.5002 8.5C20.7779 10.7628 17.7779 12.2628 14.5002 13C13.4831 11.9505 13.3164 10.7839 14.0002 9.5C16.7664 6.90726 19.933 4.90726 23.5002 3.5C30.0385 6.86986 35.8718 11.2032 41.0002 16.5C41.4902 17.7932 41.6569 19.1266 41.5002 20.5Z" fill="#181A3E"/>
<path opacity="0.991" fill-rule="evenodd" clip-rule="evenodd" d="M26.4998 10.5C30.7108 12.5313 34.5442 15.198 37.9998 18.5C38.6665 25.1667 38.6665 31.8333 37.9998 38.5C36.6437 39.3802 35.1437 39.7135 33.4998 39.5C33.4998 40.5 33.4998 41.5 33.4998 42.5C36.961 42.8541 39.461 41.5208 40.9998 38.5C41.4993 32.5092 41.666 26.5092 41.4998 20.5C42.1172 20.6107 42.6172 20.944 42.9998 21.5C43.813 29.0799 43.6464 36.5799 42.4998 44C32.4998 44.6667 22.4998 44.6667 12.4998 44C11.9438 43.6174 11.6105 43.1174 11.4998 42.5C17.1665 42.5 22.8331 42.5 28.4998 42.5C28.4998 41.5 28.4998 40.5 28.4998 39.5C22.6418 39.8222 16.9751 39.4889 11.4998 38.5C11.4998 35.1667 11.4998 31.8333 11.4998 28.5C12.7483 31.5669 14.5816 33.5669 16.9998 34.5C18.3184 32.7505 18.8184 30.7505 18.4998 28.5C21.8331 28.5 25.1665 28.5 28.4998 28.5C28.1812 30.7505 28.6812 32.7505 29.9998 34.5C30.9145 33.6721 31.5812 32.6721 31.9998 31.5C32.6665 32.8333 33.3331 32.8333 33.9998 31.5C35.9998 28.5 35.9998 25.5 33.9998 22.5C33.3331 21.1667 32.6665 21.1667 31.9998 22.5C31.5812 21.3279 30.9145 20.3279 29.9998 19.5C28.6812 21.2495 28.1812 23.2495 28.4998 25.5C25.1665 25.5 21.8331 25.5 18.4998 25.5C18.8184 23.2495 18.3184 21.2495 16.9998 19.5C14.5816 20.4331 12.7483 22.4331 11.4998 25.5C11.3431 24.1266 11.5098 22.7932 11.9998 21.5C16.4446 17.2089 21.2779 13.5422 26.4998 10.5Z" fill="#8AC367"/>
<path opacity="0.988" fill-rule="evenodd" clip-rule="evenodd" d="M11.5 38.4999C16.9753 39.4888 22.642 39.8221 28.5 39.4999C28.5 40.4999 28.5 41.4999 28.5 42.4999C22.8333 42.4999 17.1667 42.4999 11.5 42.4999C9.27759 42.8219 7.44425 42.1553 6 40.4999C5.33333 32.4999 5.33333 24.4999 6 16.4999C7.60128 14.0275 9.60128 13.0275 12 13.4999C12.6667 14.4999 12.6667 15.4999 12 16.4999C9.07824 20.0885 7.91158 24.2552 8.5 28.9999C8.66667 31.4999 8.83333 33.9999 9 36.4999C9.41691 37.7559 10.2502 38.4225 11.5 38.4999Z" fill="#18183E"/>
<path fill-rule="evenodd" clip-rule="evenodd" d="M11.5 28.5C10.1667 27.5 10.1667 26.5 11.5 25.5C12.7485 22.4331 14.5818 20.4331 17 19.5C18.3186 21.2495 18.8186 23.2495 18.5 25.5C21.8333 25.5 25.1667 25.5 28.5 25.5C28.1814 23.2495 28.6814 21.2495 30 19.5C30.9147 20.3279 31.5814 21.3279 32 22.5C32.6667 21.1667 33.3333 21.1667 34 22.5C36 25.5 36 28.5 34 31.5C33.3333 32.8333 32.6667 32.8333 32 31.5C31.5814 32.6721 30.9147 33.6721 30 34.5C28.6814 32.7505 28.1814 30.7505 28.5 28.5C25.1667 28.5 21.8333 28.5 18.5 28.5C18.8186 30.7505 18.3186 32.7505 17 34.5C14.5818 33.5669 12.7485 31.5669 11.5 28.5Z" fill="#191A3F"/>
</svg>
