<svg width="712" height="643" viewBox="0 0 712 643" fill="none" xmlns="http://www.w3.org/2000/svg">
<g clip-path="url(#clip0_2018_6112)">
<path opacity="0.3" d="M364.08 580.355C524.31 580.355 654.201 450.438 654.201 290.178C654.201 129.917 524.31 0 364.08 0C203.851 0 73.9592 129.917 73.9592 290.178C73.9592 450.438 203.851 580.355 364.08 580.355Z" fill="#BDFC96"/>
<path d="M712 643H44.8555L115.346 545.093H641.509L712 643Z" fill="#455A64"/>
<path d="M434.76 330.799C432.85 333.342 428.625 333.012 424.988 333.805C420.308 334.822 415.542 335.438 410.772 335.854C400.032 336.789 389.206 336.716 378.444 336.206C366.271 335.631 354.097 334.49 342.047 332.668C341.44 332.723 340.292 329.78 340.081 329.012C336.848 312.942 335.565 298.993 334.425 282.703C334.337 281.354 336.413 280.752 336.987 281.953C368.853 284.903 400.793 286.775 432.806 286.707C436.725 282.426 436.408 297.039 436.388 298.443C436.256 308.05 435.966 317.659 435.785 327.265C435.759 328.838 435.383 329.971 434.76 330.799Z" fill="#FFC08C"/>
<path d="M332.676 334.175C332.676 334.175 332.681 334.175 332.685 334.176C332.681 334.176 332.676 334.175 332.676 334.175Z" fill="#A1F070"/>
<path d="M332.623 334.165C332.617 334.164 332.61 334.164 332.604 334.16C332.614 334.162 332.623 334.165 332.632 334.167C332.628 334.165 332.626 334.165 332.623 334.165Z" fill="#A1F070"/>
<path d="M332.601 334.16L332.594 334.156L332.603 334.16H332.601Z" fill="#A1F070"/>
<path d="M331.989 334.033C331.983 334.032 331.98 334.032 331.974 334.03C331.981 334.032 331.989 334.033 331.996 334.033C331.992 334.035 331.989 334.033 331.989 334.033Z" fill="#A1F070"/>
<path d="M331.948 334.026C331.943 334.024 331.935 334.022 331.93 334.022C331.944 334.026 331.959 334.028 331.976 334.032C331.965 334.03 331.955 334.028 331.948 334.026Z" fill="#A1F070"/>
<path d="M232.289 510.819C219.113 509.908 205.831 510.148 192.689 510.091C191.877 510.745 192.607 508.389 192.464 507.332C187.326 467.665 181.753 429.68 177.664 389.885C175.154 365.46 165.179 333.535 188.878 320.78C203.816 312.74 254.999 321.704 272.799 325.765C276.576 330.675 275.924 338.542 276.868 344.644C278.232 363.354 279.024 382.17 280.221 400.778C280.404 400.838 280.585 400.901 280.769 400.961C280.615 401.902 280.585 402.862 280.312 403.781C266.394 399.172 250.21 394.308 236.086 390.512C239.352 404.351 241.361 418.485 240.663 432.654C239.548 456.021 239.288 479.843 237.576 502.981C237.213 507.2 237.552 511.79 232.289 510.819Z" fill="#FFC08C"/>
<path d="M237.14 399.647C235.541 391.47 232.137 383.65 227.065 377.024C224.235 373.495 220.829 370.699 217.639 367.58C216.783 366.153 218.811 364.676 219.903 365.937C219.874 365.895 219.834 365.866 219.795 365.831C225.498 370.739 230.86 376.184 234.211 383.008C235.587 384.486 243.829 405.371 237.14 399.647Z" fill="black"/>
<path d="M239.141 475.789C240.43 475.789 238.852 488.2 238.668 494.835C238.177 512.729 237.884 530.627 237.481 548.521C240.49 554.85 216.473 556.269 212.303 555.853C209.392 555.527 192.576 554.489 195.626 549.893C193.181 528.696 190.735 507.502 188.288 486.304C188.567 483.634 185.348 475.791 188.708 475.791C205.085 475.795 222.862 475.12 239.141 475.789Z" fill="white"/>
<path d="M196.555 492.779C195.089 492.597 193.204 493.023 192.073 491.963C191.226 490.947 192.152 489.455 193.492 489.631C206.857 490.771 220.468 489.611 233.898 489.811C235.29 489.867 237.654 489.352 237.752 491.217C237.752 491.985 237.057 492.627 236.225 492.627C223.003 492.55 209.777 493.14 196.555 492.779Z" fill="#A1F070"/>
<path d="M195.474 503C193.177 503.547 192.083 500.39 194.654 500.155C207.931 500.318 221.214 499.574 234.498 499.755C236.483 499.792 236.516 502.527 234.498 502.575C221.487 502.414 208.479 503.07 195.474 503Z" fill="#A1F070"/>
<path d="M593.932 500.26C594.445 500.881 594.25 501.87 593.591 502.3C582.627 518.572 569.88 533.841 559.22 550.388C546.726 566.544 531.64 601.332 506.485 598.677C497.521 597.731 490.645 590.21 484.094 584.669C476.316 578.093 468.912 571.084 461.825 563.77C447.645 549.134 434.754 533.295 422.614 516.942C421.84 515.013 416.481 510.424 420.491 509.524C442.666 499.393 465.193 489.628 488.552 482.553C489.787 482.153 491.866 481.507 492.007 483.444C498.701 495.339 504.815 507.566 512.011 519.164C519.846 500.81 542.864 479.076 559.567 469.337C572.4 476.823 583.666 489.562 593.932 500.26Z" fill="#FFC08C"/>
<path d="M518.836 540.936C516.204 534.596 514.048 528.056 511.262 521.786C509.838 520.077 512.695 518.092 513.617 520.213C516.165 525.59 517.94 531.303 520.231 536.796C520.563 538.283 522.634 540.65 520.682 541.69C519.995 541.981 519.12 541.651 518.836 540.936Z" fill="black"/>
<path d="M239.143 590.392H127.788V598.448H239.143V590.392Z" fill="white"/>
<path d="M239.528 546.503C239.519 557.477 239.134 565.551 239.211 576.526C238.615 579.221 240.696 592.444 237.818 592.26C215.233 592.534 192.651 592.82 170.066 593.095C158.185 593.245 146.303 593.386 134.423 593.535C132.687 593.23 129.899 594.488 128.963 592.587C128.407 592.46 127.942 591.998 127.866 591.406C127.349 578.337 133.23 573.242 144.173 567.703C161.591 559.226 178.58 552.123 194.629 541.245C206.538 543.432 225.753 544.842 237.644 541.245C239.312 541.077 239.532 541.247 239.528 546.503Z" fill="#8DC868"/>
<path d="M168.465 567.742C167.118 565.391 165.69 562.874 164.275 560.595C163.168 559.11 165.369 557.419 166.506 558.873C167.347 561.189 172.551 566.277 170.397 568.248C169.743 568.631 168.848 568.411 168.465 567.742Z" fill="black"/>
<path d="M176.32 563.558C175.853 561.235 170.19 555.073 173.985 554.061C176.344 555.014 177.303 560.237 178.918 562.459C179.61 564.159 177.112 565.25 176.32 563.558Z" fill="black"/>
<path d="M184.479 559.326C184.012 557.003 178.349 550.841 182.144 549.829C184.503 550.782 185.462 556.005 187.077 558.228C187.771 559.929 185.273 561.02 184.479 559.326Z" fill="black"/>
<path d="M183.207 546.503C184.952 544.231 188.554 538.766 187.185 535.99C184.481 536.401 183.493 544.145 183.207 546.503ZM179.757 549.396C179.794 549.339 179.836 549.286 179.88 549.235C177.886 544.576 176.338 539.175 172.119 536.019C168.181 533.447 168.727 537.13 169.772 539.774C171.184 544.446 174.863 548.483 179.757 549.396ZM179.715 552.243C171.811 551.108 164.068 542.563 166.264 535.103C168.922 526.067 179.183 538.722 180.707 543.821C184.602 522.085 198.887 537.547 182.419 551.024C182.107 552.192 180.729 552.379 179.715 552.243Z" fill="black"/>
<path d="M128.075 592.344C127.894 589.352 144.146 591.435 147.147 590.749C159.298 590.63 171.451 590.513 183.605 590.392C195.679 590.267 207.754 590.164 219.828 590.036C223.128 590.663 240.045 588.232 239.964 591.25C239.974 594.202 226.902 592.17 224.172 592.815C212.048 592.925 199.926 593.063 187.802 593.169C169.84 593.34 151.878 593.525 133.915 593.697C132.086 593.344 128.548 594.856 128.075 592.344Z" fill="black"/>
<path d="M129.049 600.941C127.265 600.959 127.192 598.116 129.036 598.121C141.037 598.008 153.034 597.881 165.039 597.769C183.156 597.586 201.276 597.419 219.392 597.236C222.691 597.863 239.609 595.432 239.528 598.449C239.535 599.225 238.899 599.863 238.13 599.872C227.333 599.999 216.536 600.074 205.739 600.191C180.175 600.442 154.613 600.686 129.049 600.941Z" fill="black"/>
<path d="M554.713 469.109C553.784 468.217 563.515 460.357 568.239 455.696C580.983 443.128 593.585 430.418 606.265 417.788C608.475 411.136 626.784 426.748 629.504 429.936C631.38 432.188 642.791 444.584 637.409 445.786C624.498 462.773 611.588 479.756 598.678 496.745C596.628 498.477 593.519 506.367 591.096 504.038C579.287 492.695 565.996 480.867 554.713 469.109Z" fill="white"/>
<path d="M597.2 486.348C598.133 487.495 599.785 488.493 599.869 490.04C599.775 491.358 598.076 491.795 597.231 490.741C588.379 480.66 577.755 472.073 568.204 462.625C567.24 461.62 565.178 460.355 566.399 458.941C566.93 458.388 567.876 458.406 568.476 458.982C577.96 468.195 587.912 476.929 597.2 486.348Z" fill="#A1F070"/>
<path d="M605.055 479.721C607.091 480.918 605.695 483.953 603.676 482.341C594.21 473.029 584.114 464.364 574.655 455.034C573.249 453.633 575.119 451.637 576.607 452.999C585.883 462.128 595.723 470.664 605.055 479.721Z" fill="#A1F070"/>
<path d="M591.796 401.241L702.116 386.061L701.018 378.079L590.698 393.26L591.796 401.241Z" fill="white"/>
<path d="M597.438 444.751C595.952 433.879 595.233 425.828 593.662 414.965C593.886 412.213 590.022 399.398 592.898 399.189C615.236 395.839 637.566 392.478 659.904 389.129C671.654 387.361 683.404 385.601 695.154 383.835C696.916 383.901 699.506 382.275 700.692 384.03C701.26 384.079 701.785 384.473 701.938 385.051C704.232 397.927 699.099 403.776 689.013 410.754C672.914 421.525 649.043 433.483 634.628 446.445C622.531 445.903 611.311 444.52 600.019 449.703C598.392 450.098 598.152 449.96 597.438 444.751Z" fill="#8DC868"/>
<path d="M664.945 414.026C666.6 416.171 668.358 418.471 670.07 420.535C671.37 421.857 669.42 423.83 668.096 422.544C666.947 420.366 661.099 416.034 662.964 413.788C663.559 413.317 664.474 413.416 664.945 414.026Z" fill="black"/>
<path d="M657.734 419.24C658.513 421.477 664.962 426.811 661.341 428.331C658.874 427.707 657.213 422.663 655.31 420.682C654.392 419.092 656.718 417.671 657.734 419.24Z" fill="black"/>
<path d="M650.227 424.545C651.006 426.781 657.455 432.115 653.835 433.635C651.367 433.011 649.706 427.968 647.804 425.986C646.883 424.396 649.212 422.975 650.227 424.545Z" fill="black"/>
<path d="M652.454 437.077C651.034 439.565 648.211 445.472 649.947 448.033C652.568 447.256 652.493 439.451 652.454 437.077ZM655.477 433.738C655.448 433.798 655.415 433.859 655.376 433.914C657.987 438.257 660.256 443.398 664.866 445.949C669.117 447.96 668.076 444.387 666.679 441.91C664.646 437.474 660.452 433.976 655.477 433.738ZM655.133 430.913C663.117 430.96 671.951 438.371 670.794 446.06C669.392 455.372 657.503 444.236 655.298 439.39C654.399 461.454 638.142 448.083 652.621 432.488C652.77 431.288 654.11 430.916 655.133 430.913Z" fill="black"/>
<path d="M701.607 384.147C702.193 387.086 685.809 387.238 682.931 388.327C670.91 390.102 658.887 391.873 646.862 393.649C634.917 395.419 622.969 397.166 611.025 398.937C607.671 398.766 591.243 403.478 590.911 400.479C590.5 397.555 603.728 397.786 606.342 396.775C618.337 395.013 630.327 393.226 642.323 391.468C660.095 388.851 677.865 386.218 695.636 383.6C697.497 383.705 700.796 381.723 701.607 384.147Z" fill="black"/>
<path d="M699.471 375.763C701.235 375.502 701.695 378.307 699.869 378.555C687.994 380.304 676.127 382.062 664.25 383.811C646.328 386.463 628.399 389.097 610.477 391.748C607.123 391.578 590.695 396.29 590.363 393.29C590.249 392.524 590.792 391.803 591.554 391.691C602.234 390.095 612.919 388.549 623.598 386.961C648.891 383.227 674.182 379.499 699.471 375.763Z" fill="black"/>
<path d="M427.497 528.079C427.046 527.962 426.568 527.417 426.55 526.876C404.857 496.245 387.239 462.957 369.055 430.194C336.65 422.325 302.491 413.533 270.942 402.76C264.071 399.055 257.793 317.63 264.522 322.852C282.985 326.509 301.725 328.651 320.248 331.995C323.217 332.532 340.234 335.811 340.232 335.759C340.232 335.79 340.38 327.989 339.416 326.339C362.313 327.089 383.076 327.595 405.147 326.729C415.15 326.383 426.027 326.458 435.788 327.263C438.61 330.153 438.232 332.871 439.704 336.577C478.794 354.521 481.723 399.11 477.709 436.44C483.337 455.44 491.668 473.716 498.901 492.151C499.849 496.196 485.643 502.699 483.282 504.503C465.657 513.897 446.923 524.295 427.497 528.079Z" fill="#8DC868"/>
<path d="M430.188 518.657C428.539 518.308 428.797 515.971 430.418 515.793C450.22 509.348 468.96 499.945 487.353 490.268C501.391 490.64 433.231 519.042 430.188 518.657Z" fill="black"/>
<path d="M370.127 424.466C366.335 415.099 362.79 405.62 359.316 396.132C353.542 378.929 348.493 361.398 344.712 343.632C344.78 343.403 344.796 343.144 344.725 342.853C344.299 341.089 343.911 339.316 343.539 337.541C343.473 336.617 343.39 335.684 343.031 335.035C342.375 331.696 341.786 328.341 341.253 324.975C336.575 319.328 339.524 332.864 341.15 339.848C346.693 369.267 356.321 397.85 367.528 425.566C368.247 427.277 370.844 426.107 370.127 424.466Z" fill="black"/>
<path d="M404.808 337.891C402.131 337.057 348.301 339.527 359.395 334.307C384.466 334.224 409.792 336.854 434.724 333.537C445.513 338.087 406.976 338.17 404.808 337.891Z" fill="black"/>
<path d="M453.001 197.569C447.276 186.259 447.276 171.215 431.988 162.736C426.044 159.439 418.959 162.651 418.548 159.729C417.347 151.18 415.954 142.537 414.205 124.316C417.221 123.242 415.808 107.973 413.687 102.704C413.582 101.153 414.801 99.8178 415.533 98.5289C419.098 92.6582 421.926 81.951 414.026 78.3648C408.208 76.7239 402.47 74.5384 397.842 70.5415C390.381 64.0988 384.588 54.4623 375.117 50.7881C365.541 47.0717 355.336 50.5498 346.206 53.9123C342.943 55.1132 343.792 61.4788 343.748 64.3463C343.665 69.8356 343.746 75.3286 343.942 80.8143C344.371 92.8526 344.945 105.412 348.228 117.069C350.381 129.494 352.755 136.254 354.751 137.354C359.215 139.814 368.533 139.077 374.6 137.713C375.485 146.845 377.335 154.85 377.529 163.486C373.486 167.769 356.178 189.198 348.163 198.319C345.595 201.242 329.396 219.547 335.363 220.606C335.222 221.45 335.742 222.425 337.141 222.469C357.868 231.827 378.972 240.473 400.069 249.01C411.115 253.914 422.148 260.328 433.94 262.766C435.99 263.127 436.032 264.458 437.574 261.646C439.342 258.421 439.773 254.09 440.345 250.526C442.93 234.392 462.698 216.73 453.001 197.569Z" fill="#FFC08C"/>
<path d="M530.881 99.5664C539.295 109.771 535.159 123.11 526.811 131.853C526.7 150.501 506.18 161.206 489.512 156.264C477.956 167.398 455.03 149.291 466.34 136.296C467.488 134.968 470.27 134.484 470.254 136.882C460.12 159.076 499.627 144.674 487.004 112.826C483.818 109.397 479.401 107.626 475.449 105.268C468.382 101.051 461.468 97.1463 457.33 89.697C455.334 86.1035 454.15 82.1268 453.364 78.1079C452.478 73.5848 453.252 68.8546 452.064 64.3737C450.737 59.3647 445.943 58.3141 441.755 56.6457C439.817 55.8738 437.702 54.7976 436.162 53.3694C434.098 51.4571 434.234 49.774 433.374 47.3759C431.453 42.0168 448.517 31.7385 462.016 32.6754C489.046 34.5528 480.599 75.5319 503.559 84.0262C512.832 88.619 524.256 91.0739 530.881 99.5664ZM532.787 111.273C531.911 104.381 527.966 99.3941 522.595 95.8922C528.809 103.178 531.394 113.427 529.922 122.877C531.825 119.327 532.84 115.253 532.787 111.273ZM484.48 107.184C477.507 96.7081 464.921 90.6083 457.387 80.7242C461.147 92.4435 473.245 101.499 484.48 107.184Z" fill="#263238"/>
<path d="M446.741 75.589C445.857 58.6187 436.525 44.1437 422 36.1683C411.791 30.5617 399.222 27.8317 387.705 28.2369C373.453 28.7392 362.493 32.7709 350.347 39.397C346.596 41.4431 340.914 44.8679 340.525 49.8952C340.298 52.836 342.793 55.9896 346.165 55.5972C355.489 54.5173 356.651 55.6265 359.807 55.9565C374.602 57.504 387.032 62.6211 393.391 70.3912C394.21 71.3922 402.129 80.134 402.331 79.8774C415.302 78.7168 416.977 91.1695 411.559 99.1798C406.62 106.48 401.922 102.621 403.603 107.181C404.804 114.938 405.59 116.99 407.498 124.03C408.664 128.326 415.346 127.013 418.447 126.536C422.997 125.84 427.417 124.285 431.385 121.949C434.351 120.204 437.161 118.029 439.124 115.167C441.192 112.151 442.087 108.517 442.888 105.001C443.44 102.575 443.958 100.142 444.453 97.7038C447.036 90.7001 447.969 83.1005 446.741 75.589ZM438.3 112.423C436.736 115.444 434.179 117.688 431.347 119.496C428.879 121.071 426.218 122.312 423.435 123.205C424.35 122.664 425.222 122.092 426.038 121.511C430.758 118.145 434.947 113.983 438.347 109.223C439.124 108.134 439.852 107.01 440.54 105.861C440.008 108.125 439.363 110.371 438.3 112.423Z" fill="#263238"/>
<path d="M355.903 119.91C353.8 119.806 345.126 118.539 349.078 115.457C351.351 115.937 353.639 117.113 356.156 117.107C361.91 118.214 366.985 111.9 368.38 113.959C369.563 118.02 358.997 120.367 355.903 119.91Z" fill="black"/>
<path d="M374.283 138.134C374.101 136.486 376 136.468 377.155 136.248C382.651 135.133 387.752 132.817 392.577 130.027C394.186 129.134 395.579 131.488 394.001 132.462C391.217 134.084 375.758 142.102 374.283 138.134Z" fill="black"/>
<path d="M405.399 105.67C403.746 105.778 403.52 103.349 405.17 103.156C407.172 103.05 408.91 101.816 410.268 100.423C413.991 96.3983 416.902 86.6774 411.133 83.2691C409.654 82.5321 410.691 80.3063 412.202 80.9828C421.77 86.0981 415.342 104.962 405.399 105.67Z" fill="black"/>
<path d="M403.242 92.6858C400.433 91.1806 405.865 85.8636 407.769 85.4126C409.271 84.571 412.016 85.9993 410.303 87.6255C409.626 88.1499 408.924 87.4825 408.238 87.928C405.892 88.6027 405.362 92.9792 403.242 92.6858Z" fill="black"/>
<path d="M442.371 55.2746C440.244 50.9073 437.504 46.8628 434.259 43.2472C433.348 42.2315 431.856 43.7313 432.764 44.7433C435.889 48.2269 438.498 52.1339 440.545 56.3416C441.139 57.5664 442.963 56.4938 442.371 55.2746Z" fill="black"/>
<path d="M395.184 82.787C394.684 78.0457 393.978 73.3283 393.265 68.5944C392.662 64.5993 393.01 59.4455 387.711 59.2273C374.395 58.6828 360.999 60.2871 347.702 61.2881C341.042 61.7886 334.194 62.467 327.708 64.0273C323.28 65.0925 319.863 66.2769 319.592 71.0787C319.04 80.8747 320.675 90.7587 322.534 100.366C324.55 110.793 341.125 108.538 349.28 107.993C360.739 107.228 372.091 105.503 383.43 103.848C385.808 103.501 388.187 103.129 390.581 102.883C395.602 102.366 396.156 97.5223 395.992 93.5694C395.844 89.9759 395.562 86.3622 395.184 82.787Z" fill="#A1F070"/>
<path d="M379.959 102.251C379.231 88.1279 378.998 74.0563 376.828 60.08C376.969 58.9891 378.479 58.4959 379.256 59.3448C381.733 70.0594 381.654 81.5569 382.329 92.5483C382.441 95.6945 382.492 98.837 382.758 101.974C382.904 103.743 380.19 104.035 379.959 102.251Z" fill="black"/>
<path d="M439.594 82.3379C423.492 83.6892 390.341 85.1339 389.467 84.7892C389.56 89.3545 389.368 96.4499 389.58 101.015C389.492 102.845 386.832 102.79 386.832 100.923C386.248 87.2203 385.593 73.4073 384.482 59.9645C388.513 56.7762 387.393 67.7089 388.051 69.8211C405.257 68.9923 422.456 68.1526 439.66 67.3184C446.285 66.7446 447.28 66.7427 448.492 68.226C449.703 69.7092 449.654 72.5639 449.452 78.9076C449.326 82.8824 441.938 81.5587 439.594 82.3379Z" fill="black"/>
<path d="M336.324 70.3655C340.527 68.9207 333.206 82.6275 333.151 84.6699C332.156 87.0167 331.752 89.7944 330.147 91.7983C329.052 92.5775 327.828 90.9604 328.874 90.1115C328.83 90.1427 328.794 90.1812 328.757 90.2215C331.752 83.8485 333.098 76.535 336.324 70.3655Z" fill="#BAA2F5"/>
<path d="M345.158 66.7448C347.53 67.9255 339.393 83.3905 338.834 86.7292C337.422 89.0668 335.019 100.423 332.425 99.8236C331.778 99.5394 331.573 98.6208 332.101 98.1222C336.018 88.8065 339.327 79.1809 342.984 69.7846C343.57 68.7579 343.532 66.4532 345.158 66.7448Z" fill="#BAA2F5"/>
<path d="M369.796 87.9461C369.997 89.2661 371.229 90.1737 372.549 89.972C373.869 89.7703 374.776 88.5383 374.574 87.2182C374.375 85.8981 373.141 84.9906 371.821 85.1904C370.501 85.3921 369.594 86.626 369.796 87.9461Z" fill="#BAA2F5"/>
<path d="M370.414 96.7194C370.614 98.0394 371.847 98.947 373.167 98.7453C374.487 98.5455 375.394 97.3116 375.193 95.9915C374.991 94.6714 373.759 93.7639 372.439 93.9655C371.119 94.1654 370.212 95.3993 370.414 96.7194Z" fill="#BAA2F5"/>
<path d="M634.155 444.923C636.217 447.934 636.142 451.854 632.729 453.771C632.366 454.089 631.743 454.303 631.801 454.873C631.856 459.329 630.659 463.721 626.341 464.618C624.427 465.016 626.273 469.068 625.312 470.914C623.763 473.886 618.532 473.224 614.319 469.491C617.809 475.032 618.632 481.792 609.96 480.582C601.764 474.753 595.917 465.973 588.278 459.378C588.268 464.057 587.884 468.791 586.081 473.129C583.019 479.995 579.964 479.792 578.404 473.136C574.686 457.255 568.842 450.392 569.336 438.754C547.797 417.083 525.637 395.51 507.462 370.821C495.813 355.971 486.776 339.312 476.36 323.621C461.815 304.97 445.41 287.631 428.872 270.804C404.115 248.276 391.219 211.478 405.801 179.833C408.212 174.406 412.268 169.954 416.239 165.62C417.81 164.498 422.754 160.673 424.506 160.842C442.527 164.85 449.41 187.564 457.991 202.312C475.707 230.835 492.858 259.704 510.045 288.544C523.864 301.508 533.046 318.563 542.508 334.893C558.176 359.797 571.044 386.488 589.446 409.582C603.493 418.9 617.368 429.286 629.943 440.736C632.192 440.074 632.941 443.598 634.155 444.923Z" fill="#FFC08C"/>
<path d="M580.55 478.593C580.015 478.063 579.934 477.183 580.475 476.601C586.229 471.93 585.217 463.923 585.142 457.312C589.276 450.301 588.11 468.476 587.455 470.239C586.795 472.724 583.681 480.384 580.541 478.58L580.55 478.593Z" fill="black"/>
<path d="M614.302 474.339C610.453 469.498 607.135 464.368 603.269 459.568C602.111 458.146 604.277 456.349 605.44 457.783C605.441 457.779 605.445 457.777 605.447 457.773C609.318 462.625 612.653 467.722 616.48 472.547C617.642 473.946 615.446 475.763 614.302 474.339Z" fill="black"/>
<path d="M632.994 445.545C620.979 433.813 607.656 423.412 593.323 414.694C592.203 414.288 591.339 413.216 592.258 412.119C593.737 408.258 646.473 448.917 632.994 445.545Z" fill="black"/>
<path d="M439.249 260.52C439.926 260.68 437.363 272.905 437.121 286.395C437.079 288.783 437.799 295.405 435.273 295.46C407.271 296.054 379.339 296.751 351.537 294.083C346.855 293.108 337.198 293.219 334.005 290.258C329.615 283.086 328.306 273.662 325.237 265.659C322.68 257.027 319.918 248.251 320.328 239.142C320.847 224.583 339.917 203.933 345.035 200.18C345.583 199.778 348.754 200.165 349.432 200.174C360.064 200.327 365.772 201.1 376.597 199.661C390.092 190.006 394.537 181.024 406.155 169.389C411.057 163.942 415.918 159.142 420.277 160.382C421.925 160.851 423.866 160.873 427.074 161.539C431.033 162.362 426.922 164.833 425.628 166.65C415.119 178.347 405.962 191.304 399.446 205.656C403.229 215.377 406.353 228.096 414.655 240.684C420.653 249.774 430.392 257.786 439.249 260.52Z" fill="#8DC868"/>
<path d="M398.661 291.315C377.159 290.51 355.171 290.447 334.133 285.768C333.042 285.734 332.437 284.426 333.015 283.544C335.039 281.707 340.569 284.885 343.372 284.819C371.502 288.332 400.084 289.323 428.377 287.701C430.353 288.146 433.574 285.829 434.6 288.179C435.477 292.512 403.178 290.816 398.661 291.315Z" fill="black"/>
<path d="M443.957 178.017C440.258 167.897 430.808 161.392 420.048 161.632C416.076 161.339 411.795 161.155 407.906 161.337C406.078 161.509 405.735 158.79 407.578 158.535C420.086 158.246 435.213 158.16 442.765 169.971C443.695 172.154 448.325 176.96 445.788 178.809C445.073 179.099 444.259 178.732 443.957 178.017Z" fill="black"/>
<path d="M572.569 421.694C572.474 421.155 572.288 420.627 571.973 420.115C570.664 417.996 568.118 416.701 566.377 414.978C561.268 409.921 556.242 404.782 551.285 399.577C541.37 389.167 531.732 378.494 522.242 367.696C521.767 367.156 521.305 366.605 520.819 366.075C505.238 349.049 494.949 328.387 484.009 308.327C477.368 297.878 468.544 289.071 460.979 279.309C445.165 259.737 431.048 238.853 415.256 219.27C414.772 218.674 413.898 218.536 413.278 219.017C411.54 220.958 414.922 222.667 415.815 224.336C429.541 242.197 442.629 260.575 456.546 278.303C466.086 290.847 477.865 301.848 485.146 315.976C504.435 357.615 537.77 390.074 569.706 422.178C568.292 430.498 567.559 439.242 569.125 447.587C569.506 449.415 572.186 448.913 571.904 447.1C571.211 443.855 571.013 440.527 571.058 437.216C571.128 433.967 571.288 430.672 571.808 427.462C572.109 425.583 572.899 423.575 572.569 421.694Z" fill="black"/>
<path d="M109.543 397.828H76.3549L59.76 369.079L76.3549 340.333H109.543L126.138 369.079L109.543 397.828ZM77.9826 395.008H107.915L122.882 369.081L107.915 343.155H77.9826L63.0174 369.081L77.9826 395.008Z" fill="#BDFC96"/>
<path d="M146.188 433.42H126.257L116.29 416.155L126.257 398.889H146.188L156.154 416.155L146.188 433.42ZM127.884 430.598H144.56L152.899 416.155L144.56 401.709H127.884L119.546 416.155L127.884 430.598Z" fill="#BDFC96"/>
<path d="M601.366 287.231H580.434L569.969 269.101L580.434 250.97H601.366L611.831 269.101L601.366 287.231ZM582.062 284.412H599.738L608.576 269.102L599.738 253.791H582.062L573.225 269.102L582.062 284.412Z" fill="#BDFC96"/>
<path d="M618.546 170.401H587.33L571.722 143.364L587.33 116.326H618.546L634.154 143.364L618.546 170.401ZM588.958 167.58H616.918L630.897 143.362L616.918 119.144H588.958L574.979 143.362L588.958 167.58Z" fill="#BDFC96"/>
<path d="M653.649 335.979H622.434L606.825 308.941L622.434 281.902H653.649L669.256 308.941L653.649 335.979ZM624.062 333.157H652.022L666.001 308.939L652.022 284.72H624.062L610.083 308.939L624.062 333.157Z" fill="#BDFC96"/>
<path opacity="0.7" d="M58.5981 256.167L256.798 199.327L222.033 58.8569L19.1704 89.8328L58.5981 256.167Z" fill="#BDFC96"/>
<path d="M158.086 89.1382C157.997 88.6028 158.361 88.1298 158.875 88.0216C166.957 86.3037 175.031 84.5858 183.112 82.8697C191.128 81.1701 199.142 79.4558 207.158 77.7617C208.969 77.813 212.837 75.4516 213.79 77.3785C213.676 79.234 210.677 78.6528 209.37 79.267C199.362 81.3901 189.357 83.526 179.35 85.6455C172.634 87.0756 165.917 88.502 159.201 89.9284C158.697 90.0366 158.173 89.6424 158.086 89.1382Z" fill="#BDFC96"/>
<path d="M178.868 97.4857C176.63 94.9024 183.399 95.1994 184.787 94.477C190.866 93.1771 196.939 91.8809 203.017 90.581C204.458 90.5682 218.334 86.1423 214.026 90.2033C202.315 92.4859 190.572 95.6523 178.868 97.4857Z" fill="#BDFC96"/>
<path d="M203.217 151.079C203.046 149.029 213.522 147.902 215.662 146.853C218.31 146.706 230.148 141.761 230.862 143.899C230.713 146.068 222.07 146.658 219.916 147.733C217.196 147.892 203.789 153.259 203.217 151.079Z" fill="#BDFC96"/>
<path d="M206.15 160.27C206.016 158.007 216.422 157.329 218.675 156.249C221.529 156.117 232.282 151.759 233.485 153.673C233.692 155.862 224.512 156.333 222.481 157.333C219.518 157.483 207.25 162.217 206.15 160.27Z" fill="#BDFC96"/>
<path d="M64.8562 178.19C64.8562 175.977 76.7694 175.328 79.4163 174.257C82.879 174.127 98.319 169.138 99.3822 171.225C99.3804 173.429 87.8467 174.015 85.2584 175.069C81.858 175.2 65.7617 180.291 64.8562 178.19Z" fill="#BDFC96"/>
<path d="M67.0762 188.851C67.0872 186.638 77.4422 185.93 79.7464 184.845C82.7563 184.698 96.1964 179.631 97.1093 181.714C97.0965 183.917 87.0732 184.563 84.8167 185.628C81.8636 185.775 67.8516 190.945 67.0762 188.851Z" fill="#BDFC96"/>
<path d="M69.8494 197.111C69.7541 196.586 70.1042 196.112 70.6028 195.991L70.601 195.992C73.6201 195.793 90.3762 189.794 90.7758 192.06C90.5155 194.23 81.6453 194.733 79.3979 195.809C77.2422 195.855 70.7073 199.14 69.8494 197.111Z" fill="#BDFC96"/>
<path d="M140.98 169.239C146.21 170.513 150.322 174.118 152.826 178.786C156.607 182.557 161.61 187.041 165.553 190.653C167.617 186.583 170.975 181.534 173.988 178.267C171.527 176.134 168.704 174.482 165.943 173.107C157.923 168.977 150.461 163.872 142.503 159.615C141.735 162.774 141.156 165.981 140.98 169.239ZM111.909 218.606C109.196 216.281 118.003 209.809 119.394 207.471C115.577 200.488 110.962 194.089 107.488 186.942C103.664 179.205 121.775 175.403 128.66 173.738C128.605 173.445 128.528 173.15 128.46 172.858L128.523 172.889C126.576 162.897 124.405 152.632 132.273 144.561C132.385 143.452 132.885 141.396 133.032 140.291C120.774 136.259 129.225 119.358 140.075 125.46C144.327 121.163 154.059 120.169 154.67 128.007C154.866 131.996 153.273 140.436 159.621 138.514C165.426 137.696 156.175 146.017 152.615 144.97C142.914 142.121 152.224 130.445 143.281 128.493C144.676 132.576 142.386 137.407 138.812 139.882C138.81 141.587 138.837 143.299 138.973 144.995C149.541 151.944 158.827 160.583 169.507 167.473C172.531 168.581 175.552 170.946 178.665 172.326C179.302 170.935 180.258 169.402 180.642 168.491C180.303 164.312 191.48 171.362 193.137 171.378C208.485 176.358 186.631 176.327 182.113 176.455C178.738 181.897 174.012 205.16 166.308 203.082C155.835 198.337 145.457 190.327 136.443 183.305C131.206 185.415 125.603 187.036 120.42 189.166C124.032 195.824 125.098 205.341 127.72 212.332C128.356 214.03 126.354 214.171 124.952 214.567C120.628 215.801 116.417 218.426 111.909 218.606Z" fill="#BDFC96"/>
<path d="M79.6508 227.581C79.3557 226.528 80.4189 226.16 81.1796 226.039C92.1671 223.127 103.166 220.218 114.116 217.319C115.546 216.932 116.983 216.562 118.406 216.184C118.397 216.188 118.386 216.19 118.378 216.191C120.158 215.717 121.878 215.264 123.632 214.8C123.595 214.807 123.568 214.818 123.54 214.822C126.105 214.138 128.801 213.434 131.344 212.757C133.811 212.107 136.172 211.478 138.608 210.834C138.601 210.836 138.59 210.838 138.582 210.841H138.584C138.571 210.843 138.56 210.849 138.549 210.852C138.597 210.84 138.645 210.829 138.692 210.814C138.663 210.821 138.634 210.83 138.604 210.836C144.454 209.296 150.27 207.743 156.09 206.21C156.086 206.21 156.085 206.21 156.081 206.212C156.072 206.214 156.063 206.218 156.053 206.218C156.07 206.214 156.085 206.208 156.092 206.207V206.208C156.094 206.208 156.097 206.207 156.099 206.207C156.101 206.205 156.101 206.205 156.103 206.205C160.094 205.14 164.102 204.085 168.082 203.031L168.08 203.033C175.664 201.018 183.21 199.029 190.77 197.025C190.913 196.984 191.052 196.953 191.195 196.911L191.194 196.913C193.276 196.361 195.27 195.827 197.327 195.288C198.889 194.874 200.295 194.502 201.798 194.104C201.77 194.11 201.743 194.117 201.715 194.124C205.024 193.248 208.32 192.377 211.59 191.51C216.101 193.099 207.915 194.612 206.439 195.008C206.437 195.008 206.434 195.008 206.432 195.01C201.292 196.368 196.183 197.725 191.078 199.074C191.071 199.076 191.062 199.078 191.054 199.08C191.056 199.08 191.06 199.078 191.062 199.078C191.054 199.08 191.047 199.086 191.04 199.084C186.677 200.239 182.332 201.392 177.986 202.538C178.006 202.534 178.025 202.525 178.045 202.523C174.434 203.48 170.817 204.443 167.237 205.385C167.233 205.387 167.228 205.387 167.224 205.389C167.226 205.389 167.228 205.389 167.23 205.387C164.72 206.049 162.224 206.72 159.727 207.373C159.731 207.371 159.734 207.371 159.736 207.369C156.053 208.352 152.345 209.323 148.701 210.291C148.102 210.445 147.581 210.59 147.033 210.731C147.031 210.735 147.004 210.739 146.994 210.742C146.993 210.742 146.989 210.744 146.987 210.744C144.325 211.454 141.561 212.18 138.94 212.875C133.16 214.413 127.459 215.911 121.718 217.438C118.309 218.331 114.892 219.253 111.504 220.139C111.502 220.144 111.501 220.139 111.499 220.144C111.497 220.144 111.497 220.144 111.499 220.144C105.801 221.644 100.172 223.149 94.5024 224.644C94.5042 224.644 94.5079 224.642 94.5097 224.642C94.4969 224.645 94.4841 224.647 94.4712 224.651C94.4712 224.651 94.4712 224.651 94.4731 224.649C94.1706 224.726 93.8828 224.814 93.5822 224.886C89.4449 225.247 83.0383 229.216 79.6508 227.581Z" fill="#BDFC96"/>
<path d="M101.404 220.689L101.4 220.69L101.404 220.689Z" fill="#A1F070"/>
<path d="M129.919 210.865L129.925 210.863C129.925 210.867 129.919 210.865 129.919 210.865Z" fill="#A1F070"/>
<path d="M129.925 210.863L129.932 210.862L129.925 210.863Z" fill="#A1F070"/>
<path d="M172.978 201.062C172.986 201.06 172.995 201.057 173.002 201.055C172.991 201.057 172.98 201.062 172.971 201.064C172.971 201.064 172.975 201.064 172.978 201.062Z" fill="#BDFC96"/>
<path d="M196.418 194.634L196.423 194.632L196.42 194.634L196.411 194.636L196.418 194.634Z" fill="#BDFC96"/>
<path d="M60.7429 98.0248C60.105 98.0413 59.4378 98.1091 58.8585 98.2026V98.2045C40.1391 101.816 46.6062 129.723 64.9975 124.742C80.0159 120.378 76.3351 97.4931 60.7429 98.0248ZM59.3278 127.149C41.7797 125.323 40.9713 99.2477 58.3544 96.3197C73.8439 93.3037 83.3264 114.084 70.8762 123.783C67.6719 126.388 63.4247 127.627 59.3278 127.149Z" fill="#BDFC96"/>
<path d="M61.751 118.248C59.2708 116.66 53.8119 111.974 54.4205 108.778C55.0658 105.868 58.6366 106.426 60.3322 108.257C61.6465 105.082 66.0661 103.261 66.594 107.903C66.44 110.538 64.5428 119.327 61.751 118.248Z" fill="#BDFC96"/>
<path d="M69.3693 136.2C49.8104 142.462 62.3523 171.08 80.2046 160.95C93.4523 152.91 84.2172 131.91 69.3693 136.2ZM71.2629 164.831C53.7167 163.007 52.9065 136.93 70.2877 134.002C85.7754 130.984 95.2615 151.766 82.8094 161.465C79.6071 164.07 75.3616 165.31 71.2629 164.831Z" fill="#BDFC96"/>
<path d="M73.7189 142.729L69.9998 143.633L73.0224 156.08L76.7415 155.177L73.7189 142.729Z" fill="#BDFC96"/>
<path d="M79.9841 144.508L76.3501 145.391L78.623 154.752L82.257 153.869L79.9841 144.508Z" fill="#BDFC96"/>
<path d="M69.5407 151.957L65.7307 152.883L66.8706 157.577L70.6806 156.652L69.5407 151.957Z" fill="#BDFC96"/>
<path d="M219.94 113.411L202.929 116.749L199.364 102.786L216.443 99.6746L219.94 113.411Z" fill="#BDFC96"/>
<path d="M215.325 123.266L210.792 124.368L214.477 139.546L219.011 138.445L215.325 123.266Z" fill="#BDFC96"/>
<path d="M223.058 125.203L218.625 126.28L221.397 137.695L225.829 136.619L223.058 125.203Z" fill="#BDFC96"/>
<path d="M209.413 132.267L204.768 133.396L206.696 141.338L211.342 140.209L209.413 132.267Z" fill="#BDFC96"/>
<path d="M203.034 136.563L198.388 137.691L199.646 142.87L204.291 141.742L203.034 136.563Z" fill="#BDFC96"/>
<path d="M196.349 138.724L191.704 139.852L192.961 145.031L197.607 143.903L196.349 138.724Z" fill="#BDFC96"/>
<path d="M105.507 110.103C105.261 110.094 105.039 109.944 104.94 109.715L99.8663 97.9458L98.2569 103.961C98.1927 104.198 98.0021 104.379 97.7601 104.427L87.6104 106.458C87.2621 106.526 86.9212 106.303 86.8515 105.952C86.7818 105.602 87.0073 105.263 87.3574 105.193L97.1131 103.241L99.0983 95.8191C99.1698 95.5532 99.4007 95.3625 99.6739 95.3424C99.9452 95.324 100.204 95.478 100.314 95.7311L105.296 107.289L106.596 100.623C106.647 100.362 106.85 100.161 107.111 100.111C107.371 100.063 107.635 100.179 107.774 100.401L109.422 103.019L113.251 90.0841C113.327 89.8292 113.55 89.6459 113.816 89.6239C114.082 89.5964 114.333 89.7431 114.448 89.9833L121.937 105.269L124.593 94.3321C124.657 94.07 124.875 93.8756 125.143 93.8444C125.41 93.8096 125.669 93.949 125.792 94.1873L129.826 101.954L130.011 97.1483C130.022 96.8513 130.237 96.5983 130.53 96.5396L140.592 94.521C140.94 94.4532 141.281 94.6768 141.351 95.027C141.42 95.3772 141.195 95.7164 140.845 95.7861L131.28 97.7038L131.021 104.438C131.01 104.731 130.803 104.979 130.517 105.043C130.231 105.105 129.94 104.97 129.804 104.711L125.44 96.3086L122.769 107.307C122.705 107.571 122.481 107.768 122.212 107.797C121.94 107.823 121.682 107.683 121.563 107.439L114.018 92.0367L110.253 104.752C110.181 104.995 109.972 105.173 109.723 105.208C109.47 105.245 109.224 105.127 109.089 104.913L107.549 102.467L106.161 109.584C106.106 109.863 105.879 110.072 105.597 110.103C105.569 110.103 105.536 110.105 105.507 110.103Z" fill="#BDFC96"/>
<path d="M46.7013 275.756L0 78.3996L231.301 43.7092L272.445 210.489L46.7013 275.756ZM3.94478 81.0691L49.0586 271.715L268.571 208.251L228.874 47.3339L3.94478 81.0691Z" fill="#BDFC96"/>
<path d="M172.804 43.2012C171.937 43.2012 171.182 42.5613 171.061 41.6794C170.929 40.7151 171.601 39.8258 172.566 39.6938L246.257 29.5568C247.221 29.4248 248.11 30.0995 248.242 31.062C248.376 32.0264 247.702 32.9156 246.737 33.0476L173.046 43.1847C172.965 43.1957 172.883 43.2012 172.804 43.2012Z" fill="#BDFC96"/>
<path d="M24.4569 298.709C23.6815 298.709 22.9703 298.192 22.7577 297.407C22.5029 296.468 23.0583 295.498 23.9968 295.243L139.319 263.96C140.258 263.705 141.228 264.26 141.481 265.199C141.735 266.138 141.18 267.108 140.241 267.362L24.9189 298.646C24.7649 298.689 24.6091 298.709 24.4569 298.709Z" fill="#BDFC96"/>
</g>
<defs>
<clipPath id="clip0_2018_6112">
<rect width="712" height="643" fill="white"/>
</clipPath>
</defs>
</svg>
