<svg width="713" height="580" viewBox="0 0 713 580" fill="none" xmlns="http://www.w3.org/2000/svg">
<path d="M356.401 579.897C552.746 579.897 711.915 486.354 711.915 370.963C711.915 255.572 552.746 162.029 356.401 162.029C160.057 162.029 0.888184 255.572 0.888184 370.963C0.888184 486.354 160.057 579.897 356.401 579.897Z" fill="#F5F5F5"/>
<path d="M121.407 452.15C130.201 453.885 139.427 453.43 148.261 455.2C154.327 456.415 160.131 458.664 165.893 460.915C171.053 462.931 176.208 464.959 181.359 466.996C182.386 467.403 194.724 471.661 194.724 472.25C215.605 480.03 236.793 491.221 259.762 489.878C265.179 489.562 270.427 486.988 273.995 482.9C277.563 478.812 279.404 473.262 278.988 467.851C278.651 463.471 276.91 459.151 277.551 454.807C279.269 443.146 289.965 444.35 298.565 446.342C303.585 447.505 308.542 448.923 313.444 450.502C326.348 454.659 339.944 458.536 350.206 467.875C356.811 473.887 363.173 476.273 372.102 477.275C378.327 477.974 384.456 478.363 390.421 480.431C396.304 482.471 401.416 486.395 406.859 489.408C421.606 497.572 440.996 496.468 454.722 486.684C457.028 485.041 459.397 482.632 458.946 479.836C457.855 473.097 446.569 471.724 441.789 468.886C433.148 463.756 424.476 458.68 415.738 453.718C398.262 443.793 380.574 434.244 362.688 425.081C343.572 415.286 324.187 405.912 303.994 398.591C294.044 394.983 282.703 391.946 273.193 396.592C265.523 400.339 262.497 407.445 257.518 413.767C252.889 419.644 246.881 425.72 240.071 429.023C234.645 431.653 228.482 432.266 222.46 432.537C202.479 433.436 182.475 431.024 162.809 427.378C154.48 425.835 146.077 424.061 137.623 424.577C128.561 425.13 113.714 427.462 108.765 436.211C107.983 437.593 107.25 439.053 107.081 440.633C106.807 443.21 108.12 445.771 110.038 447.511C111.956 449.251 114.414 450.279 116.891 451.031C118.38 451.485 119.887 451.85 121.407 452.15Z" fill="#E0E0E0"/>
<path d="M572.968 378.288C590.74 378.288 605.148 369.967 605.148 359.703C605.148 349.439 590.74 341.118 572.968 341.118C555.195 341.118 540.788 349.439 540.788 359.703C540.788 369.967 555.195 378.288 572.968 378.288Z" fill="#E0E0E0"/>
<path d="M548.051 477.938L542.795 474.902C539.23 472.843 539.232 469.507 542.795 467.447L554.504 460.684L512.123 436.207L500.414 442.97C496.851 445.029 491.071 445.029 487.507 442.97L482.252 439.934C478.688 437.875 478.687 434.538 482.252 432.479L517.777 411.96C521.34 409.901 527.12 409.901 530.684 411.96L535.939 414.996C539.504 417.055 539.504 420.391 535.939 422.451L523.01 429.919L565.39 454.397L578.319 446.928C581.882 444.869 587.662 444.869 591.226 446.928L596.483 449.964C600.046 452.023 600.046 455.36 596.483 457.419L560.956 477.938C557.394 479.997 551.614 479.997 548.051 477.938Z" fill="#E0E0E0"/>
<path d="M638.011 270.211L623.813 262.011C623.813 262.011 620.334 231.591 622.649 208.034C625.901 174.93 647.271 135.098 672.767 144.453C698.261 153.807 661.077 187.52 652.801 215.599C644.523 243.676 638.011 270.211 638.011 270.211Z" fill="#8DC868"/>
<path opacity="0.15" d="M638.011 270.211L623.813 262.011C623.813 262.011 620.334 231.591 622.649 208.034C625.901 174.93 647.271 135.098 672.767 144.453C698.261 153.807 661.077 187.52 652.801 215.599C644.523 243.676 638.011 270.211 638.011 270.211Z" fill="black"/>
<path d="M630.544 266.758C630.553 266.758 630.563 266.758 630.574 266.758C631.048 266.742 631.42 266.345 631.404 265.87C628.91 192.314 665.513 155.313 665.882 154.949C666.221 154.615 666.225 154.071 665.891 153.734C665.555 153.396 665.011 153.391 664.675 153.725C664.3 154.097 627.167 191.628 629.684 265.931C629.7 266.393 630.082 266.758 630.544 266.758Z" fill="white"/>
<path d="M646.937 275.325L636.834 269.49C636.834 269.49 635.115 248.616 645.346 223.258C654.251 201.182 676.35 182.868 687.464 186.717C698.578 190.565 698.303 198.449 692.883 206.72C687.466 214.989 654.499 234.703 646.937 275.325Z" fill="#8DC868"/>
<path d="M641.609 273.107H641.614C642.088 273.104 642.472 272.719 642.469 272.243C642.27 225.736 685.922 194.303 686.363 193.99C686.749 193.715 686.843 193.18 686.567 192.791C686.296 192.405 685.761 192.308 685.369 192.587C684.922 192.904 640.545 224.858 640.749 272.251C640.752 272.724 641.135 273.107 641.609 273.107Z" fill="white"/>
<path d="M95.6972 257.067L107.67 250.147C107.67 250.147 114.796 220.53 111.956 193.88C107.964 156.411 83.3101 142.312 73.9337 145.543C64.5588 148.774 61.8432 159.677 77.3558 181.993C86.5086 195.16 97.751 222.584 95.6972 257.067Z" fill="#8DC868"/>
<g opacity="0.15">
<path d="M95.6972 257.067L107.67 250.147C107.67 250.147 114.796 220.53 111.956 193.88C107.964 156.411 83.3101 142.312 73.9337 145.543C64.5588 148.774 61.8432 159.677 77.3558 181.993C86.5086 195.16 97.751 222.584 95.6972 257.067Z" fill="black"/>
</g>
<path d="M100.659 242.517C100.62 242.516 100.583 242.51 100.544 242.504C100.094 242.418 99.7975 241.984 99.884 241.533C106.446 206.973 94.3783 168.139 79.4336 151.979C79.1221 151.644 79.1429 151.116 79.4798 150.806C79.8166 150.499 80.3427 150.515 80.6528 150.852C95.8702 167.307 108.174 206.775 101.515 241.844C101.437 242.254 101.066 242.537 100.659 242.517Z" fill="white"/>
<path d="M64.3367 275.186C62.4453 276.149 57.4165 271.841 56.014 270.795C53.6144 269.002 51.72 266.539 50.5173 263.802C49.1177 260.615 48.8942 257.265 49.5544 253.852C49.8972 252.082 50.483 250.369 51.0672 248.664C51.641 246.989 52.2149 245.315 52.7887 243.64C53.3551 241.988 53.9289 240.278 53.7947 238.537C53.525 235.028 50.5545 232.43 47.8479 230.181C44.855 227.694 41.7713 224.456 42.0008 220.26C42.1782 217.023 44.0055 214.099 46.1398 211.658C48.2741 209.218 50.7676 207.093 52.7157 204.502C54.1182 202.636 55.2509 200.419 55.1555 198.086C55.0959 196.637 54.5668 195.247 53.9408 193.939C52.5964 191.132 50.7691 188.53 49.8942 185.542C49.0208 182.554 49.3502 178.91 51.7469 176.925C53.7143 175.296 56.5193 175.196 59.056 175.493C61.4035 175.767 63.6496 176.946 65.6512 178.196C72.1257 182.236 75.5284 190.321 82.453 193.528C85.1239 194.765 88.0989 195.156 90.9024 196.051C93.7059 196.945 96.5303 198.544 97.7137 201.239C100.048 206.555 94.9102 212.701 96.4558 218.295C97.824 223.246 102.461 225.349 104.896 229.871C105.962 231.85 106.117 234.082 105.817 236.309C105.309 240.078 104.615 242.828 102.587 246.946C100.912 250.348 96.192 256.781 96.192 256.781C96.192 256.781 64.6258 275.038 64.3367 275.186Z" fill="#8DC868"/>
<path d="M82.6618 265.631C82.6513 265.631 82.6394 265.63 82.6394 265.63C82.1714 265.586 81.8361 265.181 81.8763 264.725C84.9079 231.854 71.2256 194.704 60.4765 183.569C60.159 183.24 60.1665 182.713 60.4973 182.394C60.8282 182.077 61.3528 182.087 61.6718 182.415C72.637 193.774 86.604 231.542 83.5322 264.877C83.489 265.324 83.1029 265.653 82.6618 265.631Z" fill="white"/>
<path d="M79.3975 225.101C79.317 225.097 79.235 225.082 79.1545 225.052C68.7408 221.247 55.5831 220.005 55.4534 219.993C54.9959 219.95 54.6605 219.546 54.7022 219.089C54.744 218.633 55.1091 218.29 55.6054 218.338C55.7396 218.351 69.1044 219.611 79.7239 223.492C80.1546 223.649 80.3767 224.126 80.2187 224.557C80.0905 224.906 79.7522 225.118 79.3975 225.101Z" fill="white"/>
<path d="M526.451 392.618C523.658 383.485 512.247 375.927 501.576 378.916L501.58 378.919C500.046 379.335 498.437 380.01 496.775 380.969C486.427 386.941 478.04 401.475 478.04 413.431C478.04 415.666 478.334 417.651 478.878 419.364L478.875 419.362C481.668 428.498 493.08 436.011 503.75 433.022L503.746 433.019C505.276 432.601 506.883 431.926 508.541 430.968C518.887 424.993 527.275 410.458 527.275 398.506C527.275 396.292 526.988 394.321 526.451 392.618Z" fill="#455A64"/>
<path d="M508.541 430.97C518.887 424.994 527.275 410.46 527.275 398.508C527.275 386.556 518.887 381.707 508.541 387.677C498.192 393.648 489.806 408.183 489.806 420.139C489.806 432.097 498.194 436.946 508.541 430.97Z" fill="#37474F"/>
<path d="M508.541 400.936C512.52 398.637 515.747 400.501 515.747 405.098C515.747 409.695 512.52 415.284 508.541 417.584C504.561 419.883 501.334 418.019 501.334 413.422C501.334 408.825 504.561 403.236 508.541 400.936Z" fill="#455A64"/>
<path d="M511.006 407.834C511.006 409.407 509.907 411.32 508.543 412.115C507.909 412.484 507.323 412.541 506.886 412.332C506.819 412.304 506.762 412.267 506.706 412.228C506.308 411.943 506.071 411.414 506.071 410.685C506.071 409.112 507.178 407.199 508.542 406.404C509.177 406.034 509.754 405.978 510.189 406.186L510.369 406.291C510.769 406.565 511.006 407.096 511.006 407.834Z" fill="#37474F"/>
<path d="M550.587 430.695C550.587 432.268 549.489 434.181 548.125 434.967C547.727 435.204 547.377 435.298 547.055 435.298C546.761 435.298 546.496 435.213 546.231 435.061L506.888 412.332C506.82 412.304 506.764 412.267 506.707 412.228C506.309 411.943 506.072 411.414 506.072 410.685C506.072 409.112 507.18 407.199 508.543 406.404C509.178 406.034 509.755 405.978 510.19 406.186L510.371 406.291L549.715 429.009C550.274 429.331 550.587 429.814 550.587 430.695Z" fill="#FAFAFA"/>
<path d="M589.208 428.854C586.415 419.72 575.004 412.162 564.332 415.152L564.337 415.155C562.803 415.571 561.194 416.246 559.532 417.205C549.184 423.177 540.797 437.711 540.797 449.667C540.797 451.902 541.09 453.887 541.634 455.6L541.632 455.598C544.425 464.734 555.837 472.247 566.507 469.257L566.503 469.256C568.033 468.838 569.64 468.163 571.297 467.206C581.646 461.23 590.032 446.696 590.032 434.744C590.032 432.528 589.743 430.557 589.208 428.854Z" fill="#455A64"/>
<path d="M571.297 467.206C581.644 461.23 590.032 446.695 590.032 434.744C590.032 422.792 581.644 417.943 571.297 423.913C560.951 429.884 552.563 444.419 552.563 456.375C552.561 468.333 560.949 473.182 571.297 467.206Z" fill="#37474F"/>
<path d="M571.296 437.172C575.275 434.873 578.502 436.737 578.502 441.334C578.502 445.93 575.275 451.52 571.296 453.819C567.316 456.119 564.089 454.255 564.089 449.658C564.089 445.06 567.316 439.47 571.296 437.172Z" fill="#455A64"/>
<path d="M573.763 444.07C573.763 445.643 572.664 447.556 571.3 448.35C570.665 448.72 570.078 448.777 569.643 448.568C569.576 448.54 569.519 448.502 569.463 448.464C569.065 448.179 568.828 447.65 568.828 446.921C568.828 445.348 569.935 443.435 571.299 442.638C571.934 442.269 572.511 442.212 572.946 442.421L573.126 442.525C573.526 442.801 573.763 443.33 573.763 444.07Z" fill="#37474F"/>
<path d="M579.727 447.517C579.727 449.09 578.629 451.003 577.265 451.789C576.867 452.026 576.517 452.12 576.195 452.12C575.901 452.12 575.636 452.035 575.371 451.883L569.643 448.567C569.576 448.538 569.519 448.501 569.463 448.462C569.065 448.177 568.828 447.648 568.828 446.919C568.828 445.346 569.935 443.433 571.299 442.637C571.934 442.267 572.511 442.21 572.946 442.419L573.126 442.524L578.854 445.829C579.414 446.154 579.727 446.637 579.727 447.517Z" fill="#FAFAFA"/>
<path d="M579.727 447.502C579.727 449.075 578.629 450.988 577.265 451.783C576.63 452.153 576.043 452.209 575.608 452.001C575.542 451.972 575.484 451.935 575.427 451.896C575.029 451.612 574.792 451.082 574.792 450.353C574.792 448.78 575.9 446.867 577.264 446.072C577.899 445.703 578.475 445.646 578.911 445.855L579.091 445.959C579.49 446.233 579.727 446.763 579.727 447.502Z" fill="#E0E0E0"/>
<path d="M595.618 319.981C594.894 316.741 593.231 313.282 591.853 310.257C591.692 309.903 591.52 309.55 591.341 309.195C588.333 303.252 588.351 296.22 591.611 290.413C591.722 290.213 591.834 290.013 591.943 289.815C593.973 286.126 594.848 282.959 594.852 278.758C594.864 275.553 592.767 270.761 588.543 268.304C587.627 267.763 586.643 267.289 585.614 266.882C583.714 266.112 582.434 264.304 582.441 262.243L582.464 256.519L564.143 256.448L564.121 262.172C564.113 264.232 562.818 266.032 560.91 266.786C559.879 267.186 558.892 267.653 557.971 268.186C553.729 270.612 551.594 275.388 551.582 278.591C551.555 282.792 552.404 285.965 554.404 289.67C554.506 289.857 554.609 290.043 554.712 290.231C557.941 296.073 557.917 303.119 554.865 309.056C554.683 309.41 554.51 309.762 554.346 310.113C552.947 313.127 551.243 316.574 550.505 319.808C549.793 322.945 549.623 326.313 549.61 329.671L549.507 356.334C549.493 359.8 551.762 363.263 556.314 365.913C560.035 368.076 564.715 369.375 569.553 369.78C571.75 369.97 573.983 369.979 576.168 369.806C580.999 369.414 585.638 368.164 589.353 366.041C593.927 363.426 596.22 359.981 596.234 356.527L596.308 337.241C596.317 334.837 596.413 332.326 596.422 329.814C596.438 326.47 596.307 323.112 595.618 319.981Z" fill="#8DC868"/>
<path opacity="0.3" d="M595.618 319.981C594.894 316.741 593.231 313.282 591.853 310.257C591.692 309.903 591.52 309.55 591.341 309.195C588.333 303.252 588.351 296.22 591.611 290.413C591.722 290.213 591.834 290.013 591.943 289.815C593.973 286.126 594.848 282.959 594.852 278.758C594.864 275.553 592.767 270.761 588.543 268.304C587.627 267.763 586.643 267.289 585.614 266.882C583.714 266.112 582.434 264.304 582.441 262.243L582.464 256.519L564.143 256.448L564.121 262.172C564.113 264.232 562.818 266.032 560.91 266.786C559.879 267.186 558.892 267.653 557.971 268.186C553.729 270.612 551.594 275.388 551.582 278.591C551.555 282.792 552.404 285.965 554.404 289.67C554.506 289.857 554.609 290.043 554.712 290.231C557.941 296.073 557.917 303.119 554.865 309.056C554.683 309.41 554.51 309.762 554.346 310.113C552.947 313.127 551.243 316.574 550.505 319.808C549.793 322.945 549.623 326.313 549.61 329.671L549.507 356.334C549.493 359.8 551.762 363.263 556.314 365.913C560.035 368.076 564.715 369.375 569.553 369.78C571.75 369.97 573.983 369.979 576.168 369.806C580.999 369.414 585.638 368.164 589.353 366.041C593.927 363.426 596.22 359.981 596.234 356.527L596.308 337.241C596.317 334.837 596.413 332.326 596.422 329.814C596.438 326.47 596.307 323.112 595.618 319.981Z" fill="black"/>
<path opacity="0.1" d="M591.611 290.413C591.722 290.213 591.834 290.013 591.943 289.815C593.69 286.641 594.577 283.85 594.794 280.458C594.371 281.785 593.784 283.068 593.056 284.245C590.956 287.646 587.896 290.332 584.801 292.861C581.662 295.424 578.174 298.339 577.784 302.372C577.407 306.277 580.158 309.824 583.291 312.185C586.422 314.545 590.087 316.207 592.903 318.937C594.129 320.127 595.152 321.496 596.095 322.926C595.976 321.928 595.832 320.941 595.62 319.98C594.896 316.74 593.232 313.28 591.855 310.255C591.693 309.902 591.521 309.548 591.342 309.195C588.333 303.253 588.351 296.222 591.611 290.413Z" fill="black"/>
<path d="M561.049 262.837L561.037 265.917C561.017 267.754 562.231 269.607 564.665 271.03C569.509 273.852 577.384 273.882 582.262 271.099C583.473 270.402 584.394 269.596 585.002 268.729C585.61 267.873 585.914 266.957 585.918 266.038L585.93 262.908C585.932 262.631 585.908 262.352 585.836 262.073C585.54 260.514 584.362 258.999 582.314 257.806C582.255 257.77 582.194 257.733 582.134 257.709C577.265 254.984 569.522 254.99 564.717 257.738C562.658 258.914 561.457 260.42 561.149 261.965C561.074 262.257 561.049 262.548 561.049 262.837Z" fill="#8DC868"/>
<path opacity="0.1" d="M561.049 262.837L561.037 265.917C561.017 267.754 562.231 269.607 564.665 271.03C569.509 273.852 577.384 273.882 582.262 271.099C583.473 270.402 584.394 269.596 585.002 268.729C585.61 267.873 585.914 266.957 585.918 266.038L585.93 262.908C585.932 262.631 585.908 262.352 585.836 262.073C585.54 260.514 584.362 258.999 582.314 257.806C582.255 257.77 582.194 257.733 582.134 257.709C577.265 254.984 569.522 254.99 564.717 257.738C562.658 258.914 561.457 260.42 561.149 261.965C561.074 262.257 561.049 262.548 561.049 262.837Z" fill="black"/>
<path opacity="0.2" d="M582.268 267.974C587.138 265.187 587.155 260.636 582.309 257.812C577.46 254.987 569.583 254.957 564.714 257.744C559.845 260.53 559.827 265.081 564.675 267.905C569.522 270.73 577.399 270.76 582.268 267.974Z" fill="black"/>
<path d="M561.062 259.244L561.055 261.097C561.053 261.388 561.077 261.677 561.149 261.968C561.444 263.515 562.635 265.03 564.683 266.223C566.851 267.489 569.628 268.188 572.452 268.319C575.967 268.501 579.581 267.827 582.28 266.28C583.49 265.583 584.4 264.79 585.018 263.922C585.443 263.332 585.711 262.704 585.835 262.077C585.908 261.799 585.933 261.508 585.935 261.231L585.942 259.317C585.95 257.468 584.748 255.626 582.326 254.216C582.109 254.095 581.893 253.973 581.663 253.863C576.78 251.39 569.377 251.483 564.729 254.147C562.284 255.55 561.058 257.395 561.062 259.244Z" fill="#8DC868"/>
<path opacity="0.1" d="M561.062 259.244L561.055 261.097C561.053 261.388 561.077 261.677 561.149 261.968C561.444 263.515 562.635 265.03 564.683 266.223C566.851 267.489 569.628 268.188 572.452 268.319C575.967 268.501 579.581 267.827 582.28 266.28C583.49 265.583 584.4 264.79 585.018 263.922C585.443 263.332 585.711 262.704 585.835 262.077C585.908 261.799 585.933 261.508 585.935 261.231L585.942 259.317C585.95 257.468 584.748 255.626 582.326 254.216C582.109 254.095 581.893 253.973 581.663 253.863C576.78 251.39 569.377 251.483 564.729 254.147C562.284 255.55 561.058 257.395 561.062 259.244Z" fill="black"/>
<path d="M561.063 259.181C561.048 263.132 566.604 266.357 573.475 266.384C580.346 266.411 585.928 263.229 585.944 259.278C585.959 255.327 580.403 252.102 573.532 252.075C566.661 252.048 561.077 255.23 561.063 259.181Z" fill="#8DC868"/>
<path d="M569.221 251.842L569.196 258.288C569.196 258.388 569.203 258.489 569.229 258.589C569.331 259.126 569.743 259.651 570.454 260.064C571.205 260.502 572.168 260.745 573.147 260.79C574.365 260.853 575.618 260.62 576.553 260.083C576.971 259.842 577.287 259.567 577.502 259.266C577.65 259.062 577.742 258.844 577.785 258.626C577.811 258.531 577.82 258.43 577.82 258.333L577.845 251.866C577.848 251.225 577.432 250.587 576.591 250.098C576.515 250.056 576.441 250.014 576.362 249.976C574.67 249.12 572.104 249.151 570.492 250.074C569.644 250.562 569.218 251.201 569.221 251.842Z" fill="#8DC868"/>
<path opacity="0.1" d="M569.221 251.842L569.196 258.288C569.196 258.388 569.203 258.489 569.229 258.589C569.331 259.126 569.743 259.651 570.454 260.064C571.205 260.502 572.168 260.745 573.147 260.79C574.365 260.853 575.618 260.62 576.553 260.083C576.971 259.842 577.287 259.567 577.502 259.266C577.65 259.062 577.742 258.844 577.785 258.626C577.811 258.531 577.82 258.43 577.82 258.333L577.845 251.866C577.848 251.225 577.432 250.587 576.591 250.098C576.515 250.056 576.441 250.014 576.362 249.976C574.67 249.12 572.104 249.151 570.492 250.074C569.644 250.562 569.218 251.201 569.221 251.842Z" fill="black"/>
<path d="M569.221 251.82C569.215 253.189 571.142 254.307 573.522 254.316C575.904 254.325 577.838 253.223 577.843 251.853C577.849 250.484 575.922 249.366 573.542 249.357C571.16 249.348 569.225 250.451 569.221 251.82Z" fill="#8DC868"/>
<path opacity="0.5" d="M572 251.831C571.999 252.317 572.682 252.713 573.527 252.716C574.372 252.719 575.059 252.329 575.06 251.843C575.062 251.357 574.379 250.96 573.533 250.957C572.686 250.954 572.003 251.345 572 251.831Z" fill="#8DC868"/>
<path opacity="0.3" d="M572 251.831C571.999 252.317 572.682 252.713 573.527 252.716C574.372 252.719 575.059 252.329 575.06 251.843C575.062 251.357 574.379 250.96 573.533 250.957C572.686 250.954 572.003 251.345 572 251.831Z" fill="black"/>
<path d="M488.544 0.891906L380.424 63.3545C379.503 63.8868 378.756 65.181 378.756 66.244V111.22C378.756 112.285 379.508 113.571 380.433 114.093L386.408 117.444C387.335 117.967 388.833 117.959 389.753 117.427L497.873 54.9646C498.794 54.4323 499.541 53.1381 499.541 52.075V7.09895C499.541 6.03438 498.789 4.74764 497.864 4.22579L491.889 0.875503C490.963 0.352161 489.465 0.359619 488.544 0.891906Z" fill="#8DC868"/>
<path d="M388.086 116.466V71.4894C388.086 70.4249 388.833 69.1322 389.754 68.5999L497.874 6.13729C498.795 5.60501 499.542 6.03591 499.542 7.10049V52.0766C499.542 53.1412 498.795 54.4353 497.874 54.9661L389.754 117.429C388.833 117.961 388.086 117.53 388.086 116.466Z" fill="#8DC868"/>
<path opacity="0.2" d="M389.754 117.428C388.866 117.944 387.244 117.962 386.407 117.448L380.435 114.09C379.511 113.574 378.755 112.287 378.755 111.223V66.2423C378.755 65.6876 378.964 65.0778 379.287 64.5396L388.578 69.846C388.27 70.3619 388.085 70.9553 388.085 71.4876V116.461C388.087 117.436 388.772 117.998 389.754 117.428Z" fill="black"/>
<path opacity="0.4" d="M499.52 6.79762C499.388 5.95819 498.703 5.65701 497.871 6.13413L389.757 68.5997C389.295 68.8696 388.879 69.3243 388.578 69.8476L379.278 64.5412C379.579 64.0402 379.978 63.6093 380.426 63.3543L488.547 0.888785C489.464 0.356497 490.958 0.349038 491.89 0.873871L497.862 4.22416C498.703 4.70128 499.403 5.80313 499.52 6.79762Z" fill="white"/>
<path d="M374.185 101.311C373.138 100.686 365.295 96.2695 365.041 96.1219C364.271 95.6523 363.994 94.5117 364.711 93.7408L378.901 81.9917L388.085 87.2147L373.902 98.9712C373.209 99.7108 373.485 100.802 374.185 101.311Z" fill="#8DC868"/>
<path opacity="0.1" d="M374.185 101.311C373.138 100.686 365.295 96.2695 365.041 96.1219C364.271 95.6523 363.994 94.5117 364.711 93.7408L378.901 81.9917L388.085 87.2147L373.902 98.9712C373.209 99.7108 373.485 100.802 374.185 101.311Z" fill="black"/>
<path d="M388.087 87.2178L373.899 98.9684C372.938 100 373.643 101.415 374.853 101.527L388.087 99.9793V87.2178Z" fill="#8DC868"/>
<path d="M396.576 83.0414C396.485 82.8864 396.454 82.6761 396.481 82.4078C396.506 82.1409 396.576 81.8934 396.694 81.6653L400.854 73.584C400.957 73.3857 401.083 73.1531 401.232 72.8833C401.38 72.6149 401.551 72.424 401.745 72.3122L404.106 70.9494C404.249 70.8674 404.371 70.8883 404.474 71.012C404.577 71.1358 404.629 71.3237 404.629 71.5756V93.808C404.629 94.06 404.579 94.3075 404.474 94.552C404.371 94.795 404.249 94.9575 404.106 95.0396L401.571 96.5037C401.429 96.5857 401.305 96.5649 401.204 96.4411C401.101 96.3173 401.051 96.128 401.051 95.876V80.8363L398.746 85.263C398.632 85.4912 398.5 85.6298 398.359 85.676C398.217 85.7252 398.101 85.6716 398.012 85.5165L396.576 83.0414Z" fill="#FAFAFA"/>
<path d="M411.437 89.876C411.437 90.128 411.387 90.3755 411.284 90.62C411.181 90.863 411.059 91.0255 410.917 91.1075L408.381 92.5717C408.239 92.6537 408.117 92.6328 408.014 92.5091C407.911 92.3853 407.859 92.196 407.859 91.9455V87.4382C407.859 87.1847 407.91 86.9387 408.014 86.6942C408.117 86.4526 408.239 86.2886 408.381 86.2066L410.917 84.741C411.059 84.659 411.181 84.6828 411.284 84.8051C411.387 84.9303 411.437 85.1182 411.437 85.3702V89.876Z" fill="#FAFAFA"/>
<path d="M417.958 86.1099C417.958 86.3619 417.908 86.6094 417.805 86.8539C417.702 87.097 417.58 87.2595 417.438 87.3415L414.902 88.8056C414.76 88.8876 414.638 88.8653 414.535 88.7415C414.432 88.6178 414.38 88.4299 414.38 88.1779V83.6706C414.38 83.4172 414.431 83.1696 414.535 82.9251C414.638 82.6836 414.76 82.5196 414.902 82.4376L417.438 80.9734C417.58 80.8914 417.702 80.9138 417.805 81.036C417.908 81.1613 417.958 81.3491 417.958 81.6011V86.1099Z" fill="#FAFAFA"/>
<path d="M424.48 82.3437C424.48 82.5957 424.428 82.8432 424.325 83.0862C424.223 83.3293 424.1 83.4918 423.959 83.5738L421.424 85.0379C421.282 85.1199 421.16 85.0991 421.057 84.9738C420.954 84.8501 420.902 84.6622 420.902 84.4102V79.9029C420.902 79.6495 420.954 79.4035 421.057 79.1589C421.16 78.9174 421.282 78.7534 421.424 78.6714L423.959 77.2072C424.1 77.1252 424.223 77.1476 424.325 77.2713C424.428 77.3966 424.48 77.5829 424.48 77.8364V82.3437Z" fill="#FAFAFA"/>
<path d="M438.161 59.0228C438.161 59.6878 438.124 60.3528 438.045 61.0177C437.968 61.6812 437.835 62.3596 437.649 63.0515C437.461 63.7448 437.216 64.4664 436.912 65.2149C436.611 65.9634 436.239 66.7521 435.8 67.5781L433.092 72.7907L437.95 69.9846C438.091 69.9026 438.213 69.9235 438.316 70.0473C438.419 70.1725 438.471 70.3604 438.471 70.6109V74.2593C438.471 74.5113 438.419 74.7588 438.316 75.0033C438.213 75.2464 438.091 75.4089 437.95 75.4909L427.733 81.3923C427.59 81.4743 427.467 81.4534 427.364 81.3297C427.262 81.2059 427.209 81.0166 427.209 80.7661V77.8064C427.209 77.4396 427.251 77.049 427.336 76.633C427.42 76.2185 427.563 75.8234 427.77 75.4536L433.557 64.7467C434.009 63.8894 434.292 63.1812 434.408 62.6206C434.523 62.0599 434.581 61.55 434.581 61.0923C434.581 60.9327 434.565 60.718 434.534 60.4482C434.501 60.1798 434.428 59.9368 434.311 59.7161C434.195 59.4969 434.031 59.3448 433.82 59.2613C433.606 59.1778 433.319 59.2405 432.958 59.4477C432.596 59.6565 432.304 59.9353 432.077 60.2842C431.852 60.6331 431.676 60.979 431.554 61.3249C431.43 61.6708 431.341 62.0048 431.283 62.3239C431.225 62.6444 431.183 62.8815 431.156 63.0336C431.092 63.3929 430.992 63.6628 430.857 63.8447C430.722 64.0266 430.563 64.1682 430.384 64.2726L428.004 65.6473C427.886 65.7159 427.788 65.698 427.703 65.5966C427.618 65.4967 427.578 65.3431 427.578 65.1359C427.59 64.1652 427.706 63.1394 427.925 62.0599C428.145 60.982 428.476 59.9233 428.922 58.8871C429.368 57.8494 429.922 56.8996 430.585 56.0333C431.249 55.167 432.034 54.4752 432.936 53.9534C433.788 53.4613 434.54 53.2496 435.191 53.3212C435.844 53.3928 436.388 53.676 436.827 54.1681C437.266 54.6601 437.598 55.3281 437.824 56.172C438.05 57.0174 438.161 57.9671 438.161 59.0228Z" fill="#FAFAFA"/>
<path d="M444.856 70.5737C444.856 70.8257 444.806 71.0747 444.701 71.3177C444.599 71.5608 444.476 71.7233 444.335 71.8053L441.798 73.2695C441.656 73.3515 441.534 73.3306 441.431 73.2068C441.329 73.0831 441.278 72.8937 441.278 72.6432V68.1359C441.278 67.8825 441.329 67.6364 441.431 67.3904C441.534 67.1489 441.656 66.9849 441.798 66.9029L444.335 65.4387C444.476 65.3567 444.599 65.3806 444.701 65.5028C444.804 65.6281 444.856 65.8144 444.856 66.0679V70.5737Z" fill="#FAFAFA"/>
<path d="M451.377 66.8086C451.377 67.0606 451.326 67.3081 451.222 67.5511C451.119 67.7942 450.997 67.9567 450.855 68.0387L448.319 69.5029C448.177 69.5849 448.055 69.564 447.952 69.4402C447.849 69.3165 447.798 69.1271 447.798 68.8766V64.3693C447.798 64.1159 447.849 63.8698 447.952 63.6253C448.055 63.3838 448.177 63.2198 448.319 63.1378L450.855 61.6736C450.997 61.5916 451.119 61.614 451.222 61.7362C451.325 61.8615 451.377 62.0478 451.377 62.3013V66.8086Z" fill="#FAFAFA"/>
<path d="M457.899 63.0409C457.899 63.2929 457.847 63.5404 457.743 63.785C457.64 64.028 457.518 64.1905 457.376 64.2725L454.841 65.7367C454.699 65.8187 454.577 65.7978 454.474 65.6741C454.371 65.5503 454.319 65.3624 454.319 65.1105V60.6032C454.319 60.3497 454.371 60.1022 454.474 59.8577C454.577 59.6161 454.699 59.4521 454.841 59.3701L457.376 57.9059C457.518 57.8239 457.64 57.8463 457.743 57.97C457.846 58.0953 457.899 58.2817 457.899 58.5351V63.0409Z" fill="#FAFAFA"/>
<path d="M470.884 32.3801C471.025 32.2981 471.148 32.3189 471.251 32.4427C471.353 32.5665 471.406 32.7558 471.406 33.0063V36.6548C471.406 36.9068 471.361 37.1617 471.271 37.4197C471.181 37.6791 471.097 37.8983 471.02 38.0817L468.678 43.6312C469.684 43.5104 470.504 43.8116 471.134 44.5362C471.768 45.2594 472.084 46.5178 472.084 48.307C472.084 50.8998 471.58 53.1408 470.574 55.0299C469.568 56.919 468.161 58.3847 466.354 59.4284C465.426 59.9651 464.603 60.2439 463.888 60.2693C463.174 60.2931 462.569 60.1247 462.078 59.7653C461.588 59.406 461.211 58.8961 460.946 58.2341C460.682 57.5721 460.543 56.8221 460.53 55.9782C460.53 55.7724 460.572 55.5711 460.656 55.3728C460.741 55.176 460.84 55.0418 460.956 54.9747L463.394 53.5672C463.666 53.4107 463.871 53.4002 464.014 53.5359C464.156 53.6731 464.314 53.8162 464.488 53.9683C464.661 54.1204 464.888 54.2248 465.165 54.2814C465.442 54.3396 465.839 54.2203 466.354 53.9221C466.974 53.5642 467.487 53.0841 467.894 52.4818C468.299 51.8824 468.502 51.1801 468.502 50.375C468.502 49.5728 468.298 49.1047 467.894 48.972C467.487 48.8407 466.974 48.9511 466.354 49.3089L464.749 50.2363C464.606 50.3183 464.484 50.2989 464.381 50.1737C464.278 50.0499 464.226 49.8621 464.226 49.6086V46.6534C464.226 46.4 464.271 46.1465 464.362 45.8871C464.451 45.6276 464.542 45.3921 464.633 45.1803L466.684 40.3137L461.633 43.2316C461.491 43.3136 461.369 43.2912 461.266 43.1675C461.163 43.0437 461.111 42.8559 461.111 42.6039V38.9554C461.111 38.7034 461.162 38.4559 461.266 38.2129C461.369 37.9698 461.491 37.8073 461.633 37.7253L470.884 32.3801Z" fill="#FAFAFA"/>
<path d="M478.47 51.1606C478.47 51.4126 478.418 51.6616 478.315 51.9046C478.212 52.1477 478.09 52.3102 477.948 52.3922L475.413 53.8564C475.272 53.9384 475.149 53.9175 475.047 53.7937C474.944 53.67 474.892 53.4806 474.892 53.2301V48.7228C474.892 48.4694 474.944 48.2234 475.047 47.9773C475.149 47.7358 475.272 47.5718 475.413 47.4898L477.948 46.0256C478.09 45.9436 478.212 45.9675 478.315 46.0897C478.418 46.215 478.47 46.4014 478.47 46.6548V51.1606Z" fill="#FAFAFA"/>
<path d="M484.991 47.3946C484.991 47.6466 484.939 47.8941 484.836 48.1371C484.733 48.3801 484.611 48.5426 484.469 48.6246L481.934 50.0888C481.793 50.1708 481.67 50.1485 481.568 50.0247C481.465 49.901 481.413 49.7116 481.413 49.4611V44.9538C481.413 44.7003 481.465 44.4543 481.568 44.2098C481.67 43.9683 481.793 43.8042 481.934 43.7222L484.469 42.2566C484.611 42.1746 484.733 42.1984 484.836 42.3207C484.939 42.4459 484.991 42.6323 484.991 42.8858V47.3946Z" fill="#FAFAFA"/>
<path d="M491.512 43.6283C491.512 43.8803 491.461 44.1278 491.357 44.3724C491.254 44.6154 491.132 44.7779 490.99 44.8599L488.453 46.3241C488.312 46.4061 488.189 46.3852 488.087 46.2615C487.984 46.1377 487.933 45.9498 487.933 45.6979V41.1906C487.933 40.9371 487.984 40.6896 488.087 40.4451C488.189 40.2035 488.312 40.0395 488.453 39.9575L490.99 38.4933C491.132 38.4113 491.254 38.4337 491.357 38.5574C491.459 38.6827 491.512 38.8691 491.512 39.1225V43.6283Z" fill="#FAFAFA"/>
<g opacity="0.3">
<path d="M205.4 312.68C205.327 312.672 205.256 312.66 205.184 312.64L196.653 310.224C196.027 310.047 195.663 309.397 195.842 308.772C196.018 308.146 196.686 307.788 197.294 307.959L205.825 310.375C206.451 310.552 206.815 311.202 206.636 311.828C206.482 312.38 205.953 312.729 205.4 312.68Z" fill="black"/>
<path d="M196.648 319.292C196.165 319.249 195.739 318.906 195.615 318.408C195.454 317.777 195.837 317.138 196.466 316.978L205.062 314.804C205.694 314.648 206.332 315.027 206.49 315.657C206.651 316.288 206.268 316.928 205.639 317.087L197.043 319.261C196.911 319.294 196.778 319.304 196.648 319.292Z" fill="black"/>
<path d="M200.971 327.225C200.699 327.199 200.437 327.081 200.234 326.873C199.781 326.406 199.792 325.662 200.258 325.209L206.617 319.027C207.08 318.572 207.828 318.587 208.278 319.051C208.731 319.518 208.721 320.262 208.255 320.715L201.896 326.897C201.641 327.144 201.3 327.254 200.971 327.225Z" fill="black"/>
<path d="M208.679 331.932C208.606 331.924 208.535 331.912 208.463 331.892C207.837 331.714 207.475 331.064 207.652 330.439L210.067 321.905C210.243 321.279 210.902 320.916 211.519 321.092C212.145 321.27 212.507 321.92 212.329 322.546L209.915 331.08C209.76 331.634 209.232 331.981 208.679 331.932Z" fill="black"/>
</g>
<path d="M441.514 199.521C441.764 199.377 420.212 211.827 420.212 211.827L373.43 218.591C373.43 218.591 339.239 167.274 334.006 159.205C328.773 151.134 322.662 145.972 308.485 145.982L311.164 186.924C311.606 188.246 339.888 223.094 358.533 242.063C365.116 248.76 369.163 250.464 379.466 247.608C405.75 240.321 437.565 218.72 440.165 213.301C443.53 206.288 441.263 199.666 441.514 199.521Z" fill="#FFA8A7"/>
<path d="M432.743 173.571C435.536 164.435 446.947 156.879 457.618 159.868L457.614 159.871C459.147 160.287 460.757 160.963 462.419 161.921C472.767 167.893 481.154 182.427 481.154 194.384C481.154 196.619 480.86 198.603 480.316 200.316L480.319 200.315C477.526 209.45 466.114 216.963 455.444 213.974L455.448 213.972C453.917 213.555 452.311 212.879 450.653 211.922C440.305 205.946 431.918 191.412 431.918 179.46C431.918 177.244 432.208 175.275 432.743 173.571Z" fill="#455A64"/>
<path d="M450.655 211.922C440.308 205.946 431.92 191.412 431.92 179.46C431.92 167.508 440.308 162.66 450.655 168.63C461.002 174.601 469.39 189.135 469.39 201.092C469.39 213.05 461.002 217.898 450.655 211.922Z" fill="#37474F"/>
<path d="M450.655 181.889C446.676 179.59 443.449 181.454 443.449 186.051C443.449 190.647 446.676 196.237 450.655 198.536C454.635 200.835 457.861 198.972 457.861 194.375C457.861 189.778 454.635 184.188 450.655 181.889Z" fill="#455A64"/>
<path d="M448.188 188.786C448.188 190.36 449.286 192.272 450.65 193.067C451.285 193.437 451.872 193.494 452.308 193.285C452.373 193.257 452.431 193.219 452.488 193.18C452.886 192.897 453.123 192.366 453.123 191.637C453.123 190.064 452.015 188.151 450.652 187.357C450.017 186.987 449.44 186.93 449.005 187.139L448.824 187.243C448.425 187.518 448.188 188.048 448.188 188.786Z" fill="#37474F"/>
<path d="M408.608 211.648C408.608 213.221 409.706 215.134 411.07 215.92C411.468 216.157 411.818 216.251 412.14 216.251C412.434 216.251 412.699 216.166 412.964 216.014L452.308 193.285C452.373 193.257 452.432 193.219 452.488 193.18C452.886 192.897 453.123 192.366 453.123 191.637C453.123 190.064 452.016 188.151 450.652 187.357C450.017 186.987 449.44 186.93 449.005 187.139L448.825 187.243L409.48 209.963C408.921 210.284 408.608 210.767 408.608 211.648Z" fill="#FAFAFA"/>
<path d="M369.987 209.806C372.78 200.671 384.193 193.115 394.863 196.104L394.858 196.107C396.392 196.523 398.002 197.199 399.664 198.157C410.012 204.129 418.398 218.663 418.398 230.619C418.398 232.854 418.105 234.839 417.561 236.552L417.564 236.551C414.771 245.686 403.358 253.199 392.688 250.21L392.693 250.208C391.162 249.791 389.555 249.115 387.898 248.158C377.551 242.182 369.163 227.648 369.163 215.696C369.163 213.48 369.451 211.509 369.987 209.806Z" fill="#455A64"/>
<path d="M387.898 248.158C377.551 242.182 369.163 227.648 369.163 215.696C369.163 203.744 377.551 198.896 387.898 204.865C398.246 210.837 406.633 225.371 406.633 237.328C406.634 249.285 398.245 254.134 387.898 248.158Z" fill="#37474F"/>
<path d="M387.898 218.125C383.919 215.826 380.692 217.69 380.692 222.286C380.692 226.883 383.919 232.473 387.898 234.772C391.878 237.071 395.105 235.207 395.105 230.611C395.105 226.014 391.878 220.423 387.898 218.125Z" fill="#455A64"/>
<path d="M385.433 225.022C385.433 226.594 386.531 228.508 387.895 229.303C388.53 229.673 389.117 229.729 389.552 229.521C389.619 229.492 389.676 229.455 389.733 229.416C390.131 229.132 390.367 228.602 390.367 227.872C390.367 226.299 389.26 224.386 387.896 223.591C387.261 223.221 386.685 223.165 386.249 223.373L386.069 223.478C385.67 223.754 385.433 224.283 385.433 225.022Z" fill="#37474F"/>
<path d="M379.466 228.47C379.466 230.043 380.565 231.956 381.929 232.741C382.326 232.978 382.677 233.072 382.999 233.072C383.292 233.072 383.558 232.987 383.823 232.835L389.551 229.521C389.618 229.492 389.674 229.455 389.731 229.416C390.129 229.132 390.366 228.602 390.366 227.872C390.366 226.299 389.259 224.386 387.895 223.591C387.26 223.221 386.683 223.165 386.248 223.373L386.068 223.478L380.34 226.783C379.779 227.107 379.466 227.59 379.466 228.47Z" fill="#FAFAFA"/>
<path d="M379.466 228.454C379.466 230.027 380.565 231.94 381.929 232.735C382.563 233.105 383.149 233.162 383.586 232.953C383.651 232.924 383.71 232.887 383.766 232.848C384.164 232.565 384.401 232.034 384.401 231.305C384.401 229.732 383.294 227.819 381.93 227.025C381.295 226.655 380.718 226.598 380.283 226.807L380.103 226.911C379.703 227.186 379.466 227.715 379.466 228.454Z" fill="#E0E0E0"/>
<path d="M427.87 223.847C436.913 216.933 445.589 216.99 444.022 200.1C442.696 192.581 440.854 192.114 433.564 189.284C430.37 188.043 426.152 187.11 423.564 190.031C423.259 190.377 422.989 190.76 422.627 191.048C421.934 191.6 421.005 191.723 420.129 191.853C418.46 192.1 416.676 192.509 415.565 193.779C414.72 194.746 414.392 196.077 413.56 197.054C412.845 197.895 411.82 198.401 410.983 199.123C409.673 200.255 408.855 201.955 408.849 203.687C408.84 205.898 410.1 207.312 411.598 208.739L416.151 206.108C418.018 204.823 421.865 209.402 420.212 211.826C417.594 215.667 427.87 223.847 427.87 223.847Z" fill="#FFA8A7"/>
<path d="M322.494 257.784C325.385 246.081 326.22 216.874 326.22 216.874L241.583 219.411C241.583 219.411 245.12 233.552 246.198 237.862C247.276 242.173 247.408 250.46 247.408 250.46C247.408 250.46 255.621 265.677 279.967 268.365C304.315 271.054 322.494 257.784 322.494 257.784Z" fill="#FFA8A7"/>
<path d="M326.22 216.874C326.315 217.8 325.731 226.646 325.731 226.646C314.906 235.757 280.189 240.369 243.791 228.24L236.067 198.431C236.067 198.431 262.277 186.924 244.576 148.31L263.602 146.834L297.386 145.981C305.585 145.981 308.484 145.981 308.484 145.981C313.641 150.846 323.54 161.674 331.329 176.22C335.756 184.483 341.396 196.581 326.22 216.874Z" fill="#455A64"/>
<path d="M278.377 217.139C263.134 213.248 259.306 203.705 258.223 196.712C258.223 196.712 255.343 217.139 277.141 221.9C300.119 226.917 309.569 208.715 309.569 208.715C309.569 208.715 296.772 221.836 278.377 217.139Z" fill="#37474F"/>
<path d="M148.584 444.453C144.141 447.721 133.809 448.502 124.698 444.239C115.587 439.977 111.825 427.902 113.524 418.463C115.581 407.028 121.231 400.772 122.671 393.894C124.112 387.016 122.619 377.466 124.838 371.346C126.949 365.529 131.556 362.57 135.274 361.085C138.322 359.867 141.779 360.238 144.605 361.908L147.293 363.496L148.584 444.453Z" fill="#263238"/>
<path d="M159.247 400.842L152.182 422.035C152.182 422.035 156.645 437.163 154.136 441.178C150.421 447.125 143.882 448.191 132.866 444.83C120.272 440.988 117.295 429.589 117.917 420.725C118.802 408.106 130.469 398.6 129.137 386.463C128.486 380.533 129.299 373.83 132.558 368.714C136.211 362.978 142.21 361.902 148.429 363.78C153.758 365.389 158.441 368.741 162.949 371.892C164.21 372.773 165.49 373.672 166.443 374.878C167.276 375.934 167.829 377.186 168.233 378.468C169.051 381.063 169.288 383.836 168.939 386.533C168.611 389.066 167 390.544 165.493 392.545C163.411 395.309 161.329 398.077 159.247 400.842Z" fill="#37474F"/>
<path d="M189.698 390.8C189.26 390.633 167.678 376.827 165.347 375.79C163.016 374.754 157.311 373.266 151.773 386.071C147.828 395.193 153.507 398.559 153.507 398.559L178.761 413.613L189.698 390.8Z" fill="#FFA8A7"/>
<path d="M152.184 422.036C149.16 420.464 142.766 418.329 137.46 418.745C135.787 418.876 134.491 417.328 135.011 415.733L135.024 415.69C135.315 414.8 136.109 414.176 137.042 414.103C140.458 413.836 148.748 413.74 154.251 418.271C155.692 421.293 152.184 422.036 152.184 422.036Z" fill="#8DC868"/>
<path d="M154.771 412.351C151.832 410.626 145.556 408.163 140.236 408.303C138.56 408.348 137.345 406.736 137.947 405.169L137.963 405.126C138.3 404.252 139.126 403.67 140.062 403.645C143.487 403.556 151.771 403.887 157.032 408.695C158.312 411.79 154.771 412.351 154.771 412.351Z" fill="#8DC868"/>
<path opacity="0.3" d="M152.184 422.036C149.16 420.464 142.766 418.329 137.46 418.745C135.787 418.876 134.491 417.328 135.011 415.733L135.024 415.69C135.315 414.8 136.109 414.176 137.042 414.103C140.458 413.836 148.748 413.74 154.251 418.271C155.692 421.293 152.184 422.036 152.184 422.036Z" fill="black"/>
<path opacity="0.3" d="M154.771 412.351C151.832 410.626 145.556 408.163 140.236 408.303C138.56 408.348 137.345 406.736 137.947 405.169L137.963 405.126C138.3 404.252 139.126 403.67 140.062 403.645C143.487 403.556 151.771 403.887 157.032 408.695C158.312 411.79 154.771 412.351 154.771 412.351Z" fill="black"/>
<path d="M374.723 446.745L402.748 435.622C402.279 428.399 400.493 418.757 402.344 399.78L370.552 393.723V425.574L374.723 446.745Z" fill="#FFA8A7"/>
<path d="M454.705 471.371C455.515 473.064 455.279 476.236 454.319 478.249C453.36 480.261 442.852 486.189 428.681 485.232C414.509 484.276 404.777 478.564 399.373 474.984C393.97 471.406 388.343 470.736 381.326 470.335C374.308 469.933 365.092 466.433 363.553 463.15C362.013 459.867 363.785 454.211 363.785 454.211L454.705 471.371Z" fill="#263238"/>
<path d="M397.514 427.123C397.884 427.044 398.256 426.966 398.635 426.89C399.252 426.768 399.893 426.644 400.504 426.789C401.198 426.955 401.769 427.444 402.253 427.97C403.778 429.626 404.696 431.736 405.874 433.657C408.844 438.505 415.08 442.518 421.892 446.183C426.521 448.673 431.058 450.603 435.838 452.755C440.713 454.948 447.186 456.289 451 458.862C456.562 462.612 457.279 472.034 450.943 475.754C445.478 478.962 431.095 482.441 416.01 478.166C407.793 475.837 398.672 467.055 387.887 466.21C381.028 465.673 368.058 463.745 363.643 458.535C362.011 456.224 364.19 448.899 365.98 442.576C367.933 435.674 368.656 423.503 370.942 424.11C370.942 424.11 370.322 425.832 371.213 426.752C372.059 427.627 375.257 429.519 376.178 430.306C377.874 431.754 378.916 433.801 379.971 435.766C380.429 436.616 380.971 437.523 381.919 437.878C383.076 438.312 383.94 437.582 384.952 437.117C386.224 436.533 387.708 436.427 389.05 436.825C388.918 435.458 388.676 434.102 388.327 432.775C388.213 432.346 388.09 431.891 388.225 431.469C388.363 431.041 388.737 430.739 389.103 430.482C391.749 428.626 394.481 427.778 397.514 427.123Z" fill="#37474F"/>
<path d="M415.486 442.452C415.486 442.452 414.501 439.82 410.421 439.06C407.3 438.478 401.789 440.779 398.362 443.603C396.96 444.758 397.141 446.953 398.732 447.833C399.678 448.356 400.838 448.219 401.654 447.509C403.901 445.553 408.937 442 415.486 442.452Z" fill="#8DC868"/>
<path d="M425.159 447.871C425.159 447.871 423.142 444.717 419.157 444.778C419.157 444.778 411.007 445.012 405.963 449.716C404.677 450.917 404.765 452.958 406.308 453.805C407.224 454.309 408.342 454.175 409.121 453.478C411.394 451.447 415.951 447.182 425.159 447.871Z" fill="#8DC868"/>
<path d="M435.838 452.755C435.838 452.755 433.59 449.9 429.605 449.961C429.605 449.961 422.011 450.244 416.969 454.948C415.682 456.149 415.77 458.19 417.313 459.038C418.23 459.542 419.347 459.408 420.127 458.712C422.4 456.681 426.63 452.066 435.838 452.755Z" fill="#8DC868"/>
<path opacity="0.3" d="M415.486 442.452C415.486 442.452 414.501 439.82 410.421 439.06C407.3 438.478 401.789 440.779 398.362 443.603C396.96 444.758 397.141 446.953 398.732 447.833C399.678 448.356 400.838 448.219 401.654 447.509C403.901 445.553 408.937 442 415.486 442.452Z" fill="black"/>
<path opacity="0.3" d="M425.159 447.871C425.159 447.871 423.142 444.717 419.157 444.778C419.157 444.778 411.007 445.012 405.963 449.716C404.677 450.917 404.765 452.958 406.308 453.805C407.224 454.309 408.342 454.175 409.121 453.478C411.394 451.447 415.951 447.182 425.159 447.871Z" fill="black"/>
<path opacity="0.3" d="M435.838 452.755C435.838 452.755 433.59 449.9 429.605 449.961C429.605 449.961 422.011 450.244 416.969 454.948C415.682 456.149 415.77 458.19 417.313 459.038C418.23 459.542 419.347 459.408 420.127 458.712C422.4 456.681 426.63 452.066 435.838 452.755Z" fill="black"/>
<path d="M393.879 286.806C372.573 282.022 321.67 271.377 321.67 271.377L322.494 257.784C304.078 267.323 265.283 264.627 247.408 250.46L244.584 264.875C244.584 264.875 234.573 276.409 227.079 291.24C222.992 299.329 216.158 311.956 222.958 341.374C226.95 358.65 232.279 404.142 232.279 404.142L180.168 384.916C180.168 384.916 175.655 385.676 171.904 395.45C169.68 401.244 168.854 406.803 171.196 409.683C190.269 424.748 221.182 449.375 252.419 463.181C273.272 471.176 284.376 453.618 285.397 447.122C289.308 422.222 293.836 342.219 293.836 342.219L363.459 339.995C361.158 353.205 370.55 404.82 370.55 404.82C370.55 404.82 387.71 412.261 401.932 404.645C401.932 404.645 411.442 345.236 412.35 325.429C413.364 303.332 414.501 291.437 393.879 286.806Z" fill="#8DC868"/>
<path opacity="0.15" d="M363.459 339.993C363.46 336.428 365.826 323.972 373.891 317.345C373.891 317.345 362.839 319.325 357.777 340.173L363.459 339.993Z" fill="black"/>
<path opacity="0.15" d="M232.279 404.142C232.279 404.142 233.697 423.789 237.523 433.352C237.523 433.352 228.11 416.352 227.034 402.207L232.279 404.142Z" fill="black"/>
<path opacity="0.15" d="M321.658 271.377L322.482 257.79C304.064 267.32 265.295 264.624 247.418 250.467C247.414 250.466 247.411 250.464 247.406 250.463L244.584 264.875L244.578 264.882C244.716 265.027 256.194 276.886 286.033 278.434C316.056 279.991 321.658 271.377 321.658 271.377Z" fill="black"/>
<path opacity="0.15" d="M293.837 342.219C293.837 342.219 294.311 319.783 275.583 303.333C275.583 303.333 291.627 310.723 296.985 334.381C296.985 334.381 308.943 328.829 315.137 312.155C315.137 312.155 313.231 328.829 303.634 338.3L332.572 340.98L293.837 342.219Z" fill="black"/>
<path d="M284.453 40.6567C258.725 40.6567 237.869 61.5203 237.869 87.258C237.869 112.996 258.725 133.859 284.453 133.859C310.181 133.859 331.037 112.996 331.037 87.258C331.037 61.5203 310.181 40.6567 284.453 40.6567Z" fill="#263238"/>
<path d="M235.869 69.0469C237.549 68.9723 239.236 69.0648 240.899 69.3302C241.463 69.4211 242.072 69.5583 242.426 70.0071C242.677 70.3276 242.75 70.7496 242.801 71.1537C243.113 73.6332 243.005 76.4944 242.102 78.8547C241.442 80.5783 239.392 81.4639 238.096 82.7194C233.058 87.6009 232.659 95.7015 234.638 102.432C236.617 109.162 240.539 115.143 243.186 121.64C245.873 128.235 247.126 135.973 243.482 142.455C242.069 144.969 239.489 146.87 239.796 149.955C240.16 153.609 243.342 157.105 244.721 160.436C246.314 164.286 246.682 168.568 246.259 172.713C245.739 177.821 243.985 182.894 240.685 186.824C235.845 192.59 227.719 195.381 220.359 193.806C218.823 193.477 217.289 192.957 216.06 191.976C213.86 190.221 212.991 187.337 211.801 184.786C207.96 176.55 199.864 170.551 197.41 161.801C194.815 152.545 199.262 142.792 204.717 134.876C207.266 131.178 210.113 127.543 211.359 123.228C213.041 117.394 211.573 111.189 211.187 105.129C210.812 99.2158 211.494 93.2384 213.192 87.5621C214.423 83.447 216.314 78.7056 219.522 75.7579C223.953 71.6889 229.869 69.3123 235.869 69.0469Z" fill="#263238"/>
<path d="M313.651 61.9854C318.756 65.0315 325.028 77.9331 324.291 104.923C323.668 127.798 316.233 133.418 312.503 135.033C308.776 136.646 301.602 135.626 294.627 134.433L294.57 148.162C294.57 148.162 304.169 159.407 303.535 165.702C302.903 171.996 289.576 173.429 280.577 167.241C271.577 161.054 264.024 149.035 264.024 149.035L264.311 117.466C264.311 117.466 260.187 121.439 253.249 115.32C247.521 110.268 245.62 101.78 250.118 97.2491C254.616 92.7179 262.892 93.9912 266.04 100.492C266.04 100.492 277.168 100.945 292.022 92.861C306.877 84.7753 312.629 70.8509 313.651 61.9854Z" fill="#FFA8A7"/>
<path d="M298.784 99.0695C298.86 100.719 297.636 102.111 296.049 102.18C294.461 102.248 293.114 100.968 293.038 99.3185C292.962 97.6695 294.186 96.2784 295.773 96.2098C297.36 96.1397 298.708 97.422 298.784 99.0695Z" fill="#263238"/>
<g opacity="0.5">
<path d="M299.471 118.466L306.141 120.625C305.578 122.535 303.63 123.599 301.787 123.004C299.945 122.407 298.909 120.376 299.471 118.466Z" fill="#F28F8F"/>
</g>
<path d="M322.398 90.3336L316.598 86.2751C317.666 84.6171 319.832 84.1817 321.434 85.303C323.033 86.4242 323.467 88.6771 322.398 90.3336Z" fill="#263238"/>
<path d="M321.029 97.0821C321.105 98.7312 319.88 100.122 318.294 100.192C316.706 100.261 315.359 98.9802 315.285 97.3311C315.209 95.6821 316.432 94.2895 318.018 94.2209C319.605 94.1523 320.953 95.4331 321.029 97.0821Z" fill="#263238"/>
<g opacity="0.5">
<path d="M307.469 95.3779L307.856 112.697L316.978 109.912L307.469 95.3779Z" fill="#F28F8F"/>
</g>
<g opacity="0.5">
<path d="M294.629 134.431C287.279 133.435 272.168 129.025 269.833 123.031C269.833 123.031 270.604 126.795 275.107 130.689C279.611 134.582 294.611 139.01 294.611 139.01L294.629 134.431Z" fill="#F28F8F"/>
</g>
<path d="M244.578 148.31C230.149 149.331 224.196 151.173 216.164 168.999C208.938 185.036 191.648 226.503 187.321 235.756C182.996 245.009 182.183 248.717 185.793 258.388C188.737 266.274 213.122 311.587 215.785 318.192C218.449 324.796 219.632 331.475 224.177 339.172C228.72 346.87 235.907 354.377 241.582 356.156C250.003 358.796 260.901 355.121 261.281 350.046C261.661 344.97 248.926 336.469 245.48 325.185C245.48 325.185 249.262 327.703 252.687 329.103C256.111 330.503 259.916 330.2 261.056 328.259C262.198 326.318 258.774 325.134 255.729 322.11C253.913 320.306 250.692 316.26 246.58 312.678C243.8 310.258 239.226 309.543 237.181 306.892C236.066 305.475 231.06 293.198 227.301 282.265C222.645 268.723 216.52 250.684 216.52 250.684L241.582 198.43C241.582 198.43 261.29 178.877 244.578 148.31Z" fill="#FFA8A7"/>
<path d="M215.785 318.192C215.785 318.192 221.561 306.517 237.182 306.893L233.055 297.704C233.055 297.704 217.805 298.784 211.374 309.106L215.785 318.192Z" fill="#37474F"/>
<path d="M214.106 308.274L217.504 313.036C218.544 314.494 220.547 314.804 221.98 313.726L227.976 309.214C229.407 308.138 229.752 306.063 228.746 304.579L225.631 299.984C224.625 298.5 222.631 298.147 221.178 299.192L214.855 303.738C213.401 304.785 213.065 306.815 214.106 308.274Z" fill="#263238"/>
<path d="M212.98 308.157L216.378 312.92C217.419 314.378 219.422 314.688 220.854 313.61L226.85 309.098C228.281 308.022 228.627 305.946 227.621 304.463L224.506 299.867C223.5 298.384 221.505 298.031 220.052 299.076L213.731 303.622C212.275 304.67 211.94 306.699 212.98 308.157Z" fill="#455A64"/>
<path d="M226.962 306.589C226.9 307.205 226.59 307.762 226.113 308.12L220.118 312.632C219.692 312.954 219.173 313.085 218.655 313.006C218.139 312.927 217.684 312.645 217.373 312.212L213.975 307.449C213.688 307.047 213.559 306.553 213.609 306.063C213.669 305.484 213.973 304.958 214.444 304.619L220.767 300.072C221.197 299.76 221.716 299.641 222.229 299.732C222.743 299.823 223.191 300.117 223.493 300.558L226.608 305.152C226.889 305.565 227.014 306.076 226.962 306.589Z" fill="#8DC868"/>
</svg>
